<svg width="115" height="35" viewBox="0 0 115 35" fill="none" xmlns="http://www.w3.org/2000/svg">
<path d="M31.902 32.066C32.5358 32.2814 33.4685 32.4698 34.4465 32.4698C35.8953 32.4698 36.7465 32.0391 36.7465 31.4198C36.7465 30.8455 36.1579 30.5134 34.6728 30.1993C32.8799 29.8403 31.7662 29.3288 31.7662 28.4583C31.7662 27.498 33.1878 26.7891 35.3248 26.7891C36.4476 26.7891 37.2626 26.9327 37.7606 27.0942L37.3713 27.7403C37.0091 27.6327 36.2756 27.4532 35.2795 27.4532C33.7764 27.4532 33.2059 27.9557 33.2059 28.3775C33.2059 28.9519 33.876 29.2301 35.3973 29.5621C37.2536 29.966 38.2043 30.4685 38.2043 31.366C38.2043 32.3173 36.9457 33.1339 34.3559 33.1339C33.2965 33.1339 32.1374 32.9634 31.5488 32.7391L31.902 32.066Z" fill="#131313"/>
<path d="M42.2342 27.5696H38.8838V26.8965H47.0334V27.5696H43.6739V33.0349H42.2342V27.5696Z" fill="#131313"/>
<path d="M49.6768 26.8965V30.5311C49.6768 31.9042 50.7725 32.4875 52.2394 32.4875C53.8693 32.4875 54.9197 31.8862 54.9197 30.5311V26.8965H56.3595V30.4773C56.3595 32.3619 54.5847 33.1337 52.1941 33.1337C49.9394 33.1337 48.2461 32.4157 48.2461 30.5132V26.8965H49.6768Z" fill="#131313"/>
<path d="M58.8225 26.9772C59.6918 26.9054 60.7151 26.8516 61.8379 26.8516C63.8753 26.8516 65.3332 27.1118 66.293 27.6144C67.271 28.1169 67.8414 28.8259 67.8414 29.8221C67.8414 30.8272 67.2891 31.6439 66.2568 32.2093C65.2245 32.7836 63.5312 33.0887 61.3942 33.0887C60.38 33.0887 59.5379 33.0618 58.8135 33.0169V26.9772H58.8225ZM60.2442 32.4067C60.6064 32.4426 61.1225 32.4516 61.684 32.4516C64.7174 32.4516 66.3654 31.5003 66.3654 29.849C66.3836 28.4041 64.9166 27.4798 61.9103 27.4798C61.1769 27.4798 60.6245 27.5157 60.2442 27.5605V32.4067Z" fill="#131313"/>
<path d="M71.1199 26.8965V33.0349H69.6982V26.8965H71.1199Z" fill="#131313"/>
<path d="M83.0004 29.903C83.0004 32.012 80.7004 33.1338 77.8933 33.1338C74.9866 33.1338 72.9492 31.8774 72.9492 30.0197C72.9492 28.0723 75.1224 26.7979 78.0563 26.7979C81.0535 26.7889 83.0004 28.0812 83.0004 29.903ZM74.4614 30.0017C74.4614 31.312 75.7382 32.4876 77.9658 32.4876C80.2205 32.4876 81.4882 31.3299 81.4882 29.9389C81.4882 28.7184 80.3473 27.4441 77.9748 27.4441C75.6386 27.4441 74.4614 28.6556 74.4614 30.0017Z" fill="#131313"/>
<path d="M18.6359 17.1594H8.87449L6.73748 21.9247H0.915039L10.5497 1.9209H17.3863L27.03 21.9247H20.7367L18.6359 17.1594ZM10.1331 13.9286H17.4044L13.9635 6.085H13.6194L10.1331 13.9286Z" fill="#131313"/>
<path d="M37.579 21.9337H31.7656V1.9209H43.4286C44.9589 1.9209 46.3263 2.07346 47.5487 2.36064C48.7711 2.6568 49.8034 3.07859 50.6455 3.635C51.4967 4.19141 52.1396 4.86449 52.6015 5.65423C53.0542 6.44398 53.2806 7.34141 53.2806 8.33756C53.2806 8.97474 53.1719 9.585 52.9455 10.1773C52.7192 10.7606 52.3932 11.3081 51.9676 11.8017C51.5329 12.2953 51.0077 12.735 50.3829 13.1119C49.7581 13.4888 49.0428 13.794 48.2459 14.0273L54.0955 21.9337H47.5125L42.3329 14.6824H37.579V21.9337ZM37.579 11.4606H42.677C44.153 11.4606 45.294 11.1914 46.0999 10.6529C46.9058 10.1145 47.3133 9.36064 47.3133 8.39141C47.3133 7.92474 47.2046 7.49398 46.9873 7.10808C46.77 6.72218 46.4621 6.3991 46.0546 6.12987C45.6471 5.86064 45.1581 5.65423 44.5696 5.51064C43.981 5.36705 43.3381 5.29526 42.6137 5.29526H37.579V11.4606Z" fill="#131313"/>
<path d="M70.0604 1.91211C72.125 1.91211 73.9631 2.12749 75.584 2.56724C77.2049 3.00698 78.5631 3.64416 79.6769 4.49672C80.7907 5.34031 81.6328 6.38134 82.2214 7.60185C82.8009 8.83134 83.0998 10.2224 83.0998 11.7839C83.0998 13.4083 82.81 14.8531 82.2305 16.1185C81.6509 17.3839 80.8088 18.4429 79.7041 19.3044C78.5903 20.166 77.232 20.8211 75.6112 21.2698C73.9903 21.7185 72.1431 21.9429 70.0694 21.9429H59.1309V1.91211H70.0604ZM64.9442 18.3531H69.1368C71.7175 18.3531 73.7005 17.7967 75.086 16.6929C76.4714 15.589 77.1687 13.9736 77.1687 11.8467C77.1687 10.8416 76.9876 9.94416 76.6163 9.14544C76.2541 8.3557 75.7289 7.6916 75.0407 7.14416C74.3525 6.59672 73.5104 6.1839 72.5234 5.9057C71.5364 5.62749 70.4045 5.4839 69.1458 5.4839H64.9533V18.3531H64.9442Z" fill="#131313"/>
<path d="M100.721 1.86719C102.776 1.86719 104.624 2.10052 106.263 2.56719C107.902 3.03385 109.305 3.70693 110.455 4.56847C111.614 5.43898 112.502 6.48898 113.117 7.72744C113.742 8.96591 114.05 10.3659 114.05 11.9095C114.05 13.4621 113.742 14.8621 113.126 16.1095C112.511 17.348 111.623 18.4069 110.473 19.2685C109.314 20.139 107.92 20.8031 106.272 21.2698C104.624 21.7364 102.767 21.9698 100.721 21.9698C98.6563 21.9698 96.8 21.7364 95.1519 21.2698C93.5039 20.8031 92.1004 20.13 90.9504 19.2685C89.7913 18.4069 88.9039 17.348 88.2881 16.1095C87.6633 14.871 87.3555 13.471 87.3555 11.9095C87.3555 10.3659 87.6724 8.96591 88.2972 7.72744C88.922 6.48898 89.8185 5.43001 90.9866 4.5595C92.1456 3.68898 93.5492 3.02488 95.1972 2.55821C96.8362 2.10052 98.6834 1.86719 100.721 1.86719ZM100.721 5.37616C99.5889 5.37616 98.5748 5.52873 97.6602 5.83385C96.7456 6.13898 95.9669 6.56975 95.324 7.13514C94.6811 7.70052 94.174 8.39155 93.8208 9.19924C93.4677 10.0069 93.2956 10.9133 93.2956 11.9095C93.2956 12.9056 93.4677 13.8121 93.8118 14.6108C94.1559 15.4185 94.6539 16.1005 95.2968 16.6749C95.9397 17.2492 96.7185 17.68 97.633 17.9941C98.5476 18.2992 99.5799 18.4608 100.721 18.4608C101.853 18.4608 102.867 18.3082 103.781 17.9941C104.696 17.689 105.475 17.2492 106.118 16.6749C106.77 16.1005 107.259 15.4185 107.612 14.6108C107.956 13.8031 108.128 12.9056 108.128 11.9095C108.128 10.9133 107.956 10.0069 107.612 9.19924C107.268 8.39155 106.77 7.70052 106.118 7.13514C105.466 6.56975 104.687 6.13001 103.781 5.83385C102.867 5.52873 101.853 5.37616 100.721 5.37616Z" fill="#131313"/>
</svg>
