<svg width="166" height="38" viewBox="0 0 166 38" fill="none" xmlns="http://www.w3.org/2000/svg">
<g clip-path="url(#clip0_641_915)">
<mask id="mask0_641_915" style="mask-type:luminance" maskUnits="userSpaceOnUse" x="0" y="0" width="166" height="38">
<path d="M166 0H0V38H166V0Z" fill="white"/>
</mask>
<g mask="url(#mask0_641_915)">
<path fill-rule="evenodd" clip-rule="evenodd" d="M157.715 15.9924H154.303V28.0919H157.709V22.9694H158.018L162.268 28.0919H165.984L160.465 21.8433L165.523 15.9924H162.056L158.001 20.6988H157.691L157.715 15.9924ZM142.252 15.9924H138.845V28.0919H142.252V22.9694H148.718V28.0919H152.118V15.9924H148.718V20.454H142.252V15.9924ZM95.412 25.038H87.1672C88.0414 23.7834 88.3815 23.3182 88.3815 21.6352V13.4403H95.412V25.038ZM100.627 25.038H99.0547V10.3496H84.9026V20.8579C84.9026 23.0367 84.417 23.7099 83.0812 25.0074H81.2599V28.0675H100.597L100.627 25.038ZM68.7835 20.3439H74.4237C76.3057 20.3439 76.506 20.8947 76.506 22.0636V23.3672C76.506 24.6279 76.1903 25.038 74.2901 25.038H68.7835V20.3439ZM65.1407 10.3802V28.0919H74.7333C78.3153 28.0919 80.1124 27.1862 80.1427 23.4039V22.1125C80.1427 18.1957 78.2363 17.296 74.6422 17.296H68.7835V13.275H78.6371V10.3802H65.1407ZM110.408 20.3439H116.054C117.936 20.3439 118.136 20.8947 118.136 22.0636C118.136 22.1064 118.136 23.3243 118.136 23.3672C118.136 24.6279 117.827 25.038 115.927 25.038H110.414L110.408 20.3439ZM106.765 10.3802V28.0919H116.351C119.94 28.0919 121.737 27.1862 121.767 23.4039V22.1125C121.767 18.1957 119.867 17.296 116.261 17.296H110.401V13.275H120.255V10.3802H106.765ZM50.1994 10.3802H46.5566V28.0919H50.1994V20.4968H58.8448V28.0919H62.4876V10.3802H58.8448V17.449H50.1994V10.3802Z" fill="#131313"/>
<path fill-rule="evenodd" clip-rule="evenodd" d="M131.995 15.9941H127.885C124.461 15.9941 123.496 17.3651 123.496 19.1583H126.726C126.908 18.5463 127.145 18.2709 128.389 18.2709H131.231C132.615 18.2709 133.222 18.479 133.222 19.5867V21.894C133.033 21.5313 132.74 21.2355 132.379 21.0462C132.019 20.857 131.609 20.7834 131.206 20.8352H127.825C124.431 20.8352 123.447 21.9124 123.447 23.7239V25.3029C123.447 27.2063 124.868 28.0876 127.09 28.0876H130.933C132.251 28.0876 132.627 27.6714 133.234 26.8636V28.0876H136.641V20.2293C136.641 18.1056 135.456 15.9941 132.038 15.9941H131.995ZM133.252 24.5991C133.252 25.5111 132.815 25.8231 131.48 25.8231H128.517C127.199 25.8231 126.787 25.4926 126.787 24.5991V24.2503C126.817 23.3751 127.284 23.0997 128.517 23.0997H131.48C132.767 23.0997 133.228 23.4424 133.252 24.2625V24.5991Z" fill="#131313"/>
<mask id="mask1_641_915" style="mask-type:alpha" maskUnits="userSpaceOnUse" x="0" y="0" width="38" height="38">
<path fill-rule="evenodd" clip-rule="evenodd" d="M16.3074 0.134114C12.0959 0.699951 7.9929 2.8522 5.0978 6.01418C4.6545 6.49831 4.30802 6.91036 4.32783 6.92992C4.34753 6.94947 4.72731 6.86105 5.17165 6.73343C7.48771 6.0685 11.4571 5.5551 15.4546 5.40338L17.0808 5.3416C17.0808 5.3416 20.1634 5.14716 23.3598 5.42738L24.8121 5.54461C24.8121 5.54461 30.7698 6.24175 32.523 6.74316C32.9664 6.86993 33.3427 6.96015 33.3595 6.9437C33.4137 6.89006 32.023 5.42369 31.2865 4.7581C28.5258 2.26285 24.9241 0.611532 21.187 0.127784C19.8515 -0.0450841 17.6196 -0.0421542 16.3074 0.134114ZM2.2755 9.98061C1.06069 12.3089 0.392404 14.5809 0.0560575 17.5267L0 18.0177L0.705694 17.6957C2.87807 16.7046 7.45041 15.9322 13.35 15.5598C15.6689 15.4133 22.1094 15.4137 24.3511 15.5603C30.4471 15.9592 35.042 16.7551 37.0625 17.7622L37.6298 18.0451L37.5648 17.2101C37.4043 15.1477 36.6662 12.5846 35.6377 10.5177C34.8203 8.87482 34.9294 8.98582 34.4209 9.27998C33.0723 10.0604 30.0319 10.698 25.8082 11.0862C17.024 11.8935 5.84932 10.9625 3.14994 9.19855L2.80221 8.97127L2.2755 9.98061ZM37.0262 20.3135C34.9689 21.3104 30.6349 22.0788 24.7816 22.4844C22.5438 22.6395 15.0758 22.6391 12.8717 22.4838C7.08957 22.0765 2.96149 21.3681 0.876641 20.4255C0.487778 20.2496 0.147989 20.1058 0.121586 20.1058C0.0188457 20.1058 0.211316 21.8145 0.432772 22.869C0.832064 24.7702 1.60214 26.8156 2.54679 28.4836L2.87961 29.0711L3.2193 28.8434C4.45323 28.0165 7.99366 27.3139 13.0631 26.8897C14.9778 26.7297 22.7139 26.7291 24.6381 26.889C29.6838 27.3084 33.2466 28.0158 34.4816 28.8432L34.821 29.0708L35.248 28.2959C36.4099 26.1877 37.2233 23.6236 37.5075 21.1731C37.5691 20.6432 37.6042 20.1756 37.5859 20.134C37.5674 20.0926 37.3156 20.1733 37.0262 20.3135ZM33.1034 31.153C32.8171 31.304 31.013 31.7252 29.6603 31.9568C22.6025 33.1654 11.3357 32.9229 5.56195 31.438C4.96158 31.2836 4.45668 31.1706 4.44003 31.1871C4.38751 31.2388 5.86529 32.8216 6.41458 33.3017C9.09138 35.642 11.8374 37.0156 15.2971 37.7449C16.4243 37.9826 16.6668 38 18.8506 38C21.0289 38 21.2788 37.9822 22.3921 37.7474C25.9467 36.9976 29.022 35.406 31.5608 33.0022C32.416 32.1926 33.3445 31.1749 33.2832 31.1145C33.2628 31.0943 33.1818 31.1116 33.1034 31.153Z" fill="black"/>
</mask>
<g mask="url(#mask1_641_915)">
<path d="M0 19C0 29.4934 8.52286 38 18.8239 38C29.125 38 37.6478 29.4934 37.6478 19C37.6478 8.50659 29.125 0 18.8239 0C8.52286 0 0 8.50659 0 19Z" fill="#131313"/>
</g>
</g>
</g>
<defs>
<clipPath id="clip0_641_915">
<rect width="166" height="38" fill="white"/>
</clipPath>
</defs>
</svg>
