<svg width="136" height="39" viewBox="0 0 136 39" fill="none" xmlns="http://www.w3.org/2000/svg">
<path d="M49.7477 14.0795C48.3638 15.4042 46.5094 16.1367 44.5849 16.119C39.7405 16.119 36.5029 12.7327 36.5029 8.07024C36.5029 3.40781 39.786 0 44.5394 0C46.5772 0 48.3444 0.643389 49.5896 1.79291L48.2751 3.40782C47.2368 2.52118 45.9104 2.03534 44.5394 2.03954C41.0312 2.03954 38.8353 4.57235 38.8353 8.07024C38.8353 11.5681 41.2174 14.0752 44.6087 14.0752C46.0399 14.0666 47.4148 13.5218 48.457 12.5504L49.7477 14.0795Z" fill="#131313"/>
<path d="M55.8741 2.3524V15.8036H53.6351V2.3524H50.3936V0.316406H59.1157V2.3524H55.8741Z" fill="#131313"/>
<path d="M77.8762 15.8046H77.5293V13.7831H77.8983C79.4228 13.7831 79.8382 12.2952 79.9553 10.2716L80.4502 0.317383H89.8049V15.6941H87.5314V2.36222H82.4961L82.1249 10.4268C81.9636 13.8278 80.8788 15.8046 77.8762 15.8046Z" fill="#131313"/>
<path d="M94.6301 12.2669L102.427 0.316406H104.666V15.8036H102.427V3.85316L94.6301 15.8036H92.3906V0.316406H94.6301V12.2669Z" fill="#131313"/>
<path d="M116.82 0.317383H119.059V13.7641H120.818V18.9653H118.716V15.8265H107.25V0.317383H109.487V13.7641H116.82V0.317383Z" fill="#131313"/>
<path d="M131.605 10.7029H125.652L123.681 15.8046H121.463L127.415 0.317383H129.774L136 15.8046H133.643L131.605 10.7029ZM126.362 8.82102H130.853L128.587 3.11553L126.362 8.82102Z" fill="#131313"/>
<path d="M0.00127083 34.0482H2.16169C2.23059 35.4497 3.09075 36.6435 4.97334 36.6435C6.78479 36.6435 7.64051 35.3761 7.64051 33.8838C7.64051 32.2574 6.71145 31.2387 4.59771 31.2387H3.29524V29.2922H4.66661C6.38694 29.2922 7.26933 28.3427 7.26933 26.805C7.26933 25.2672 6.41361 24.3394 4.85776 24.3394C3.04408 24.3394 2.27726 25.5138 2.25504 26.9607H0.0946234C0.0234986 24.813 1.16149 22.4404 4.85776 22.4404C7.94724 22.4404 9.6209 24.1361 9.6209 26.6903C9.6209 28.3189 8.71405 29.5387 7.59828 30.0816C9.03856 30.6482 10.0143 31.9135 10.0143 33.8795C10.0143 36.7062 7.99392 38.5598 4.97334 38.5598C1.18594 38.5684 -0.0454048 36.2175 0.00127083 34.0482Z" fill="#131313"/>
<path d="M20.3838 33.1413H14.2974L12.2821 38.2431H10.0137L16.1001 22.7559H18.5051L24.8736 38.2431H22.4664L20.3838 33.1413ZM15.023 31.2552H19.6113L17.2936 25.5476L15.023 31.2552Z" fill="#131313"/>
<path d="M28.1066 29.4483L33.9102 22.7559H36.6173L30.0972 30.1419L36.8252 38.2431H34.1203L28.1066 31.1781V38.2431H25.8418V22.7559H28.1066V29.4483Z" fill="#131313"/>
<path d="M47.2841 33.1413H41.3372L39.368 38.2431H37.1494L43.0985 22.7559H45.4637L51.6863 38.2431H49.3189L47.2841 33.1413ZM42.0461 31.2552H46.5293L44.2647 25.5476L42.0461 31.2552Z" fill="#131313"/>
<path d="M55.8719 24.794V38.2431H53.6351V24.794H50.3936V22.7559H59.1157V24.794H55.8719Z" fill="#131313"/>
<path d="M83.9412 38.2431H79.4688V22.7559H83.6597C86.6976 22.7559 88.3888 24.1667 88.3888 26.8236C88.3888 28.3008 87.684 29.4868 86.5287 30.0692C87.9655 30.6515 88.837 31.8589 88.837 33.7622C88.8392 36.5882 86.8124 38.2431 83.9412 38.2431ZM81.7523 24.6805V29.3284H83.5538C85.155 29.3284 86.031 28.4549 86.031 26.9734C86.031 25.4919 85.2068 24.6677 83.5538 24.6677L81.7523 24.6805ZM81.7523 31.1931V36.3184H83.6822C85.4838 36.3184 86.4364 35.2672 86.4364 33.7001C86.4364 32.1779 85.5198 31.1931 83.6822 31.1931H81.7523Z" fill="#131313"/>
<path d="M76.531 37.7273V8.74258C76.5485 8.51319 76.5593 8.28165 76.5593 8.04583C76.5593 3.428 73.2349 0 68.4561 0C63.8123 0 60.4225 3.40656 60.4225 8.06727V37.7487C60.4225 37.9117 60.4072 38.0767 60.4072 38.244H62.752C62.752 34.7495 65.0293 32.2176 68.4648 32.2176C71.9003 32.2176 74.1906 34.7431 74.1993 38.2204H76.531V38.2097H76.5441C76.5441 38.0553 76.5397 37.8902 76.531 37.7273ZM68.4757 2.03879C71.8894 2.03879 74.2102 4.57067 74.2102 8.06727H74.195V8.5089C74.0099 11.7697 71.7849 14.0679 68.4757 14.0679C65.1055 14.0679 62.7629 11.5789 62.7629 8.06512C62.7629 4.55137 65.0423 2.03879 68.48 2.03879H68.4757ZM62.7476 32.3956V13.9285C63.4007 14.5624 64.1678 15.0713 65.0097 15.4292V30.8649C64.1686 31.2352 63.4034 31.754 62.752 32.3956H62.7476ZM68.4387 30.1745C68.0747 30.1758 67.7112 30.1987 67.3501 30.2431V16.0445C67.7265 16.0894 68.1052 16.1123 68.4844 16.1131C68.8614 16.1126 69.2381 16.0889 69.6121 16.0424V30.2474C69.2244 30.1989 68.8339 30.1745 68.443 30.1745H68.4387ZM71.9329 30.8734V15.4163C72.7746 15.0514 73.5413 14.5377 74.195 13.9007V32.3848C73.5422 31.7498 72.7771 31.2375 71.9373 30.8734H71.9329Z" fill="#131313"/>
</svg>
