<svg width="168" height="38" viewBox="0 0 168 38" fill="none" xmlns="http://www.w3.org/2000/svg">
<g clip-path="url(#clip0_641_945)">
<path d="M29.4991 9.10123L29.3097 9.07443H29.2015L29.188 8.95379L29.1609 8.76614C28.5117 3.76649 24.2106 0 19.1791 0C15.1485 0 11.4561 2.46631 9.91418 6.17919C9.9818 6.17919 10.063 6.17919 10.1306 6.17919C10.8069 6.17919 11.5643 6.2328 12.4299 6.34003C13.512 4.40988 15.4055 2.97566 17.529 2.50653L17.8266 2.43951L18.0024 2.39929V17.921H17.8807L17.6643 17.9746C15.5002 18.2963 13.5525 19.2882 12.0106 20.8564L11.5913 21.2854L11.3344 21.54V9.07443L11.1179 9.06102C10.7798 9.03421 10.4687 9.00741 10.1576 9.00741C4.55809 9.00741 0 13.4843 0 18.9933C0 23.9929 3.80066 28.242 8.84566 28.8854L9.03502 28.9122H9.14322L9.15675 29.0328L9.1838 29.2205C9.83302 34.2201 14.1341 37.9866 19.1656 37.9866C23.2368 37.9866 26.9563 35.4667 28.4847 31.7002C28.39 31.7002 28.2953 31.7002 28.2006 31.7002C27.5514 31.7002 26.8481 31.6466 25.9689 31.5527C24.9004 33.5365 22.9798 35.0109 20.8157 35.4935L20.5182 35.5605L20.3423 35.6007V20.079H20.4641L20.6805 20.0254C22.8445 19.7037 24.8057 18.7118 26.3341 17.1436L26.7534 16.7146L27.0104 16.46V28.9122H27.2133C27.5514 28.9658 27.8625 28.9792 28.1736 28.9792C33.7731 28.9792 38.3447 24.5023 38.3447 18.9933C38.3447 13.9937 34.5441 9.74462 29.4991 9.10123ZM8.99444 11.581V26.6067L8.81861 26.5665L8.52105 26.4995C4.9368 25.7489 2.32638 22.5989 2.32638 18.9933C2.32638 15.3877 4.92327 12.2377 8.52105 11.4871L8.81861 11.4201L8.99444 11.3799V11.5541V11.581ZM18.0024 25.7623V35.6007L17.8266 35.5605L17.529 35.4935C14.4993 34.8367 12.1053 32.3436 11.5508 29.2875L11.5102 29.0462L11.4831 28.8988L11.6319 28.872L11.8754 28.8317C13.9448 28.4832 15.8383 27.5316 17.3397 26.0571L17.759 25.6416L18.0159 25.4004V25.7489L18.0024 25.7623ZM18.3541 19.9718L18.2459 20.3739C17.4208 23.564 14.8916 26.0705 11.659 26.915L11.2532 27.0222L11.0097 27.0892L11.0774 26.848L11.1856 26.4459C12.0377 23.2289 14.5669 20.7358 17.7725 19.9048L18.1782 19.7975L18.4217 19.7305L18.3541 19.9718ZM20.3423 12.2243V2.38589L20.5182 2.4261L20.8157 2.49312C23.8454 3.14991 26.2394 5.64303 26.794 8.69912L26.8346 8.94039L26.8616 9.08783L26.7128 9.11464L26.4694 9.15485C24.4 9.50335 22.5064 10.455 21.0051 11.9295L20.5858 12.345L20.3288 12.5862V12.2377L20.3423 12.2243ZM27.362 11.0582L27.2538 11.4603C26.3747 14.7711 23.7778 17.3446 20.4641 18.1891L20.0583 18.2963L19.8148 18.3633L19.8825 18.122L19.9907 17.7199C20.8428 14.436 23.4397 11.8624 26.7669 10.9912L27.1727 10.884L27.4161 10.8169L27.3485 11.0582H27.362ZM29.8237 26.4995L29.5261 26.5665L29.3503 26.6067V11.4067L29.5261 11.4469L29.8237 11.5139C33.4079 12.2646 36.0184 15.4145 36.0184 19.0201C36.0184 22.6257 33.4215 25.7757 29.8237 26.5263V26.4995Z" fill="#131313"/>
<path d="M49.8418 12.5465H53.8318V28.0816H56.7127V12.5465H60.6757V9.89258H49.8418V12.5465Z" fill="#131313"/>
<path d="M76.027 15.9645C76.027 13.1631 74.1605 9.89258 68.9126 9.89258H63.0967V28.0816H65.9776V12.5465H68.7233C72.835 12.5465 73.1596 15.1201 73.1596 15.9109C73.1596 17.9617 71.496 19.2351 68.818 19.2351H65.9911L72.7403 28.0816H76.3517L71.3337 21.5674C74.1064 20.9642 76.0406 18.7257 76.0406 15.9645H76.027Z" fill="#131313"/>
<path d="M102.334 17.1043C99.8997 16.4877 99.3992 15.6835 99.3992 14.6648C99.3992 13.311 100.535 12.2387 101.983 12.2387C103.335 12.2387 104.485 13.4048 104.485 14.772V15.335H107.366V14.772C107.366 11.8634 104.999 9.57129 101.983 9.57129C98.9664 9.57129 96.5318 11.7829 96.5318 14.7184C96.5318 18.4044 99.5886 19.2489 101.807 19.8655C103.998 20.482 104.918 21.3801 104.918 22.8679C104.918 24.463 103.633 25.7096 101.983 25.7096C100.17 25.7096 99.034 24.5836 98.9258 22.7071L98.8988 22.1843H96.0449V22.7473C96.1125 26.0581 98.5471 28.3769 101.983 28.3769C105.242 28.3769 107.785 25.9374 107.785 22.8143C107.785 19.9325 105.946 18.0157 102.334 17.1043Z" fill="#131313"/>
<path d="M110.328 28.0816H120.973V25.4277H113.196V20.2404H120.716V17.573H113.196V12.5465H120.973V9.89258H110.328V28.0816Z" fill="#131313"/>
<path d="M138.88 23.5645L132.929 9.89258H129.317V28.0816H132.185V14.9861L137.595 27.7331L137.744 28.0816H139.975L145.589 14.9726V28.0816H148.456V9.89258H144.845L138.88 23.5645Z" fill="#131313"/>
<path d="M92.1897 23.7253C89.8227 26.0576 86.2926 26.3927 83.574 24.6234L95.1382 13.2703L94.8948 12.895C94.8001 12.7476 94.5702 12.4795 94.3402 12.2516C90.5802 8.55214 84.4125 8.59235 80.5984 12.332C76.7977 16.0717 76.7301 22.0901 80.4631 25.7493C83.858 29.0869 89.0112 29.3684 92.8389 26.6608V22.8943C92.6225 23.1758 92.4467 23.4707 92.1897 23.7253ZM82.4919 14.2354C84.8183 11.9567 88.5243 11.6216 91.2023 13.3641L81.6533 22.7468C79.868 20.1197 80.1791 16.5006 82.4919 14.2354Z" fill="#131313"/>
<path d="M165.052 23.7253C162.685 26.0576 159.155 26.3927 156.436 24.6234L168.001 13.2703L167.757 12.895C167.662 12.7476 167.432 12.4795 167.203 12.2516C163.442 8.55214 157.275 8.59235 153.461 12.332C149.66 16.0717 149.592 22.0901 153.325 25.7493C156.72 29.0869 161.874 29.3684 165.701 26.6608V22.8943C165.485 23.1758 165.309 23.4707 165.052 23.7253ZM155.354 14.2354C157.681 11.9567 161.387 11.6216 164.065 13.3641L154.516 22.7468C152.73 20.1197 153.041 16.5006 155.354 14.2354Z" fill="#131313"/>
</g>
<defs>
<clipPath id="clip0_641_945">
<rect width="168" height="38" fill="white"/>
</clipPath>
</defs>
</svg>
