<svg width="116" height="26" viewBox="0 0 116 26" fill="none" xmlns="http://www.w3.org/2000/svg">
<mask id="mask0_641_1015" style="mask-type:luminance" maskUnits="userSpaceOnUse" x="0" y="0" width="115" height="26">
<path d="M114.958 0H0.509766V26H114.958V0Z" fill="white"/>
</mask>
<g mask="url(#mask0_641_1015)">
<path d="M75.73 25.3418C84.0272 25.3418 88.9743 20.7013 88.9743 13C88.9743 5.29874 84.0272 0.658228 75.73 0.658228H65.645V25.3418H75.73ZM75.4106 5.79241C80.1657 5.79241 83.4213 8.42534 83.4213 13C83.4213 17.5747 80.1657 20.2076 75.4106 20.2076H71.198V5.79241H75.4106ZM36.2529 13.4607V0.658228H41.8059V12.8355C41.8059 17.3443 43.8484 20.5039 48.2204 20.5039C52.5926 20.5039 54.6351 17.3443 54.6351 12.8355V0.658228H60.1881V13.4607C60.1881 21.4253 55.3372 26 48.2204 26C41.1037 26 36.2529 21.4253 36.2529 13.4607ZM99.6011 14.3493C94.7504 13.4607 92.5803 11.0582 92.5803 7.40507C92.5803 3.4557 95.6124 0 103.048 0C110.707 0 114.282 3.09367 114.282 7.47087H108.697C108.697 5.66076 107.005 4.67342 103.24 4.67342C99.7292 4.67342 98.1651 5.43039 98.1651 7.2076C98.1651 8.82027 99.4415 9.54433 102.346 10.1038L107.133 10.9924C113.228 12.1443 114.824 15.0405 114.824 18.1671C114.824 22.5443 110.771 25.9342 103.495 25.9342C96.5376 25.9342 92.1653 22.8076 92.1653 17.8708H97.7507C97.7507 19.6481 99.8249 21.2278 103.527 21.2278C107.835 21.2278 109.271 19.8455 109.271 18.2987C109.271 17.0152 108.409 15.8632 105.282 15.3039L99.6011 14.3493ZM12.7964 26C5.45636 26 0.509766 20.7342 0.509766 12.8355V0.658228H7.21158V8.3924C7.21158 14.6784 11.3604 19.0886 17.2645 19.0886C20.4238 19.0886 23.0727 17.8379 24.8598 15.7317C23.7747 21.9848 19.2111 26 12.7964 26ZM16.1475 0.658228V3.94936C16.1475 7.438 18.4451 9.8734 21.7322 9.8734C22.9132 9.90634 24.0938 9.5114 25.0832 8.82027C24.8917 13.6582 21.8918 16.7848 17.2645 16.7848C12.5731 16.7848 9.44558 13.4278 9.44558 8.42533V0.658228H16.1475ZM21.7322 7.5696C19.7218 7.5696 18.3813 6.12152 18.3813 3.98228V0.658228H25.0832V3.98228C25.0832 6.12152 23.7428 7.5696 21.7322 7.5696Z" fill="#131313"/>
</g>
</svg>
