<svg xmlns="http://www.w3.org/2000/svg" width="1600" height="603" viewBox="0 0 1600 603" fill="none">
    <rect width="1600" height="306" fill="#131313" />
    <path d="M84.7961 188.009H147.797L117.148 98.7859H116.467L84.7961 188.009ZM89.9043 38.8497H144.732L235.658 282H180.149L161.76 227.853H70.8337L51.7631 282H-2.04328L89.9043 38.8497ZM249.815 38.8497H302.94L404.423 201.972H405.104V38.8497H455.164V282H401.699L300.556 119.219H299.875V282H249.815V38.8497ZM548.887 237.048H596.563C604.282 237.048 611.774 235.799 619.039 233.302C626.304 230.804 632.775 226.718 638.45 221.042C644.126 215.139 648.667 207.534 652.072 198.226C655.478 188.917 657.18 177.566 657.18 164.171C657.18 151.911 655.932 140.9 653.434 131.138C651.164 121.148 647.305 112.635 641.856 105.597C636.407 98.5589 629.142 93.2237 620.061 89.5912C611.207 85.7317 600.196 83.8019 587.028 83.8019H548.887V237.048ZM495.421 38.8497H600.309C615.974 38.8497 630.504 41.3471 643.899 46.3418C657.521 51.3364 669.213 58.8285 678.975 68.8178C688.965 78.8072 696.684 91.2939 702.133 106.278C707.808 121.262 710.646 138.857 710.646 159.063C710.646 176.771 708.376 193.117 703.835 208.101C699.295 223.085 692.37 236.026 683.062 246.924C673.981 257.821 662.516 266.448 648.667 272.805C635.045 278.935 618.926 282 600.309 282H495.421V38.8497ZM794.492 148.846H853.066C865.326 148.846 874.521 146.122 880.651 140.673C886.781 135.224 889.846 126.37 889.846 114.111C889.846 102.305 886.781 93.7913 880.651 88.5695C874.521 83.1208 865.326 80.3964 853.066 80.3964H794.492V148.846ZM741.027 38.8497H872.137C883.035 38.8497 892.797 40.666 901.424 44.2985C910.278 47.704 917.77 52.4716 923.9 58.6014C930.257 64.7313 935.025 71.8828 938.203 80.0559C941.609 88.002 943.311 96.6291 943.311 105.937C943.311 120.24 940.246 132.614 934.117 143.057C928.214 153.5 918.451 161.447 904.83 166.895V167.576C911.413 169.393 916.862 172.23 921.176 176.09C925.489 179.723 929.008 184.15 931.733 189.371C934.457 194.366 936.387 199.928 937.522 206.058C938.884 212.188 939.792 218.318 940.246 224.448C940.473 228.307 940.7 232.848 940.927 238.069C941.155 243.291 941.495 248.626 941.949 254.075C942.63 259.524 943.538 264.746 944.674 269.74C946.036 274.508 947.965 278.595 950.463 282H896.997C894.046 274.281 892.229 265.086 891.548 254.416C890.867 243.745 889.846 233.529 888.483 223.767C886.667 211.053 882.808 201.745 876.905 195.842C871.002 189.939 861.353 186.988 847.958 186.988H794.492V282H741.027V38.8497ZM979.981 38.8497H1161.83V83.8019H1033.45V135.906H1151.28V177.452H1033.45V237.048H1164.56V282H979.981V38.8497ZM1193.99 38.8497H1375.85V83.8019H1247.46V135.906H1365.29V177.452H1247.46V237.048H1378.57V282H1193.99V38.8497ZM1521.07 282H1460.79L1382.12 38.8497H1436.95L1491.1 209.804H1491.78L1546.61 38.8497H1601.78L1521.07 282Z" fill="white" />
    <rect width="1600" height="306" transform="translate(0 40.5684)" fill="#131313" />
    <path d="M84.7961 228.577H147.797L117.148 139.354H116.467L84.7961 228.577ZM89.9043 79.4181H144.732L235.658 322.568H180.149L161.76 268.421H70.8337L51.7631 322.568H-2.04328L89.9043 79.4181ZM249.815 79.4181H302.94L404.423 242.54H405.104V79.4181H455.164V322.568H401.699L300.556 159.787H299.875V322.568H249.815V79.4181ZM548.887 277.616H596.563C604.282 277.616 611.774 276.368 619.039 273.87C626.304 271.373 632.775 267.286 638.45 261.611C644.126 255.708 648.667 248.102 652.072 238.794C655.478 229.486 657.18 218.134 657.18 204.739C657.18 192.48 655.932 181.469 653.434 171.706C651.164 161.717 647.305 153.203 641.856 146.165C636.407 139.127 629.142 133.792 620.061 130.16C611.207 126.3 600.196 124.37 587.028 124.37H548.887V277.616ZM495.421 79.4181H600.309C615.974 79.4181 630.504 81.9154 643.899 86.9101C657.521 91.9048 669.213 99.3968 678.975 109.386C688.965 119.376 696.684 131.862 702.133 146.846C707.808 161.83 710.646 179.425 710.646 199.631C710.646 217.339 708.376 233.686 703.835 248.67C699.295 263.654 692.37 276.595 683.062 287.492C673.981 298.39 662.516 307.017 648.667 313.374C635.045 319.503 618.926 322.568 600.309 322.568H495.421V79.4181ZM794.492 189.415H853.066C865.326 189.415 874.521 186.69 880.651 181.242C886.781 175.793 889.846 166.939 889.846 154.679C889.846 142.873 886.781 134.36 880.651 129.138C874.521 123.689 865.326 120.965 853.066 120.965H794.492V189.415ZM741.027 79.4181H872.137C883.035 79.4181 892.797 81.2343 901.424 84.8668C910.278 88.2723 917.77 93.04 923.9 99.1698C930.257 105.3 935.025 112.451 938.203 120.624C941.609 128.57 943.311 137.198 943.311 146.506C943.311 160.809 940.246 173.182 934.117 183.625C928.214 194.069 918.451 202.015 904.83 207.464V208.145C911.413 209.961 916.862 212.799 921.176 216.658C925.489 220.291 929.008 224.718 931.733 229.94C934.457 234.934 936.387 240.497 937.522 246.626C938.884 252.756 939.792 258.886 940.246 265.016C940.473 268.876 940.7 273.416 940.927 278.638C941.155 283.86 941.495 289.195 941.949 294.644C942.63 300.092 943.538 305.314 944.674 310.309C946.036 315.076 947.965 319.163 950.463 322.568H896.997C894.046 314.849 892.229 305.655 891.548 294.984C890.867 284.314 889.846 274.097 888.483 264.335C886.667 251.621 882.808 242.313 876.905 236.41C871.002 230.507 861.353 227.556 847.958 227.556H794.492V322.568H741.027V79.4181ZM979.981 79.4181H1161.83V124.37H1033.45V176.474H1151.28V218.021H1033.45V277.616H1164.56V322.568H979.981V79.4181ZM1193.99 79.4181H1375.85V124.37H1247.46V176.474H1365.29V218.021H1247.46V277.616H1378.57V322.568H1193.99V79.4181ZM1521.07 322.568H1460.79L1382.12 79.4181H1436.95L1491.1 250.372H1491.78L1546.61 79.4181H1601.78L1521.07 322.568Z" fill="white" />
    <rect width="1600" height="306" transform="translate(0 87.6221)" fill="#131313" />
    <path d="M84.7961 275.631H147.797L117.148 186.408H116.467L84.7961 275.631ZM89.9043 126.472H144.732L235.658 369.622H180.149L161.76 315.475H70.8337L51.7631 369.622H-2.04328L89.9043 126.472ZM249.815 126.472H302.94L404.423 289.594H405.104V126.472H455.164V369.622H401.699L300.556 206.841H299.875V369.622H249.815V126.472ZM548.887 324.67H596.563C604.282 324.67 611.774 323.421 619.039 320.924C626.304 318.427 632.775 314.34 638.45 308.664C644.126 302.761 648.667 295.156 652.072 285.848C655.478 276.539 657.18 265.188 657.18 251.793C657.18 239.533 655.932 228.522 653.434 218.76C651.164 208.771 647.305 200.257 641.856 193.219C636.407 186.181 629.142 180.846 620.061 177.213C611.207 173.354 600.196 171.424 587.028 171.424H548.887V324.67ZM495.421 126.472H600.309C615.974 126.472 630.504 128.969 643.899 133.964C657.521 138.959 669.213 146.451 678.975 156.44C688.965 166.429 696.684 178.916 702.133 193.9C707.808 208.884 710.646 226.479 710.646 246.685C710.646 264.393 708.376 280.739 703.835 295.723C699.295 310.708 692.37 323.648 683.062 334.546C673.981 345.443 662.516 354.07 648.667 360.427C635.045 366.557 618.926 369.622 600.309 369.622H495.421V126.472ZM794.492 236.468H853.066C865.326 236.468 874.521 233.744 880.651 228.295C886.781 222.846 889.846 213.992 889.846 201.733C889.846 189.927 886.781 181.413 880.651 176.192C874.521 170.743 865.326 168.018 853.066 168.018H794.492V236.468ZM741.027 126.472H872.137C883.035 126.472 892.797 128.288 901.424 131.921C910.278 135.326 917.77 140.094 923.9 146.224C930.257 152.353 935.025 159.505 938.203 167.678C941.609 175.624 943.311 184.251 943.311 193.559C943.311 207.862 940.246 220.236 934.117 230.679C928.214 241.122 918.451 249.069 904.83 254.517V255.198C911.413 257.015 916.862 259.853 921.176 263.712C925.489 267.345 929.008 271.772 931.733 276.993C934.457 281.988 936.387 287.55 937.522 293.68C938.884 299.81 939.792 305.94 940.246 312.07C940.473 315.929 940.7 320.47 940.927 325.692C941.155 330.913 941.495 336.249 941.949 341.697C942.63 347.146 943.538 352.368 944.674 357.362C946.036 362.13 947.965 366.217 950.463 369.622H896.997C894.046 361.903 892.229 352.708 891.548 342.038C890.867 331.367 889.846 321.151 888.483 311.389C886.667 298.675 882.808 289.367 876.905 283.464C871.002 277.561 861.353 274.61 847.958 274.61H794.492V369.622H741.027V126.472ZM979.981 126.472H1161.83V171.424H1033.45V223.528H1151.28V265.074H1033.45V324.67H1164.56V369.622H979.981V126.472ZM1193.99 126.472H1375.85V171.424H1247.46V223.528H1365.29V265.074H1247.46V324.67H1378.57V369.622H1193.99V126.472ZM1521.07 369.622H1460.79L1382.12 126.472H1436.95L1491.1 297.426H1491.78L1546.61 126.472H1601.78L1521.07 369.622Z" fill="white" />
    <rect width="1600" height="306" transform="translate(0 147.297)" fill="#131313" />
    <path d="M84.7961 335.306H147.797L117.148 246.083H116.467L84.7961 335.306ZM89.9043 186.147H144.732L235.658 429.297H180.149L161.76 375.15H70.8337L51.7631 429.297H-2.04328L89.9043 186.147ZM249.815 186.147H302.94L404.423 349.268H405.104V186.147H455.164V429.297H401.699L300.556 266.516H299.875V429.297H249.815V186.147ZM548.887 384.345H596.563C604.282 384.345 611.774 383.096 619.039 380.599C626.304 378.101 632.775 374.015 638.45 368.339C644.126 362.436 648.667 354.831 652.072 345.522C655.478 336.214 657.18 324.863 657.18 311.468C657.18 299.208 655.932 288.197 653.434 278.435C651.164 268.445 647.305 259.932 641.856 252.894C636.407 245.856 629.142 240.521 620.061 236.888C611.207 233.029 600.196 231.099 587.028 231.099H548.887V384.345ZM495.421 186.147H600.309C615.974 186.147 630.504 188.644 643.899 193.639C657.521 198.633 669.213 206.125 678.975 216.115C688.965 226.104 696.684 238.591 702.133 253.575C707.808 268.559 710.646 286.154 710.646 306.36C710.646 324.068 708.376 340.414 703.835 355.398C699.295 370.382 692.37 383.323 683.062 394.221C673.981 405.118 662.516 413.745 648.667 420.102C635.045 426.232 618.926 429.297 600.309 429.297H495.421V186.147ZM794.492 296.143H853.066C865.326 296.143 874.521 293.419 880.651 287.97C886.781 282.521 889.846 273.667 889.846 261.407C889.846 249.602 886.781 241.088 880.651 235.866C874.521 230.418 865.326 227.693 853.066 227.693H794.492V296.143ZM741.027 186.147H872.137C883.035 186.147 892.797 187.963 901.424 191.595C910.278 195.001 917.77 199.768 923.9 205.898C930.257 212.028 935.025 219.18 938.203 227.353C941.609 235.299 943.311 243.926 943.311 253.234C943.311 267.537 940.246 279.91 934.117 290.354C928.214 300.797 918.451 308.743 904.83 314.192V314.873C911.413 316.689 916.862 319.527 921.176 323.387C925.489 327.019 929.008 331.446 931.733 336.668C934.457 341.663 936.387 347.225 937.522 353.355C938.884 359.485 939.792 365.615 940.246 371.744C940.473 375.604 940.7 380.145 940.927 385.366C941.155 390.588 941.495 395.923 941.949 401.372C942.63 406.821 943.538 412.043 944.674 417.037C946.036 421.805 947.965 425.891 950.463 429.297H896.997C894.046 421.578 892.229 412.383 891.548 401.713C890.867 391.042 889.846 380.826 888.483 371.063C886.667 358.35 882.808 349.041 876.905 343.139C871.002 337.236 861.353 334.284 847.958 334.284H794.492V429.297H741.027V186.147ZM979.981 186.147H1161.83V231.099H1033.45V283.202H1151.28V324.749H1033.45V384.345H1164.56V429.297H979.981V186.147ZM1193.99 186.147H1375.85V231.099H1247.46V283.202H1365.29V324.749H1247.46V384.345H1378.57V429.297H1193.99V186.147ZM1521.07 429.297H1460.79L1382.12 186.147H1436.95L1491.1 357.101H1491.78L1546.61 186.147H1601.78L1521.07 429.297Z" fill="white" />
    <rect width="1600" height="306" transform="translate(0 217.595)" fill="#131313" />
    <path d="M84.7961 405.604H147.797L117.148 316.381H116.467L84.7961 405.604ZM89.9043 256.444H144.732L235.658 499.595H180.149L161.76 445.448H70.8337L51.7631 499.595H-2.04328L89.9043 256.444ZM249.815 256.444H302.94L404.423 419.566H405.104V256.444H455.164V499.595H401.699L300.556 336.813H299.875V499.595H249.815V256.444ZM548.887 454.643H596.563C604.282 454.643 611.774 453.394 619.039 450.897C626.304 448.399 632.775 444.313 638.45 438.637C644.126 432.734 648.667 425.129 652.072 415.82C655.478 406.512 657.18 395.16 657.18 381.766C657.18 369.506 655.932 358.495 653.434 348.733C651.164 338.743 647.305 330.23 641.856 323.192C636.407 316.154 629.142 310.818 620.061 307.186C611.207 303.326 600.196 301.397 587.028 301.397H548.887V454.643ZM495.421 256.444H600.309C615.974 256.444 630.504 258.942 643.899 263.936C657.521 268.931 669.213 276.423 678.975 286.413C688.965 296.402 696.684 308.889 702.133 323.873C707.808 338.857 710.646 356.452 710.646 376.657C710.646 394.366 708.376 410.712 703.835 425.696C699.295 440.68 692.37 453.621 683.062 464.518C673.981 475.416 662.516 484.043 648.667 490.4C635.045 496.53 618.926 499.595 600.309 499.595H495.421V256.444ZM794.492 366.441H853.066C865.326 366.441 874.521 363.717 880.651 358.268C886.781 352.819 889.846 343.965 889.846 331.705C889.846 319.9 886.781 311.386 880.651 306.164C874.521 300.716 865.326 297.991 853.066 297.991H794.492V366.441ZM741.027 256.444H872.137C883.035 256.444 892.797 258.261 901.424 261.893C910.278 265.299 917.77 270.066 923.9 276.196C930.257 282.326 935.025 289.477 938.203 297.651C941.609 305.597 943.311 314.224 943.311 323.532C943.311 337.835 940.246 350.208 934.117 360.652C928.214 371.095 918.451 379.041 904.83 384.49V385.171C911.413 386.987 916.862 389.825 921.176 393.685C925.489 397.317 929.008 401.744 931.733 406.966C934.457 411.961 936.387 417.523 937.522 423.653C938.884 429.783 939.792 435.913 940.246 442.042C940.473 445.902 940.7 450.443 940.927 455.664C941.155 460.886 941.495 466.221 941.949 471.67C942.63 477.119 943.538 482.34 944.674 487.335C946.036 492.103 947.965 496.189 950.463 499.595H896.997C894.046 491.876 892.229 482.681 891.548 472.01C890.867 461.34 889.846 451.124 888.483 441.361C886.667 428.648 882.808 419.339 876.905 413.436C871.002 407.534 861.353 404.582 847.958 404.582H794.492V499.595H741.027V256.444ZM979.981 256.444H1161.83V301.397H1033.45V353.5H1151.28V395.047H1033.45V454.643H1164.56V499.595H979.981V256.444ZM1193.99 256.444H1375.85V301.397H1247.46V353.5H1365.29V395.047H1247.46V454.643H1378.57V499.595H1193.99V256.444ZM1521.07 499.595H1460.79L1382.12 256.444H1436.95L1491.1 427.399H1491.78L1546.61 256.444H1601.78L1521.07 499.595Z" fill="white" />
    <rect width="1600" height="306" transform="translate(0 296.514)" fill="#131313" />
    <path d="M84.7961 484.523H147.797L117.148 395.3H116.467L84.7961 484.523ZM89.9043 335.363H144.732L235.658 578.514H180.149L161.76 524.367H70.8337L51.7631 578.514H-2.04328L89.9043 335.363ZM249.815 335.363H302.94L404.423 498.485H405.104V335.363H455.164V578.514H401.699L300.556 415.732H299.875V578.514H249.815V335.363ZM548.887 533.562H596.563C604.282 533.562 611.774 532.313 619.039 529.816C626.304 527.318 632.775 523.232 638.45 517.556C644.126 511.653 648.667 504.047 652.072 494.739C655.478 485.431 657.18 474.079 657.18 460.685C657.18 448.425 655.932 437.414 653.434 427.652C651.164 417.662 647.305 409.149 641.856 402.111C636.407 395.073 629.142 389.737 620.061 386.105C611.207 382.245 600.196 380.316 587.028 380.316H548.887V533.562ZM495.421 335.363H600.309C615.974 335.363 630.504 337.861 643.899 342.855C657.521 347.85 669.213 355.342 678.975 365.332C688.965 375.321 696.684 387.808 702.133 402.792C707.808 417.776 710.646 435.371 710.646 455.576C710.646 473.285 708.376 489.631 703.835 504.615C699.295 519.599 692.37 532.54 683.062 543.437C673.981 554.335 662.516 562.962 648.667 569.319C635.045 575.449 618.926 578.514 600.309 578.514H495.421V335.363ZM794.492 445.36H853.066C865.326 445.36 874.521 442.636 880.651 437.187C886.781 431.738 889.846 422.884 889.846 410.624C889.846 398.819 886.781 390.305 880.651 385.083C874.521 379.634 865.326 376.91 853.066 376.91H794.492V445.36ZM741.027 335.363H872.137C883.035 335.363 892.797 337.18 901.424 340.812C910.278 344.218 917.77 348.985 923.9 355.115C930.257 361.245 935.025 368.396 938.203 376.57C941.609 384.516 943.311 393.143 943.311 402.451C943.311 416.754 940.246 429.127 934.117 439.571C928.214 450.014 918.451 457.96 904.83 463.409V464.09C911.413 465.906 916.862 468.744 921.176 472.604C925.489 476.236 929.008 480.663 931.733 485.885C934.457 490.88 936.387 496.442 937.522 502.572C938.884 508.702 939.792 514.831 940.246 520.961C940.473 524.821 940.7 529.361 940.927 534.583C941.155 539.805 941.495 545.14 941.949 550.589C942.63 556.038 943.538 561.259 944.674 566.254C946.036 571.022 947.965 575.108 950.463 578.514H896.997C894.046 570.795 892.229 561.6 891.548 550.929C890.867 540.259 889.846 530.043 888.483 520.28C886.667 507.566 882.808 498.258 876.905 492.355C871.002 486.453 861.353 483.501 847.958 483.501H794.492V578.514H741.027V335.363ZM979.981 335.363H1161.83V380.316H1033.45V432.419H1151.28V473.966H1033.45V533.562H1164.56V578.514H979.981V335.363ZM1193.99 335.363H1375.85V380.316H1247.46V432.419H1365.29V473.966H1247.46V533.562H1378.57V578.514H1193.99V335.363ZM1521.07 578.514H1460.79L1382.12 335.363H1436.95L1491.1 506.318H1491.78L1546.61 335.363H1601.78L1521.07 578.514Z" fill="white" />
</svg>