<svg xmlns="http://www.w3.org/2000/svg" width="1600" height="244" viewBox="0 0 1600 244" fill="none">
    <mask id="path-1-outside-1_0_80" maskUnits="userSpaceOnUse" x="-2" y="0" width="1604" height="245" fill="black">
        <rect fill="white" x="-2" width="1604" height="245" />
        <path d="M86.6325 150.067H149.484L118.907 60.8992H118.228L86.6325 150.067ZM91.7286 1H146.426L237.135 244H181.758L163.413 189.887H72.7034L53.6782 244H0L91.7286 1ZM251.258 1H304.257L405.498 164.021H406.178V1H456.119V244H402.78L301.879 81.3193H301.199V244H251.258V1ZM549.618 199.076H597.181C604.881 199.076 612.355 197.828 619.603 195.332C626.851 192.836 633.306 188.752 638.968 183.08C644.63 177.181 649.16 169.58 652.557 160.277C655.955 150.975 657.654 139.63 657.654 126.244C657.654 113.992 656.408 102.987 653.917 93.2311C651.652 83.2479 647.801 74.7395 642.365 67.7059C636.93 60.6723 629.682 55.3403 620.622 51.7101C611.789 47.853 600.805 45.9244 587.668 45.9244H549.618V199.076ZM496.279 1H600.918C616.546 1 631.041 3.4958 644.404 8.4874C657.993 13.479 669.658 20.9664 679.397 30.9496C689.362 40.9328 697.063 53.4118 702.499 68.3866C708.161 83.3613 710.992 100.945 710.992 121.139C710.992 138.836 708.727 155.172 704.197 170.147C699.667 185.122 692.76 198.055 683.473 208.945C674.414 219.836 662.976 228.458 649.16 234.811C635.571 240.937 619.49 244 600.918 244H496.279V1ZM794.639 110.929H853.073C865.304 110.929 874.476 108.206 880.592 102.761C886.707 97.3151 889.765 88.4664 889.765 76.2143C889.765 64.416 886.707 55.9076 880.592 50.6891C874.476 45.2437 865.304 42.521 853.073 42.521H794.639V110.929ZM741.3 1H872.098C882.97 1 892.709 2.81513 901.315 6.44539C910.149 9.84875 917.623 14.6135 923.738 20.7395C930.08 26.8656 934.836 34.0126 938.007 42.1807C941.404 50.1218 943.103 58.7437 943.103 68.0462C943.103 82.3403 940.045 94.7059 933.93 105.143C928.041 115.58 918.302 123.521 904.713 128.966V129.647C911.281 131.462 916.717 134.298 921.02 138.155C925.323 141.786 928.834 146.21 931.552 151.429C934.27 156.42 936.195 161.979 937.327 168.105C938.686 174.231 939.592 180.357 940.045 186.483C940.272 190.34 940.498 194.878 940.725 200.097C940.951 205.315 941.291 210.647 941.744 216.092C942.423 221.538 943.329 226.756 944.462 231.748C945.821 236.513 947.746 240.597 950.237 244H896.899C893.955 236.286 892.143 227.097 891.463 216.433C890.784 205.769 889.764 195.559 888.406 185.803C886.594 173.097 882.743 163.794 876.855 157.895C870.966 151.996 861.34 149.046 847.977 149.046H794.639V244H741.3V1ZM979.686 1H1161.1V45.9244H1033.02V97.9958H1150.57V139.517H1033.02V199.076H1163.82V244H979.686V1ZM1193.19 1H1374.61V45.9244H1246.53V97.9958H1364.07V139.517H1246.53V199.076H1377.32V244H1193.19V1ZM1519.48 244H1459.35L1380.87 1H1435.57L1489.59 171.849H1490.27L1544.96 1H1600L1519.48 244Z" />
    </mask>
    <path d="M86.6325 150.067H149.484L118.907 60.8992H118.228L86.6325 150.067ZM91.7286 1H146.426L237.135 244H181.758L163.413 189.887H72.7034L53.6782 244H0L91.7286 1ZM251.258 1H304.257L405.498 164.021H406.178V1H456.119V244H402.78L301.879 81.3193H301.199V244H251.258V1ZM549.618 199.076H597.181C604.881 199.076 612.355 197.828 619.603 195.332C626.851 192.836 633.306 188.752 638.968 183.08C644.63 177.181 649.16 169.58 652.557 160.277C655.955 150.975 657.654 139.63 657.654 126.244C657.654 113.992 656.408 102.987 653.917 93.2311C651.652 83.2479 647.801 74.7395 642.365 67.7059C636.93 60.6723 629.682 55.3403 620.622 51.7101C611.789 47.853 600.805 45.9244 587.668 45.9244H549.618V199.076ZM496.279 1H600.918C616.546 1 631.041 3.4958 644.404 8.4874C657.993 13.479 669.658 20.9664 679.397 30.9496C689.362 40.9328 697.063 53.4118 702.499 68.3866C708.161 83.3613 710.992 100.945 710.992 121.139C710.992 138.836 708.727 155.172 704.197 170.147C699.667 185.122 692.76 198.055 683.473 208.945C674.414 219.836 662.976 228.458 649.16 234.811C635.571 240.937 619.49 244 600.918 244H496.279V1ZM794.639 110.929H853.073C865.304 110.929 874.476 108.206 880.592 102.761C886.707 97.3151 889.765 88.4664 889.765 76.2143C889.765 64.416 886.707 55.9076 880.592 50.6891C874.476 45.2437 865.304 42.521 853.073 42.521H794.639V110.929ZM741.3 1H872.098C882.97 1 892.709 2.81513 901.315 6.44539C910.149 9.84875 917.623 14.6135 923.738 20.7395C930.08 26.8656 934.836 34.0126 938.007 42.1807C941.404 50.1218 943.103 58.7437 943.103 68.0462C943.103 82.3403 940.045 94.7059 933.93 105.143C928.041 115.58 918.302 123.521 904.713 128.966V129.647C911.281 131.462 916.717 134.298 921.02 138.155C925.323 141.786 928.834 146.21 931.552 151.429C934.27 156.42 936.195 161.979 937.327 168.105C938.686 174.231 939.592 180.357 940.045 186.483C940.272 190.34 940.498 194.878 940.725 200.097C940.951 205.315 941.291 210.647 941.744 216.092C942.423 221.538 943.329 226.756 944.462 231.748C945.821 236.513 947.746 240.597 950.237 244H896.899C893.955 236.286 892.143 227.097 891.463 216.433C890.784 205.769 889.764 195.559 888.406 185.803C886.594 173.097 882.743 163.794 876.855 157.895C870.966 151.996 861.34 149.046 847.977 149.046H794.639V244H741.3V1ZM979.686 1H1161.1V45.9244H1033.02V97.9958H1150.57V139.517H1033.02V199.076H1163.82V244H979.686V1ZM1193.19 1H1374.61V45.9244H1246.53V97.9958H1364.07V139.517H1246.53V199.076H1377.32V244H1193.19V1ZM1519.48 244H1459.35L1380.87 1H1435.57L1489.59 171.849H1490.27L1544.96 1H1600L1519.48 244Z" fill="#EFEFEF" />
    <path d="M86.6325 150.067H149.484L118.907 60.8992H118.228L86.6325 150.067ZM91.7286 1H146.426L237.135 244H181.758L163.413 189.887H72.7034L53.6782 244H0L91.7286 1ZM251.258 1H304.257L405.498 164.021H406.178V1H456.119V244H402.78L301.879 81.3193H301.199V244H251.258V1ZM549.618 199.076H597.181C604.881 199.076 612.355 197.828 619.603 195.332C626.851 192.836 633.306 188.752 638.968 183.08C644.63 177.181 649.16 169.58 652.557 160.277C655.955 150.975 657.654 139.63 657.654 126.244C657.654 113.992 656.408 102.987 653.917 93.2311C651.652 83.2479 647.801 74.7395 642.365 67.7059C636.93 60.6723 629.682 55.3403 620.622 51.7101C611.789 47.853 600.805 45.9244 587.668 45.9244H549.618V199.076ZM496.279 1H600.918C616.546 1 631.041 3.4958 644.404 8.4874C657.993 13.479 669.658 20.9664 679.397 30.9496C689.362 40.9328 697.063 53.4118 702.499 68.3866C708.161 83.3613 710.992 100.945 710.992 121.139C710.992 138.836 708.727 155.172 704.197 170.147C699.667 185.122 692.76 198.055 683.473 208.945C674.414 219.836 662.976 228.458 649.16 234.811C635.571 240.937 619.49 244 600.918 244H496.279V1ZM794.639 110.929H853.073C865.304 110.929 874.476 108.206 880.592 102.761C886.707 97.3151 889.765 88.4664 889.765 76.2143C889.765 64.416 886.707 55.9076 880.592 50.6891C874.476 45.2437 865.304 42.521 853.073 42.521H794.639V110.929ZM741.3 1H872.098C882.97 1 892.709 2.81513 901.315 6.44539C910.149 9.84875 917.623 14.6135 923.738 20.7395C930.08 26.8656 934.836 34.0126 938.007 42.1807C941.404 50.1218 943.103 58.7437 943.103 68.0462C943.103 82.3403 940.045 94.7059 933.93 105.143C928.041 115.58 918.302 123.521 904.713 128.966V129.647C911.281 131.462 916.717 134.298 921.02 138.155C925.323 141.786 928.834 146.21 931.552 151.429C934.27 156.42 936.195 161.979 937.327 168.105C938.686 174.231 939.592 180.357 940.045 186.483C940.272 190.34 940.498 194.878 940.725 200.097C940.951 205.315 941.291 210.647 941.744 216.092C942.423 221.538 943.329 226.756 944.462 231.748C945.821 236.513 947.746 240.597 950.237 244H896.899C893.955 236.286 892.143 227.097 891.463 216.433C890.784 205.769 889.764 195.559 888.406 185.803C886.594 173.097 882.743 163.794 876.855 157.895C870.966 151.996 861.34 149.046 847.977 149.046H794.639V244H741.3V1ZM979.686 1H1161.1V45.9244H1033.02V97.9958H1150.57V139.517H1033.02V199.076H1163.82V244H979.686V1ZM1193.19 1H1374.61V45.9244H1246.53V97.9958H1364.07V139.517H1246.53V199.076H1377.32V244H1193.19V1ZM1519.48 244H1459.35L1380.87 1H1435.57L1489.59 171.849H1490.27L1544.96 1H1600L1519.48 244Z" stroke="#EEEEEE" stroke-width="2" mask="url(#path-1-outside-1_0_80)" />
</svg>