<svg xmlns="http://www.w3.org/2000/svg" xmlns:xlink="http://www.w3.org/1999/xlink" viewBox="0 0 119 199" width="119.000000" height="199.000000" fill="none" customFrame="#000000">
    <rect id="Brutalist Shape 162" width="119.000000" height="199.000000" x="0.000000" y="0.000000" fill="rgb(255,255,255)" fill-opacity="0" />
    <path id="Vector" d="M115.605 79.675C117.799 73.4692 118.959 66.8054 118.959 59.8499C118.959 26.8638 92.2933 0 59.4586 0C26.6239 0 0 26.8638 0 59.8499C0 66.8054 1.20076 73.4692 3.35386 79.675C1.15936 85.8807 0 92.5446 0 99.5C0 106.455 1.20076 113.119 3.35386 119.325C1.15936 125.531 0 132.195 0 139.15C0 172.136 26.6653 199 59.5 199C92.3347 199 119 172.178 119 139.15C119 132.195 117.799 125.531 115.646 119.325C117.841 113.119 119 106.455 119 99.5C119 92.5446 117.799 85.8807 115.605 79.675ZM2.07029 59.8499C2.07029 27.9883 27.8246 2.08246 59.5 2.08246C91.1754 2.08246 116.93 27.9883 116.93 59.8499C116.93 65.6808 116.06 71.3035 114.445 76.5929C105.502 54.9353 84.2192 39.6917 59.5 39.6917C34.7808 39.6917 13.4983 54.9353 4.55463 76.5929C2.9398 71.3035 2.07029 65.6808 2.07029 59.8499ZM59.5 119.658C76.4349 119.658 91.755 112.495 102.603 101.041C107.282 106.372 110.967 112.536 113.452 119.325C105.378 141.441 84.2606 157.226 59.5414 157.226C34.8222 157.226 13.6639 141.399 5.63117 119.325C8.11552 112.536 11.8006 106.372 16.4795 101.041C27.245 112.495 42.5651 119.658 59.5 119.658ZM59.5 117.576C43.1033 117.576 28.2801 110.62 17.8045 99.5C28.2801 88.3797 43.1033 81.4242 59.5 81.4242C75.8967 81.4242 90.7199 88.3797 101.196 99.5C90.7199 110.62 75.8967 117.576 59.5 117.576ZM59.5 79.3418C42.5651 79.3418 27.2449 86.5054 16.3967 97.959C11.7178 92.6279 8.0327 86.4638 5.54836 79.675C13.6225 57.5592 34.7394 41.7742 59.4586 41.7742C84.1778 41.7742 105.336 57.6009 113.369 79.675C110.884 86.4638 107.199 92.6279 102.521 97.959C91.755 86.5054 76.4349 79.3418 59.5 79.3418ZM2.07029 99.5C2.07029 93.6691 2.9398 88.0465 4.55463 82.757C7.12178 88.9211 10.6413 94.5854 14.9889 99.5C10.6413 104.415 7.08037 110.079 4.55463 116.243C2.9398 110.954 2.07029 105.331 2.07029 99.5ZM116.93 139.15C116.93 171.012 91.1754 196.918 59.5 196.918C27.8246 196.918 2.07029 171.012 2.07029 139.15C2.07029 133.319 2.9398 127.697 4.55463 122.407C13.4983 144.065 34.7808 159.308 59.5 159.308C84.2192 159.308 105.502 144.065 114.445 122.407C116.06 127.697 116.93 133.319 116.93 139.15ZM104.011 99.5C108.359 94.5854 111.92 88.9211 114.445 82.757C116.06 88.0465 116.93 93.6691 116.93 99.5C116.93 105.331 116.06 110.954 114.445 116.243C111.878 110.079 108.359 104.415 104.011 99.5Z" fill="rgb(18.5139,18.5139,18.5139)" fill-rule="nonzero" />
</svg>