<svg xmlns="http://www.w3.org/2000/svg" width="299" height="351" viewBox="0 0 299 351" fill="none">
    <path d="M153.16 316.961L90.2637 300.108L76.6442 350.937L21.4295 336.142L35.0491 285.313L-0.000238219 275.922L11.5635 232.765L46.6129 242.156L56.8918 203.795L21.8425 194.404L34.6911 146.452L69.7404 155.843L111.499 -0.000167976L202.243 24.3146C226.569 30.8329 245.558 39.3472 259.209 49.8576C273.18 60.4537 283.276 72.0674 289.497 84.6986C295.804 97.0101 298.931 109.669 298.877 122.674C298.822 135.679 297.211 148.096 294.041 159.924C290.958 171.433 285.868 182.746 278.772 193.865C272.081 204.75 262.767 213.903 250.83 221.326C238.977 228.429 224.353 233.076 206.955 235.267C189.964 237.224 169.625 235.03 145.939 228.683L111.849 219.549L101.828 256.951L164.724 273.804L153.16 316.961ZM124.955 170.638L160.004 180.029C166.726 181.83 173.939 183.078 181.644 183.772C189.754 184.232 197.524 183.401 204.954 181.281C212.704 179.246 219.558 175.429 225.518 169.831C231.564 163.913 236.043 155.519 238.955 144.65C241.953 133.461 242.474 123.836 240.517 115.774C238.881 107.797 235.536 101.076 230.482 95.6107C225.514 89.8253 219.36 85.264 212.021 81.9269C205.087 78.3559 197.619 75.4983 189.617 73.3541L153.608 63.7054L124.955 170.638Z" fill="#EEEEEE" fill-opacity="0.937255" />
</svg>