<svg width="126" height="15" viewBox="0 0 126 15" fill="none" xmlns="http://www.w3.org/2000/svg">
<path d="M10.16 6.3L2.82 9.22L10.16 12.14V14.42L0 10.4V8.04L10.16 4V6.3Z" fill="#131313"/>
<path d="M20.8186 8.76H24.5186L22.7186 3.52H22.6786L20.8186 8.76ZM21.1186 0H24.3386L29.6786 14.28H26.4186L25.3386 11.1H19.9986L18.8786 14.28H15.7186L21.1186 0Z" fill="#131313"/>
<path d="M30.51 0H33.63L39.59 9.58H39.63V0H42.57V14.28H39.43L33.49 4.72H33.45V14.28H30.51V0Z" fill="#131313"/>
<path d="M48.0742 11.64H50.8742C51.3276 11.64 51.7676 11.5667 52.1942 11.42C52.6209 11.2733 53.0009 11.0333 53.3342 10.7C53.6676 10.3533 53.9342 9.90667 54.1342 9.36C54.3342 8.81333 54.4342 8.14667 54.4342 7.36C54.4342 6.64 54.3609 5.99333 54.2142 5.42C54.0809 4.83333 53.8542 4.33333 53.5342 3.92C53.2142 3.50667 52.7876 3.19333 52.2542 2.98C51.7342 2.75333 51.0876 2.64 50.3142 2.64H48.0742V11.64ZM44.9342 0H51.0942C52.0142 0 52.8676 0.146667 53.6542 0.44C54.4542 0.733334 55.1409 1.17333 55.7142 1.76C56.3009 2.34667 56.7542 3.08 57.0742 3.96C57.4076 4.84 57.5742 5.87333 57.5742 7.06C57.5742 8.1 57.4409 9.06 57.1742 9.94C56.9076 10.82 56.5009 11.58 55.9542 12.22C55.4209 12.86 54.7476 13.3667 53.9342 13.74C53.1342 14.1 52.1876 14.28 51.0942 14.28H44.9342V0Z" fill="#131313"/>
<path d="M62.4984 6.46H65.9384C66.6584 6.46 67.1984 6.3 67.5584 5.98C67.9184 5.66 68.0984 5.14 68.0984 4.42C68.0984 3.72667 67.9184 3.22667 67.5584 2.92C67.1984 2.6 66.6584 2.44 65.9384 2.44H62.4984V6.46ZM59.3584 0H67.0584C67.6984 0 68.2718 0.106667 68.7784 0.320001C69.2984 0.52 69.7384 0.8 70.0984 1.16C70.4718 1.52 70.7518 1.94 70.9384 2.42C71.1384 2.88667 71.2384 3.39333 71.2384 3.94C71.2384 4.78 71.0584 5.50667 70.6984 6.12C70.3518 6.73333 69.7784 7.2 68.9784 7.52V7.56C69.3651 7.66667 69.6851 7.83333 69.9384 8.06C70.1918 8.27333 70.3984 8.53333 70.5584 8.84C70.7184 9.13333 70.8318 9.46 70.8984 9.82C70.9784 10.18 71.0318 10.54 71.0584 10.9C71.0718 11.1267 71.0851 11.3933 71.0984 11.7C71.1118 12.0067 71.1318 12.32 71.1584 12.64C71.1984 12.96 71.2518 13.2667 71.3184 13.56C71.3984 13.84 71.5118 14.08 71.6584 14.28H68.5184C68.3451 13.8267 68.2384 13.2867 68.1984 12.66C68.1584 12.0333 68.0984 11.4333 68.0184 10.86C67.9118 10.1133 67.6851 9.56667 67.3384 9.22C66.9918 8.87333 66.4251 8.7 65.6384 8.7H62.4984V14.28H59.3584V0Z" fill="#131313"/>
<path d="M73.392 0H84.072V2.64H76.532V5.7H83.452V8.14H76.532V11.64H84.232V14.28H73.392V0Z" fill="#131313"/>
<path d="M85.9608 0H96.6408V2.64H89.1008V5.7H96.0208V8.14H89.1008V11.64H96.8008V14.28H85.9608V0Z" fill="#131313"/>
<path d="M105.17 14.28H101.63L97.0095 0H100.23L103.41 10.04H103.45L106.67 0H109.91L105.17 14.28Z" fill="#131313"/>
<path d="M115.434 12.14L122.774 9.22L115.434 6.3V4L125.594 8.04V10.4L115.434 14.42V12.14Z" fill="#131313"/>
</svg>
