<svg  xmlns="http://www.w3.org/2000/svg" xmlns:xlink="http://www.w3.org/1999/xlink" viewBox="0 0 300 300">
    <style>:root>svg{display:none}:root>svg:target{display:block}</style>
    <svg id="link-icon" xmlns="http://www.w3.org/2000/svg" viewBox="0 0 20 20">
        <path d="M16.1129 2.5H6.11588V3.88839H15.1313L2.53711 15.6492L3.5187 16.6308L16.1129 4.86998V14.7187H17.5013V3.88839C17.5013 3.12269 16.8786 2.5 16.1129 2.5Z" />
    </svg>
    <svg id="telegram" viewBox="0 0 16 16" xmlns="http://www.w3.org/2000/svg">
        <path d="M15.4006 2.08176L12.9962 14.6338C12.9962 14.6338 12.6598 15.5041 11.7357 15.0867L6.18822 10.682L6.1625 10.6691C6.91183 9.97229 12.7225 4.56211 12.9764 4.31687C13.3696 3.93707 13.1255 3.71096 12.669 3.99786L4.08599 9.64235L0.774672 8.48859C0.774672 8.48859 0.253567 8.29664 0.203436 7.87926C0.152645 7.4612 0.791822 7.23509 0.791822 7.23509L14.2911 1.75113C14.2911 1.75113 15.4006 1.24632 15.4006 2.08176V2.08176Z"/>
    </svg>
    <svg id="btn-prev" xmlns="http://www.w3.org/2000/svg"  viewBox="0 0 40 20">
        <path d="M0.762517 11.9014L8.62435 20L9.80271 18.7862L2.10588 10.8576L40 10.8576L40 9.1407L2.10922 9.1407L9.80437 1.21383L8.62602 -2.7428e-06L0.762517 8.10026C-0.254169 9.14756 -0.254169 10.8541 0.762517 11.9014Z" />
    </svg>
</svg>
