<svg width="100" height="100" viewBox="0 0 100 100" fill="none" xmlns="http://www.w3.org/2000/svg">
<rect width="100" height="100" fill="white"/>
<path d="M91.4332 91H9.54505C9.23982 91 9 90.7601 9 90.4548V8.54519C9 8.23988 9.23982 8 9.54505 8H91.455C91.7602 8 92 8.23988 92 8.54519V90.4766C91.9782 90.7601 91.7384 91 91.4332 91ZM10.0901 89.9096H90.9099V9.09038H10.0901V89.9096Z" fill="#131313"/>
<path d="M80.4232 79.9869H20.5551C20.2498 79.9869 20.01 79.7471 20.01 79.4418V19.5579C20.01 19.2526 20.2498 19.0127 20.5551 19.0127H80.4014C80.7066 19.0127 80.9464 19.2526 80.9464 19.5579V79.42C80.9683 79.7253 80.7066 79.9869 80.4232 79.9869ZM21.1001 78.8966H79.8563V20.1031H21.1001V78.8966Z" fill="#131313"/>
<path d="M69.7402 69.3015H31.238C30.9328 69.3015 30.6929 69.0616 30.6929 68.7563V30.2439C30.6929 29.9386 30.9328 29.6987 31.238 29.6987H69.7402C70.0454 29.6987 70.2853 29.9386 70.2853 30.2439V68.7563C70.2853 69.0616 70.0454 69.3015 69.7402 69.3015ZM31.783 68.2111H69.1952V30.7891H31.783V68.2111Z" fill="#131313"/>
<path d="M60.0601 59.6189H40.918C40.6128 59.6189 40.373 59.379 40.373 59.0737V39.9265C40.373 39.6212 40.6128 39.3813 40.918 39.3813H60.0601C60.3654 39.3813 60.6052 39.6212 60.6052 39.9265V59.0737C60.6052 59.379 60.3654 59.6189 60.0601 59.6189ZM41.4631 58.5285H59.5151V40.4717H41.4631V58.5285Z" fill="#131313"/>
</svg>
