<svg width="100" height="100" viewBox="0 0 100 100" fill="none" xmlns="http://www.w3.org/2000/svg">
<rect width="100" height="100" fill="white"/>
<path d="M86.3223 14.2187C86.2028 14.0729 86.0353 14 85.8679 14H72.2574C72.09 14 71.9226 14.0729 71.803 14.2187C70.9658 15.2392 70.1525 16.2841 69.387 17.3532C68.6216 16.2841 67.8083 15.2392 66.9711 14.2187C66.8515 14.0729 66.6841 14 66.5167 14H52.8823C52.7149 14 52.5474 14.0729 52.4278 14.2187C51.5906 15.2392 50.7774 16.2841 50.0119 17.3532C49.2465 16.2841 48.4332 15.2392 47.596 14.2187C47.4764 14.0729 47.309 14 47.1415 14H33.5311C33.3637 14 33.1962 14.0729 33.0766 14.2187C32.2394 15.2392 31.4261 16.2841 30.6607 17.3532C29.8953 16.2841 29.082 15.2392 28.2448 14.2187C28.1252 14.0729 27.9578 14 27.7903 14H14.1799C14.0124 14 13.845 14.0729 13.7254 14.2187C5.52087 24.0838 1 36.5975 1 49.5C1 62.4025 5.52086 74.9162 13.7015 84.7813C13.8211 84.9271 13.9885 85 14.156 85H27.7664C27.9338 85 28.1013 84.9271 28.2209 84.7813C29.0581 83.7608 29.8713 82.7159 30.6368 81.6468C31.4022 82.7159 32.2155 83.7608 33.0527 84.7813C33.1723 84.9271 33.3397 85 33.5072 85H47.1415C47.309 85 47.4764 84.9271 47.596 84.7813C48.4332 83.7608 49.2465 82.7159 50.0119 81.6468C50.7774 82.7159 51.5906 83.7608 52.4278 84.7813C52.5474 84.9271 52.7149 85 52.8823 85H66.4927C66.6602 85 66.8276 84.9271 66.9472 84.7813C67.7844 83.7608 68.5977 82.7159 69.3631 81.6468C70.1286 82.7159 70.9418 83.7608 71.779 84.7813C71.8986 84.9271 72.0661 85 72.2335 85H85.8439C86.0114 85 86.1788 84.9271 86.2984 84.7813C94.479 74.9405 98.9999 62.4025 98.9999 49.5C99.0238 36.5975 94.503 24.0838 86.3223 14.2187ZM53.1693 15.2149H66.2296C67.0907 16.2598 67.8801 17.3046 68.6455 18.398C63.9811 25.2745 60.9194 33.1472 59.6995 41.3843C58.4796 33.1472 55.4178 25.2745 50.7534 18.398C51.5189 17.3289 52.3082 16.2598 53.1693 15.2149ZM60.2975 49.5C60.2975 38.7601 63.5027 28.3118 69.387 19.4914C75.2713 28.3118 78.4766 38.7844 78.4766 49.5C78.4766 60.2399 75.2713 70.6882 69.387 79.5086C63.5027 70.6882 60.2975 60.2399 60.2975 49.5ZM59.1015 49.5C59.1015 60.2399 55.8962 70.6882 50.0119 79.5086C44.1276 70.6882 40.9223 60.2156 40.9223 49.5C40.9223 38.7601 44.1276 28.3118 50.0119 19.4914C55.8962 28.3118 59.1015 38.7601 59.1015 49.5ZM33.7942 15.2149H46.8545C47.7156 16.2598 48.505 17.3046 49.2704 18.398C44.606 25.2745 41.5443 33.1472 40.3243 41.3843C39.1044 33.1472 36.0427 25.2745 31.3783 18.398C32.1437 17.3289 32.957 16.2598 33.7942 15.2149ZM39.7263 49.5C39.7263 60.2399 36.5211 70.6882 30.6368 79.5086C24.7525 70.6882 21.5472 60.2156 21.5472 49.5C21.5472 38.7601 24.7525 28.3118 30.6368 19.4914C36.545 28.3118 39.7263 38.7601 39.7263 49.5ZM27.4794 83.7851H14.4191C6.5255 74.1872 2.17208 62.0137 2.17208 49.5C2.17208 36.9863 6.5255 24.8371 14.4191 15.2149H27.4794C28.3405 16.2598 29.1298 17.3046 29.8953 18.398C23.7 27.4856 20.3512 38.347 20.3512 49.4757C20.3512 60.6044 23.7239 71.4658 29.8953 80.5534C29.1537 81.6711 28.3405 82.7402 27.4794 83.7851ZM46.8545 83.7851H33.7942C32.9331 82.7402 32.1437 81.6954 31.3783 80.602C36.0427 73.7255 39.1044 65.8528 40.3243 57.6157C41.5443 65.8528 44.606 73.7255 49.2704 80.602C48.505 81.6711 47.7156 82.7402 46.8545 83.7851ZM66.2296 83.7851H53.1693C52.3082 82.7402 51.5189 81.6954 50.7534 80.602C55.4178 73.7255 58.4796 65.8528 59.6995 57.6157C60.9194 65.8528 63.9811 73.7255 68.6455 80.602C67.8801 81.6711 67.0668 82.7402 66.2296 83.7851ZM85.5808 83.7851H72.5206C71.6594 82.7402 70.8701 81.6954 70.1046 80.602C76.2999 71.5144 79.6487 60.653 79.6487 49.5243C79.6487 38.3956 76.276 27.5342 70.1046 18.4466C70.8701 17.3532 71.6834 16.2841 72.5206 15.2635H85.5808C93.4744 24.8614 97.8278 37.0349 97.8278 49.5486C97.8278 62.0137 93.4744 74.1629 85.5808 83.7851Z" fill="#131313"/>
</svg>
