<svg width="100" height="100" viewBox="0 0 100 100" fill="none" xmlns="http://www.w3.org/2000/svg">
<rect width="100" height="100" fill="white"/>
<path d="M99.4048 9C92.4762 9 85.9286 10.7786 80.2381 13.9273V9.60089C80.2381 9.26439 79.9762 9 79.6429 9C72.7143 9 66.1667 10.7786 60.4762 13.9273V9.60089C60.4762 9.26439 60.2143 9 59.881 9C52.9524 9 46.4048 10.7786 40.7143 13.9273V9.60089C40.7143 9.26439 40.4524 9 40.119 9C18 9 0 27.1709 0 49.5C0 71.8291 18 90 40.119 90C40.4524 90 40.7143 89.7356 40.7143 89.3991V85.0727C46.4048 88.2214 52.9524 90 59.881 90C60.2143 90 60.4762 89.7356 60.4762 89.3991V85.0727C66.1667 88.2214 72.7143 90 79.6429 90C79.9762 90 80.2381 89.7356 80.2381 89.3991V85.0727C85.9286 88.2214 92.4762 90 99.4048 90C99.7381 90 100 89.7356 100 89.3991V9.60089C100 9.26439 99.7381 9 99.4048 9ZM79.0476 10.2018V14.6003C69.9286 20.0564 63.0952 29.0457 60.4762 39.6935V15.2973C65.9762 12.1487 72.3095 10.2979 79.0476 10.2018ZM59.2857 82.9816C48.1429 76.0593 40.7143 63.6329 40.7143 49.5C40.7143 35.3671 48.1429 22.9407 59.2857 16.0184V82.9816ZM39.5238 82.9816C28.381 76.0593 20.9524 63.6329 20.9524 49.5C20.9524 35.3671 28.381 22.9407 39.5238 16.0184V82.9816ZM79.0476 16.0184V82.9816C67.9048 76.0593 60.4762 63.6329 60.4762 49.5C60.4762 35.3671 67.9048 22.9407 79.0476 16.0184ZM59.2857 10.2018V14.6003C50.1667 20.0564 43.3333 29.0457 40.7143 39.6935V15.2973C46.2143 12.1487 52.5476 10.2979 59.2857 10.2018ZM39.5238 88.7982C18.3333 88.4617 1.19048 70.9638 1.19048 49.5C1.19048 28.0362 18.3333 10.5383 39.5238 10.2018V14.6003C27.7143 21.6668 19.7619 34.646 19.7619 49.476C19.7619 64.3059 27.7143 77.3092 39.5238 84.3516V88.7982ZM59.2857 88.7982C52.5476 88.7021 46.2143 86.8513 40.7143 83.7027V59.3065C43.3571 69.9543 50.1667 78.9436 59.2857 84.3997V88.7982ZM79.0476 88.7982C72.3095 88.7021 65.9762 86.8513 60.4762 83.7027V59.3065C63.119 69.9543 69.9286 78.9436 79.0476 84.3997V88.7982ZM98.8095 88.7982C92.0714 88.7021 85.7381 86.8513 80.2381 83.7027V15.2973C85.7381 12.1487 92.0714 10.2979 98.8095 10.2018V88.7982Z" fill="#131313"/>
</svg>
