<svg width="148" height="42" viewBox="0 0 148 42" fill="none" xmlns="http://www.w3.org/2000/svg">
<path d="M13.5817 17.1797C8.21827 17.1797 3.85254 21.2839 3.85254 26.3314C3.85254 31.3765 8.21567 35.4807 13.5817 35.4807C18.9477 35.4807 23.3108 31.3765 23.3108 26.3314C23.3108 21.2839 18.9477 17.1797 13.5817 17.1797Z" fill="#131313"/>
<path d="M13.5817 5.72461C8.21827 5.72461 3.85254 9.8288 3.85254 14.8739C3.85254 16.4396 4.27713 17.9122 5.01691 19.1986C7.11382 16.9713 10.1745 15.5649 13.5791 15.5649C16.9836 15.5649 20.0443 16.9713 22.1438 19.1986C22.8836 17.9098 23.3082 16.4372 23.3082 14.8739C23.3108 9.8288 18.9477 5.72461 13.5817 5.72461Z" fill="#131313"/>
<path d="M46.7232 25.812C47.1609 25.1749 47.5828 24.5133 47.9814 23.8322C47.9892 23.8199 47.997 23.8052 48.0048 23.7929C48.1273 23.5871 48.2445 23.3789 48.3591 23.1681C48.3877 23.1167 48.4138 23.0652 48.4425 23.0113C48.5362 22.8398 48.63 22.6658 48.7186 22.4919C48.755 22.4233 48.7889 22.3497 48.8254 22.2787C48.9035 22.1194 48.9843 21.9626 49.0598 21.8033C49.0989 21.7225 49.1379 21.6392 49.1744 21.5559C49.2447 21.4064 49.3125 21.2545 49.3776 21.105C49.4167 21.0143 49.4557 20.9237 49.4948 20.833C49.5573 20.6885 49.6172 20.5414 49.6745 20.3944C49.7136 20.2989 49.7501 20.2009 49.7866 20.1053C49.8413 19.9632 49.8934 19.8186 49.9455 19.6741C49.9819 19.5736 50.0158 19.4731 50.0523 19.3702C50.0991 19.2281 50.146 19.086 50.1903 18.9439C50.2242 18.8385 50.2554 18.7356 50.2867 18.6302C50.3284 18.4881 50.3674 18.346 50.4065 18.2039C50.4352 18.0961 50.4638 17.9907 50.4899 17.8829C50.5263 17.7383 50.5576 17.5938 50.5915 17.4492C50.6149 17.3414 50.641 17.236 50.6618 17.1282C50.6904 16.9812 50.7191 16.8317 50.7425 16.6847C50.7608 16.5794 50.7816 16.474 50.7972 16.3686C50.8207 16.2143 50.8389 16.0575 50.8598 15.9031C50.8728 15.8026 50.8858 15.6997 50.8988 15.5993C50.9171 15.4277 50.9275 15.2538 50.9405 15.0798C50.9457 14.994 50.9561 14.9107 50.9587 14.825C50.9718 14.5653 50.9796 14.3055 50.9796 14.0458C50.9796 13.8057 50.9744 13.5753 50.9692 13.345C50.9666 13.2813 50.964 13.2201 50.964 13.1563C50.9587 12.975 50.9483 12.7962 50.9379 12.6222C50.9353 12.5732 50.9327 12.5242 50.9275 12.4752C50.9119 12.2571 50.8936 12.0464 50.8728 11.8381C50.8676 11.8014 50.8624 11.767 50.8598 11.7327C50.8389 11.5588 50.8155 11.3873 50.792 11.2182C50.7842 11.1692 50.7764 11.1202 50.7686 11.0736C50.7373 10.8801 50.7035 10.6889 50.667 10.5052C50.667 10.5052 50.667 10.5027 50.667 10.5003C50.6253 10.3091 50.581 10.1229 50.5342 9.9416C50.5263 9.9073 50.5159 9.87544 50.5081 9.84114C50.4664 9.68677 50.4195 9.53731 50.3727 9.39029C50.3648 9.36579 50.3544 9.33883 50.3466 9.31188C50.2867 9.13791 50.2242 8.97129 50.1564 8.80958L50.1538 8.80713C50.0887 8.65031 50.0184 8.49839 49.9428 8.35383C49.9298 8.32932 49.9194 8.30727 49.9064 8.28522C49.7501 7.98629 49.5782 7.70451 49.3854 7.44723C49.3776 7.43743 49.3698 7.42763 49.3646 7.41783C49.2708 7.29776 49.1744 7.18015 49.0754 7.06744C49.0676 7.05764 49.0572 7.04784 49.0494 7.03803C48.8332 6.80036 48.5961 6.58474 48.3383 6.38871C48.3278 6.37891 48.3174 6.37156 48.3044 6.36421C47.0957 5.46496 45.4417 5.02637 43.251 5.02637C41.8287 5.02637 39.3984 5.81045 37.9683 6.73175C36.4341 5.70019 34.7097 5.02637 32.9905 5.02637C28.4268 5.02637 24.7539 8.73607 24.7539 14.0482C24.7539 22.7295 32.4304 30.6267 36.1189 34.4222L37.8407 36.1937L39.2239 34.6182C39.6016 34.187 40.0939 33.6651 40.6644 33.0599C42.3393 31.2736 44.6889 28.7792 46.7232 25.812Z" fill="#131313"/>
<path d="M60.5994 5.01855C59.1772 5.01855 57.2339 5.80264 55.8013 6.72394C54.267 5.69238 52.0581 5.01855 50.3363 5.01855C50.0367 5.01855 49.7268 5.05041 49.409 5.11167C52.2535 7.2434 52.6989 10.9776 52.6989 14.0404C52.6989 18.9998 50.4092 23.5499 47.7471 27.2866C49.9247 30.271 52.3264 32.7433 53.9544 34.4144L55.6736 36.1859L57.0568 34.608C57.4345 34.1792 57.9268 33.6548 58.4973 33.0496C62.1024 29.2223 68.8177 22.0994 68.8177 14.038C68.8177 10.1666 67.9659 5.01855 60.5994 5.01855Z" fill="#131313"/>
<path d="M88.7189 17.6448H79.9718V20.0338H78.3203V16.0741H78.4479C79.8624 16.0741 80.2635 14.9127 80.3729 12.7638L80.7168 5.83203H88.9924V16.0741H90.3704V20.0338H88.7189V17.6448ZM81.1883 16.0741H87.2133V7.40265H82.35L82.0765 12.8128C82.0062 14.3001 81.7691 15.3734 81.1883 16.0741Z" fill="#131313"/>
<path d="M97.3721 5.59473C101.183 5.59473 103.832 8.20671 103.832 11.7228C103.832 15.2218 101.183 17.8681 97.3904 17.8681C93.5977 17.8681 90.9668 15.3076 90.9668 11.74C90.9668 8.18956 93.6706 5.59473 97.3721 5.59473ZM97.3904 16.3146C100.149 16.3146 101.964 14.4034 101.964 11.74C101.964 9.07655 100.112 7.14819 97.3904 7.14819C94.6501 7.14819 92.8345 9.07655 92.8345 11.74C92.8371 14.4181 94.7048 16.3146 97.3904 16.3146Z" fill="#131313"/>
<path d="M105.302 5.83203H111.525V7.40265H107.078V10.713H108.368C110.746 10.713 112.233 11.9773 112.233 14.1948C112.233 16.4294 110.746 17.6423 108.368 17.6423H105.302V5.83203ZM107.078 12.1831V16.1771H108.277C109.673 16.1771 110.381 15.4273 110.381 14.1972C110.381 12.9672 109.654 12.1831 108.277 12.1831H107.078Z" fill="#131313"/>
<path d="M116.932 12.3522H115.463V17.6423H113.687V5.83203H116.935C119.274 5.83203 120.618 6.92485 120.618 9.04188C120.615 11.1246 119.11 12.3522 116.932 12.3522ZM115.46 7.29974V10.8845H116.838C118.11 10.8845 118.763 10.1666 118.763 9.05658C118.763 7.96376 118.11 7.29974 116.838 7.29974H115.46Z" fill="#131313"/>
<path d="M121.957 5.83203H123.734V10.5096H125.023C127.383 10.5096 128.889 11.8082 128.889 14.0943C128.889 16.4 127.401 17.6448 125.023 17.6448H121.957V5.83203ZM123.734 11.9773V16.1771H124.932C126.328 16.1771 127.036 15.3905 127.036 14.0943C127.036 12.7981 126.31 11.9797 124.932 11.9797H123.734V11.9773ZM132.009 17.6448H130.23V5.83203H132.009V17.6448Z" fill="#131313"/>
<path d="M137.487 11.4995L133.241 5.83203H135.416L138.594 10.0832L141.733 5.83203H143.838L139.628 11.5166L144.148 17.6448H142.095L138.521 12.9157L134.966 17.6448H132.968L137.487 11.4995Z" fill="#131313"/>
<path d="M88.7189 34.7112H79.9718V37.1002H78.3203V33.1405H78.4479C79.8624 33.1405 80.2635 31.9791 80.3729 29.8302L80.7168 22.8984H88.9924V33.1405H90.3704V37.1002H88.7189V34.7112ZM81.1883 33.1405H87.2133V24.4691H82.35L82.0765 29.8792C82.0062 31.3666 81.7691 32.4422 81.1883 33.1405Z" fill="#131313"/>
<path d="M91.4746 34.7112V22.8984H96.937V24.4519H93.2537V27.8676H96.8458V29.4039H93.2537V33.1577H96.9917V34.7112H91.4746Z" fill="#131313"/>
<path d="M98.1876 34.7974H97.9141V33.2439H98.2032C99.4014 33.2439 99.727 32.1021 99.8182 30.5486L100.199 22.9014H107.547V34.7141H105.77V24.472H101.814L101.524 30.6663C101.399 33.2782 100.548 34.7974 98.1876 34.7974Z" fill="#131313"/>
</svg>
