<svg width="90" height="41" viewBox="0 0 90 41" fill="none" xmlns="http://www.w3.org/2000/svg">
<path d="M37.7315 15.8829L48.655 31.2851V16.3835H46.6695V15.8829H51.6319V16.3811H49.6465V39.725H48.655L34.8965 20.0006C34.8202 19.8916 34.7111 19.8097 34.5852 19.7669C34.4592 19.7241 34.3228 19.7226 34.1959 19.7626C34.069 19.8026 33.9581 19.882 33.8794 19.9893C33.8007 20.0965 33.7583 20.2261 33.7582 20.3592V39.2268H35.7436V39.7081H30.7812V39.2268H32.7667V16.3835H30.7812V15.8829H37.7315ZM52.1373 32.2694C52.1806 32.5389 52.26 32.9143 52.378 33.3499C52.5035 33.8312 52.6644 34.3026 52.8593 34.7602C53.0867 35.2945 53.3555 35.8103 53.6631 36.3028C53.9994 36.8397 54.4039 37.3307 54.8664 37.7636C55.3088 38.2213 55.8116 38.6164 56.3609 38.938C56.7946 39.1864 57.2557 39.3835 57.735 39.5252C59.2921 39.9656 61.5134 39.9055 62.9886 39.1883C63.6789 38.8722 64.2916 38.4089 64.7839 37.831C65.1984 37.3352 65.5116 36.7628 65.7056 36.1464C65.8692 35.6421 65.9592 35.1169 65.9728 34.5869C66.0032 33.8595 65.7972 33.1418 65.3856 32.5413C64.9723 31.9831 64.4395 31.5243 63.8261 31.1984C63.1225 30.8181 62.3802 30.514 61.612 30.2912L59.0611 29.5379C58.1947 29.2824 57.3431 28.9795 56.5101 28.6306C55.7076 28.299 54.9609 27.8461 54.296 27.2877C53.6381 26.7298 53.1065 26.0382 52.7365 25.259C52.3153 24.3095 52.1146 23.2769 52.1493 22.2387C52.1488 21.3421 52.3555 20.4575 52.7534 19.654C53.1637 18.8172 53.7363 18.0703 54.438 17.4568C55.1954 16.7935 56.065 16.2703 57.0058 15.9118C58.6627 15.2962 60.46 15.1626 62.1896 15.5267C62.748 15.6615 63.2413 15.8011 63.6649 15.9455C64.0884 16.0899 64.4663 16.2319 64.7911 16.3666C65.0715 16.4899 65.3731 16.5577 65.6792 16.5664C65.8977 16.5931 66.1184 16.5392 66.3001 16.4148C66.4394 16.2516 66.5471 16.0639 66.6177 15.8613H67.1448V21.844C67.0269 21.85 66.9089 21.85 66.791 21.844C66.5768 21.8224 66.5504 21.7309 66.5215 21.524C66.329 20.1739 65.6792 19.0187 64.808 17.9911C64.2876 17.3298 63.6424 16.7771 62.9092 16.3642C62.2233 15.9984 61.446 15.9431 60.6855 15.907C59.0394 15.83 57.3885 16.0273 56.0961 17.1343C55.6522 17.5058 55.2873 17.9624 55.0228 18.4772C54.7855 18.9408 54.6595 19.4533 54.6546 19.9741C54.6273 20.6746 54.8461 21.3626 55.2731 21.9186C55.7235 22.4637 56.2772 22.9143 56.9023 23.2447C57.6338 23.6427 58.4039 23.9652 59.2006 24.2073C60.0622 24.4768 60.9446 24.7568 61.8479 25.0472C62.7512 25.3376 63.6336 25.6585 64.4951 26.0098C65.3216 26.3378 66.0959 26.7845 66.7934 27.3359C67.4611 27.8689 68.0144 28.531 68.4203 29.2828C68.8598 30.1554 69.0733 31.1244 69.0412 32.1009C69.0462 33.1798 68.818 34.247 68.3722 35.2295C67.9242 36.2121 67.2786 37.0919 66.4758 37.8141C65.6185 38.576 64.628 39.1732 63.5542 39.5758C61.688 40.2666 59.6661 40.4232 57.7158 40.0282C57.0355 39.8934 56.3986 39.7538 55.8049 39.6095C55.2105 39.4627 54.6859 39.3231 54.2262 39.1883C53.8951 39.0787 53.5514 39.0116 53.2034 38.9886C52.9697 38.9694 52.7356 39.0214 52.532 39.1378C52.3545 39.3069 52.2271 39.5218 52.1638 39.7587H51.6247V32.2982L52.1373 32.2694Z" fill="#131313"/>
<path d="M87.8741 15.8835V21.3464H87.3784C87.2653 20.9662 87.3784 18.8652 86.3845 17.8713C84.8948 16.384 82.4208 16.3552 81.3306 16.3552L75.4706 16.384V27.3051H77.1552C78.2045 27.3051 79.3043 27.2618 80.2092 26.6433C81.114 26.0248 82.0093 25.3366 82.416 24.3258C82.6493 23.6819 82.8162 23.0158 82.9142 22.3379H83.4075V32.2675H82.9117C82.8877 32.2675 82.6398 31.3699 82.6085 31.2808C82.4851 30.9299 82.3387 30.5874 82.1705 30.2556C81.6242 29.1943 80.7891 28.2365 79.5907 27.9501C78.9882 27.8278 78.3736 27.7762 77.7592 27.7961H75.4658V39.2274H81.3787C82.4064 39.2274 85.3929 39.2274 86.8826 37.7377C89.1304 35.4899 88.868 33.2687 88.868 32.2771H89.3662V39.7087H69.0089V39.2274H71.0064L70.9943 16.384H69.0089V15.8835H87.8741ZM33.2639 39.2274V39.7087H24.8239V39.2274H26.6674C26.3633 38.2619 25.976 37.3246 25.5098 36.4261C24.0948 33.7043 21.3729 30.2845 16.6367 30.2845C11.7369 30.2845 8.99101 33.9449 7.61685 36.7053C7.21233 37.5185 6.87119 38.3617 6.59646 39.2274H8.4399V39.7087H0V39.2274H2.20684L5.53515 30.2845H2.56302L2.74592 29.7887H23.0286L19.3225 19.8568L16.6055 12.5865L15.6115 9.93921L14.377 6.59646L16.8461 0H16.8846L19.1011 5.93464L20.5908 9.92717L24.2945 19.8543L28.0006 29.7863L28.1835 30.2821L31.5119 39.2274H33.2639ZM84.399 8.73591L83.3546 7.69386L79.8794 12.56L80.226 12.9065L84.399 8.73591Z" fill="#131313"/>
</svg>
