<svg width="77" height="50" viewBox="0 0 77 50" fill="none" xmlns="http://www.w3.org/2000/svg">
<g clip-path="url(#clip0_641_972)">
<path d="M41.8467 12.4424V7.54785H42.394V12.4492C42.394 12.5955 42.4378 12.712 42.5256 12.7989C42.6133 12.8857 42.7311 12.9291 42.8789 12.9291H43.9249V7.54785H44.4722V12.9291H44.8462C44.9525 12.9291 45.0356 12.9611 45.0956 13.0251C45.1603 13.0845 45.1926 13.1667 45.1926 13.2718V13.4706H42.8858C42.5718 13.4706 42.3201 13.377 42.1307 13.1896C41.9414 13.0023 41.8467 12.7531 41.8467 12.4424ZM45.7554 7.54785H48.173V8.08255H46.3026V10.2419H47.6049V10.2968C47.6049 10.443 47.5611 10.5596 47.4733 10.6463C47.3856 10.7332 47.2678 10.7766 47.12 10.7766H46.3026V12.9359H48.173V13.4706H45.7554V7.54785ZM49.6105 7.54785V10.2419H51.1415V7.54785H51.6887V13.4706H51.1415V10.7766H49.6105V13.4706H49.0633V7.54785H49.6105ZM52.3398 8.08255V7.54785H55.0761V8.08255H53.9816V13.4706H53.4344V8.08255H52.3398ZM57.2168 7.54785C57.5308 7.54785 57.7825 7.64155 57.9719 7.82896C58.1612 8.0163 58.2559 8.26536 58.2559 8.57613V9.74836C58.2559 10.0591 58.1612 10.3082 57.9719 10.4956C57.7825 10.6829 57.5308 10.7766 57.2168 10.7766H56.1777V13.4706H55.6304V7.54785H57.2168ZM56.1777 10.2419H57.2237C57.3715 10.2419 57.4893 10.1985 57.577 10.1117C57.6648 10.0249 57.7086 9.90831 57.7086 9.76208V8.5624C57.7086 8.41618 57.6648 8.29968 57.577 8.21284C57.4893 8.126 57.3715 8.08255 57.2237 8.08255H56.1777V10.2419ZM41.8467 21.7336V21.2058L42.394 21.48V21.7405C42.394 21.8867 42.4378 22.0033 42.5256 22.09C42.6133 22.1769 42.7311 22.2203 42.8789 22.2203H43.44C43.5878 22.2203 43.7056 22.1769 43.7933 22.09C43.881 22.0033 43.9249 21.8867 43.9249 21.7405V20.0404H42.8997C42.5856 20.0404 42.3339 19.9467 42.1446 19.7593C41.9552 19.572 41.8606 19.3229 41.8606 19.0121V16.8048H42.4078V19.019C42.4078 19.1652 42.4517 19.2818 42.5394 19.3686C42.6272 19.4554 42.7449 19.4989 42.8927 19.4989H43.9249V16.8048H44.4722V21.7336C44.4722 22.0444 44.3775 22.2934 44.1881 22.4808C43.9988 22.6682 43.7471 22.7619 43.4331 22.7619H42.8858C42.5718 22.7619 42.3201 22.6682 42.1307 22.4808C41.9414 22.2934 41.8467 22.0444 41.8467 21.7336ZM48.0929 16.8048V22.7276H47.5456V17.3395H45.9454V22.7276H45.3982V16.8048H48.0929ZM50.5847 16.8048C50.8988 16.8048 51.1504 16.8985 51.3398 17.0859C51.5291 17.2732 51.6238 17.5223 51.6238 17.8331V19.0053C51.6238 19.316 51.5291 19.5651 51.3398 19.7525C51.1504 19.9399 50.8988 20.0336 50.5847 20.0336H49.5456V22.7276H48.9983V16.8048H50.5847ZM49.5456 19.4989H50.5917C50.7394 19.4989 50.8571 19.4554 50.9449 19.3686C51.0327 19.2818 51.0766 19.1652 51.0766 19.019V17.8193C51.0766 17.6731 51.0327 17.5566 50.9449 17.4698C50.8571 17.3829 50.7394 17.3395 50.5917 17.3395H49.5456V19.4989ZM52.937 17.2778C52.9647 17.1361 53.0317 17.0219 53.1379 16.9351C53.2441 16.8482 53.3711 16.8048 53.5189 16.8048H53.7128L54.9044 22.7276H54.3225L54.0523 21.3634H52.6876L52.4174 22.7276H51.8424L52.937 17.2778ZM53.9692 20.8219L53.3734 17.7645L52.7707 20.8219H53.9692ZM57.1437 16.8048C57.4578 16.8048 57.7094 16.8985 57.8988 17.0859C58.0881 17.2732 58.1828 17.5223 58.1828 17.8331V19.0875C58.1828 19.2932 58.1205 19.4577 57.9958 19.5811C57.8711 19.7045 57.7049 19.7662 57.497 19.7662H57.4901V19.773H57.497C57.7049 19.773 57.8711 19.8348 57.9958 19.9581C58.1205 20.0815 58.1828 20.246 58.1828 20.4517V21.6993C58.1828 22.0101 58.0881 22.2592 57.8988 22.4465C57.7094 22.6339 57.4578 22.7276 57.1437 22.7276H55.5573V16.8048H57.1437ZM56.1046 19.4989H57.1507C57.2984 19.4989 57.4162 19.4554 57.504 19.3686C57.5917 19.2818 57.6356 19.1652 57.6356 19.019V17.8193C57.6356 17.6731 57.5917 17.5566 57.504 17.4698C57.4162 17.3829 57.2984 17.3395 57.1507 17.3395H56.1046V19.4989ZM56.1046 22.1929H57.1507C57.2984 22.1929 57.4162 22.1495 57.504 22.0626C57.5917 21.9758 57.6356 21.8592 57.6356 21.713V20.5134C57.6356 20.3672 57.5917 20.2506 57.504 20.1638C57.4162 20.0769 57.2984 20.0336 57.1507 20.0336H56.1046V22.1929ZM58.6672 22.7276L58.9374 22.186H59.1452C59.2375 22.186 59.2837 22.1404 59.2837 22.0489V17.8331C59.2837 17.5223 59.3784 17.2732 59.5678 17.0859C59.7571 16.8985 60.0088 16.8048 60.3229 16.8048H61.8053V22.7276H61.265V17.3395H60.309C60.1612 17.3395 60.0434 17.3829 59.9557 17.4698C59.8679 17.5566 59.8241 17.6731 59.8241 17.8193V22.1106C59.8241 22.298 59.7664 22.4488 59.6509 22.5631C59.5401 22.6727 59.39 22.7276 59.2006 22.7276H58.6672ZM62.709 16.8048H65.127V17.3395H63.2562V19.4989H64.5587V19.5537C64.5587 19.6999 64.5148 19.8165 64.427 19.9033C64.3391 19.9901 64.2214 20.0336 64.0738 20.0336H63.2562V22.1929H65.127V22.7276H62.709V16.8048ZM66.5639 16.8048V19.4989H68.095V16.8048H68.6422V22.7276H68.095V20.0336H66.5639V22.7276H66.0172V16.8048H66.5639ZM69.544 22.7276V16.8048H70.0912V21.4183L71.6223 17.1887C71.6637 17.0699 71.7356 16.9762 71.8368 16.9076C71.9386 16.8391 72.0519 16.8048 72.1766 16.8048H72.3771V22.7276H71.8298V18.1141L70.2993 22.3437C70.2573 22.4625 70.1861 22.5562 70.0842 22.6247C69.983 22.6933 69.8698 22.7276 69.7451 22.7276H69.544ZM73.1439 22.7619L74.1621 20.0267C73.8941 19.9901 73.6797 19.8827 73.5181 19.7045C73.3609 19.5217 73.282 19.2886 73.282 19.0053V17.8331C73.282 17.5223 73.3768 17.2732 73.5664 17.0859C73.7554 16.8985 74.0074 16.8048 74.3211 16.8048H75.9076V22.7276H75.3603V20.0336H74.7437L73.9196 22.3094C73.8687 22.4465 73.7834 22.5562 73.6631 22.6385C73.548 22.7207 73.4162 22.7619 73.2686 22.7619H73.1439ZM74.3141 19.4989H75.3603V17.3395H74.3141C74.1665 17.3395 74.0488 17.3829 73.961 17.4698C73.8731 17.5566 73.8292 17.6731 73.8292 17.8193V19.019C73.8292 19.1652 73.8731 19.2818 73.961 19.3686C74.0488 19.4554 74.1665 19.4989 74.3141 19.4989ZM41.8467 31.9215V25.9987H42.394V30.6122L43.9249 26.3826C43.9665 26.2638 44.0381 26.1701 44.1396 26.1016C44.2413 26.0331 44.3544 25.9987 44.4791 25.9987H44.68V31.9215H44.1327V27.3081L42.6018 31.5376C42.5602 31.6565 42.4886 31.7502 42.387 31.8187C42.2854 31.8873 42.1722 31.9215 42.0476 31.9215H41.8467ZM48.612 25.9987C48.926 25.9987 49.1778 26.0924 49.3671 26.2798C49.5565 26.4672 49.6511 26.7162 49.6511 27.027V28.1992C49.6511 28.51 49.5565 28.7591 49.3671 28.9465C49.1778 29.1338 48.926 29.2275 48.612 29.2275H47.5729V31.9215H47.0257V25.9987H48.612ZM47.5729 28.6928H48.6189C48.7668 28.6928 48.8845 28.6494 48.9722 28.5626C49.06 28.4757 49.1038 28.3592 49.1038 28.213V27.0133C49.1038 26.8671 49.06 26.7506 48.9722 26.6637C48.8845 26.5769 48.7668 26.5334 48.6189 26.5334H47.5729V28.6928ZM50.9643 26.4718C50.992 26.3301 51.059 26.2159 51.1652 26.129C51.2714 26.0422 51.3984 25.9987 51.5462 25.9987H51.7402L52.9317 31.9215H52.3498L52.0796 30.5574H50.7149L50.4447 31.9215H49.8698L50.9643 26.4718ZM51.9965 30.0159L51.4007 26.9585L50.798 30.0159H51.9965ZM54.6238 25.9645H55.1711C55.4851 25.9645 55.7368 26.0582 55.9262 26.2455C56.1155 26.4329 56.2102 26.682 56.2102 26.9927V28.2815C56.2102 28.4871 56.1478 28.6517 56.0231 28.7751C55.8984 28.8985 55.7321 28.9601 55.5244 28.9601H55.5174V28.967H55.5244C55.7321 28.967 55.8984 29.0287 56.0231 29.1521C56.1478 29.2755 56.2102 29.44 56.2102 29.6456V30.9276C56.2102 31.2383 56.1155 31.4874 55.9262 31.6747C55.7368 31.8621 55.4851 31.9558 55.1711 31.9558H54.6238C54.3097 31.9558 54.0581 31.8621 53.8687 31.6747C53.6794 31.4874 53.5847 31.2383 53.5847 30.9276V30.7013L54.1319 30.4271V30.9412C54.1319 31.0875 54.1758 31.204 54.2635 31.2909C54.3513 31.3777 54.4691 31.4211 54.6168 31.4211H55.178C55.3258 31.4211 55.4435 31.3777 55.5313 31.2909C55.619 31.204 55.6629 31.0875 55.6629 30.9412V29.7074C55.6629 29.5611 55.619 29.4446 55.5313 29.3577C55.4435 29.2709 55.3258 29.2275 55.178 29.2275H54.4991V28.6928H55.178C55.3258 28.6928 55.4435 28.6494 55.5313 28.5626C55.619 28.4757 55.6629 28.3592 55.6629 28.213V26.979C55.6629 26.8328 55.619 26.7162 55.5313 26.6294C55.4435 26.5426 55.3258 26.4992 55.178 26.4992H54.6168C54.4691 26.4992 54.3513 26.5426 54.2635 26.6294C54.1758 26.7162 54.1319 26.8328 54.1319 26.979V27.4932L53.5847 27.7674V26.9927C53.5847 26.682 53.6794 26.4329 53.8687 26.2455C54.0581 26.0582 54.3097 25.9645 54.6238 25.9645ZM58.69 25.9987C59.0041 25.9987 59.2558 26.0924 59.4451 26.2798C59.6344 26.4672 59.7291 26.7162 59.7291 27.027V28.2815C59.7291 28.4871 59.6668 28.6517 59.5421 28.7751C59.4174 28.8985 59.2512 28.9601 59.0433 28.9601H59.0364V28.967H59.0433C59.2512 28.967 59.4174 29.0287 59.5421 29.1521C59.6668 29.2755 59.7291 29.44 59.7291 29.6456V30.8933C59.7291 31.204 59.6344 31.4531 59.4451 31.6405C59.2558 31.8279 59.0041 31.9215 58.69 31.9215H57.1037V25.9987H58.69ZM57.651 28.6928H58.697C58.8448 28.6928 58.9625 28.6494 59.0503 28.5626C59.138 28.4757 59.1819 28.3592 59.1819 28.213V27.0133C59.1819 26.8671 59.138 26.7506 59.0503 26.6637C58.9625 26.5769 58.8448 26.5334 58.697 26.5334H57.651V28.6928ZM57.651 31.3868H58.697C58.8448 31.3868 58.9625 31.3434 59.0503 31.2566C59.138 31.1698 59.1819 31.0532 59.1819 30.907V29.7074C59.1819 29.5611 59.138 29.4446 59.0503 29.3577C58.9625 29.2709 58.8448 29.2275 58.697 29.2275H57.651V31.3868ZM60.6227 31.9215V25.9987H61.1699V30.6122L62.7009 26.3826C62.7424 26.2638 62.814 26.1701 62.9156 26.1016C63.0172 26.0331 63.1304 25.9987 63.2551 25.9987H63.4559V31.9215H62.9087V27.3081L61.3778 31.5376C61.3362 31.6565 61.2646 31.7502 61.163 31.8187C61.0614 31.8873 60.9483 31.9215 60.8236 31.9215H60.6227ZM64.1101 26.5334V25.9987H66.8464V26.5334H65.7519V31.9215H65.2046V26.5334H64.1101ZM67.4007 31.9215V25.9987H67.948V30.6122L69.479 26.3826C69.5204 26.2638 69.5923 26.1701 69.6941 26.1016C69.7953 26.0331 69.9086 25.9987 70.0333 25.9987H70.2344V31.9215H69.6871V27.3081L68.1561 31.5376C68.1147 31.6565 68.0428 31.7502 67.941 31.8187C67.8398 31.8873 67.7265 31.9215 67.6018 31.9215H67.4007ZM71.0006 31.9558L72.0188 29.2206C71.7509 29.1841 71.5364 29.0767 71.3748 28.8985C71.2176 28.7157 71.1393 28.4825 71.1393 28.1992V27.027C71.1393 26.7162 71.2335 26.4672 71.4231 26.2798C71.6121 26.0924 71.8641 25.9987 72.1779 25.9987H73.7643V31.9215H73.217V29.2275H72.6011L71.7763 31.5034C71.7254 31.6405 71.6401 31.7502 71.5199 31.8324C71.4047 31.9147 71.273 31.9558 71.1253 31.9558H71.0006ZM72.1715 28.6928H73.217V26.5334H72.1715C72.0232 26.5334 71.9055 26.5769 71.8177 26.6637C71.7305 26.7506 71.6866 26.8671 71.6866 27.0133V28.213C71.6866 28.3592 71.7305 28.4757 71.8177 28.5626C71.9055 28.6494 72.0232 28.6928 72.1715 28.6928ZM41.8467 40.1845V36.2497C41.8467 35.9389 41.9414 35.6899 42.1307 35.5024C42.3201 35.3151 42.5718 35.2214 42.8858 35.2214H43.4331C43.7471 35.2214 43.9988 35.3151 44.1881 35.5024C44.3775 35.6899 44.4722 35.9389 44.4722 36.2497V37.086L43.9249 36.8118V36.2428C43.9249 36.0966 43.881 35.98 43.7933 35.8932C43.7056 35.8064 43.5878 35.763 43.44 35.763H42.8789C42.7311 35.763 42.6133 35.8064 42.5256 35.8932C42.4378 35.98 42.394 36.0966 42.394 36.2428V40.1914C42.394 40.3376 42.4378 40.4541 42.5256 40.5409C42.6133 40.6278 42.7311 40.6712 42.8789 40.6712H43.44C43.5878 40.6712 43.7056 40.6278 43.7933 40.5409C43.881 40.4541 43.9249 40.3376 43.9249 40.1914V39.7252L44.4722 39.9994V40.1845C44.4722 40.4953 44.3775 40.7443 44.1881 40.9317C43.9988 41.1191 43.7471 41.2128 43.4331 41.2128H42.8858C42.5718 41.2128 42.3201 41.1191 42.1307 40.9317C41.9414 40.7443 41.8467 40.4953 41.8467 40.1845ZM47.963 35.2557V41.1785H47.4158V35.7904H45.8156V41.1785H45.2683V35.2557H47.963ZM48.7932 36.2497C48.7932 35.9389 48.8879 35.6899 49.0772 35.5024C49.2666 35.3151 49.5183 35.2214 49.8323 35.2214H50.4489C50.7629 35.2214 51.0146 35.3151 51.204 35.5024C51.3933 35.6899 51.488 35.9389 51.488 36.2497V40.1845C51.488 40.4953 51.3933 40.7443 51.204 40.9317C51.0146 41.1191 50.7629 41.2128 50.4489 41.2128H49.8323C49.5183 41.2128 49.2666 41.1191 49.0772 40.9317C48.8879 40.7443 48.7932 40.4953 48.7932 40.1845V36.2497ZM49.8254 40.6712H50.4558C50.6036 40.6712 50.7213 40.6278 50.8091 40.5409C50.8969 40.4541 50.9407 40.3376 50.9407 40.1914V36.2428C50.9407 36.0966 50.8969 35.98 50.8091 35.8932C50.7213 35.8064 50.6036 35.763 50.4558 35.763H49.8254C49.6776 35.763 49.5599 35.8064 49.4721 35.8932C49.3843 35.98 49.3405 36.0966 49.3405 36.2428V40.1914C49.3405 40.3376 49.3843 40.4541 49.4721 40.5409C49.5599 40.6278 49.6776 40.6712 49.8254 40.6712ZM53.8358 35.2557C54.1498 35.2557 54.4016 35.3494 54.5909 35.5368C54.7802 35.7241 54.8749 35.9732 54.8749 36.2839V37.4562C54.8749 37.7669 54.7802 38.016 54.5909 38.2034C54.4016 38.3907 54.1498 38.4844 53.8358 38.4844H52.7967V41.1785H52.2494V35.2557H53.8358ZM52.7967 37.9497H53.8427C53.9905 37.9497 54.1083 37.9063 54.196 37.8195C54.2838 37.7327 54.3276 37.6161 54.3276 37.4699V36.2702C54.3276 36.124 54.2838 36.0075 54.196 35.9206C54.1083 35.8338 53.9905 35.7904 53.8427 35.7904H52.7967V37.9497ZM55.3798 35.7904V35.2557H58.1161V35.7904H57.0216V41.1785H56.4744V35.7904H55.3798ZM59.1713 35.7287C59.199 35.587 59.2659 35.4728 59.3722 35.3859C59.4784 35.2991 59.6054 35.2557 59.7532 35.2557H59.9472L61.1387 41.1785H60.5567L60.2866 39.8143H58.9219L58.6517 41.1785H58.0768L59.1713 35.7287ZM60.2035 39.2728L59.6077 36.2154L59.005 39.2728H60.2035Z" fill="#131313"/>
<mask id="mask0_641_972" style="mask-type:luminance" maskUnits="userSpaceOnUse" x="41" y="7" width="36" height="35">
<path d="M76.0835 7.36133H41.6562V41.3664H76.0835V7.36133Z" fill="white"/>
<path d="M41.8467 12.4414V7.54688H42.394V12.4483C42.394 12.5945 42.4378 12.711 42.5256 12.7979C42.6133 12.8847 42.7311 12.9281 42.8789 12.9281H43.9249V7.54688H44.4722V12.9281H44.8462C44.9525 12.9281 45.0356 12.9601 45.0956 13.0241C45.1603 13.0835 45.1926 13.1658 45.1926 13.2709V13.4697H42.8858C42.5718 13.4697 42.3201 13.376 42.1307 13.1886C41.9414 13.0013 41.8467 12.7522 41.8467 12.4414ZM45.7554 7.54688H48.173V8.08157H46.3026V10.241H47.6049V10.2958C47.6049 10.442 47.5611 10.5586 47.4733 10.6454C47.3856 10.7322 47.2678 10.7757 47.12 10.7757H46.3026V12.935H48.173V13.4697H45.7554V7.54688ZM49.6105 7.54688V10.241H51.1415V7.54688H51.6887V13.4697H51.1415V10.7757H49.6105V13.4697H49.0633V7.54688H49.6105ZM52.3398 8.08157V7.54688H55.0761V8.08157H53.9816V13.4697H53.4344V8.08157H52.3398ZM57.2168 7.54688C57.5308 7.54688 57.7825 7.64058 57.9719 7.82798C58.1612 8.01533 58.2559 8.26438 58.2559 8.57515V9.74738C58.2559 10.0581 58.1612 10.3072 57.9719 10.4946C57.7825 10.682 57.5308 10.7757 57.2168 10.7757H56.1777V13.4697H55.6304V7.54688H57.2168ZM56.1777 10.241H57.2237C57.3715 10.241 57.4893 10.1975 57.577 10.1107C57.6648 10.0239 57.7086 9.90733 57.7086 9.76111V8.56142C57.7086 8.4152 57.6648 8.2987 57.577 8.21186C57.4893 8.12502 57.3715 8.08157 57.2237 8.08157H56.1777V10.241ZM41.8467 21.7326V21.2048L42.394 21.479V21.7395C42.394 21.8857 42.4378 22.0023 42.5256 22.0891C42.6133 22.1759 42.7311 22.2194 42.8789 22.2194H43.44C43.5878 22.2194 43.7056 22.1759 43.7933 22.0891C43.881 22.0023 43.9249 21.8857 43.9249 21.7395V20.0394H42.8997C42.5856 20.0394 42.3339 19.9457 42.1446 19.7583C41.9552 19.571 41.8606 19.3219 41.8606 19.0112V16.8038H42.4078V19.018C42.4078 19.1643 42.4517 19.2808 42.5394 19.3677C42.6272 19.4544 42.7449 19.4979 42.8927 19.4979H43.9249V16.8038H44.4722V21.7326C44.4722 22.0434 44.3775 22.2925 44.1881 22.4798C43.9988 22.6672 43.7471 22.7609 43.4331 22.7609H42.8858C42.5718 22.7609 42.3201 22.6672 42.1307 22.4798C41.9414 22.2925 41.8467 22.0434 41.8467 21.7326ZM48.0929 16.8038V22.7266H47.5456V17.3385H45.9454V22.7266H45.3982V16.8038H48.0929ZM50.5847 16.8038C50.8988 16.8038 51.1504 16.8975 51.3398 17.0849C51.5291 17.2723 51.6238 17.5213 51.6238 17.8321V19.0043C51.6238 19.3151 51.5291 19.5641 51.3398 19.7515C51.1504 19.9389 50.8988 20.0326 50.5847 20.0326H49.5456V22.7266H48.9983V16.8038H50.5847ZM49.5456 19.4979H50.5917C50.7394 19.4979 50.8571 19.4544 50.9449 19.3677C51.0327 19.2808 51.0766 19.1643 51.0766 19.018V17.8183C51.0766 17.6721 51.0327 17.5556 50.9449 17.4688C50.8571 17.3819 50.7394 17.3385 50.5917 17.3385H49.5456V19.4979ZM52.937 17.2768C52.9647 17.1352 53.0317 17.0209 53.1379 16.9341C53.2441 16.8473 53.3711 16.8038 53.5189 16.8038H53.7128L54.9044 22.7266H54.3225L54.0523 21.3624H52.6876L52.4174 22.7266H51.8424L52.937 17.2768ZM53.9692 20.8209L53.3734 17.7636L52.7707 20.8209H53.9692ZM57.1437 16.8038C57.4578 16.8038 57.7094 16.8975 57.8988 17.0849C58.0881 17.2723 58.1828 17.5213 58.1828 17.8321V19.0865C58.1828 19.2922 58.1205 19.4568 57.9958 19.5801C57.8711 19.7035 57.7049 19.7652 57.497 19.7652H57.4901V19.7721H57.497C57.7049 19.7721 57.8711 19.8338 57.9958 19.9571C58.1205 20.0806 58.1828 20.245 58.1828 20.4507V21.6983C58.1828 22.0091 58.0881 22.2582 57.8988 22.4456C57.7094 22.633 57.4578 22.7266 57.1437 22.7266H55.5573V16.8038H57.1437ZM56.1046 19.4979H57.1507C57.2984 19.4979 57.4162 19.4544 57.504 19.3677C57.5917 19.2808 57.6356 19.1643 57.6356 19.018V17.8183C57.6356 17.6721 57.5917 17.5556 57.504 17.4688C57.4162 17.3819 57.2984 17.3385 57.1507 17.3385H56.1046V19.4979ZM56.1046 22.1919H57.1507C57.2984 22.1919 57.4162 22.1485 57.504 22.0617C57.5917 21.9748 57.6356 21.8583 57.6356 21.7121V20.5124C57.6356 20.3662 57.5917 20.2496 57.504 20.1628C57.4162 20.076 57.2984 20.0326 57.1507 20.0326H56.1046V22.1919ZM58.6672 22.7266L58.9374 22.185H59.1452C59.2375 22.185 59.2837 22.1394 59.2837 22.0479V17.8321C59.2837 17.5213 59.3784 17.2723 59.5678 17.0849C59.7571 16.8975 60.0088 16.8038 60.3229 16.8038H61.8053V22.7266H61.265V17.3385H60.309C60.1612 17.3385 60.0434 17.3819 59.9557 17.4688C59.8679 17.5556 59.8241 17.6721 59.8241 17.8183V22.1097C59.8241 22.297 59.7664 22.4478 59.6509 22.5621C59.5401 22.6717 59.39 22.7266 59.2006 22.7266H58.6672ZM62.709 16.8038H65.127V17.3385H63.2562V19.4979H64.5587V19.5527C64.5587 19.699 64.5148 19.8155 64.427 19.9023C64.3391 19.9891 64.2214 20.0326 64.0738 20.0326H63.2562V22.1919H65.127V22.7266H62.709V16.8038ZM66.5639 16.8038V19.4979H68.095V16.8038H68.6422V22.7266H68.095V20.0326H66.5639V22.7266H66.0172V16.8038H66.5639ZM69.544 22.7266V16.8038H70.0912V21.4173L71.6223 17.1877C71.6637 17.0689 71.7356 16.9752 71.8368 16.9066C71.9386 16.8381 72.0519 16.8038 72.1766 16.8038H72.3771V22.7266H71.8298V18.1131L70.2993 22.3427C70.2573 22.4615 70.1861 22.5553 70.0842 22.6238C69.983 22.6923 69.8698 22.7266 69.7451 22.7266H69.544ZM73.1439 22.7609L74.1621 20.0257C73.8941 19.9891 73.6797 19.8818 73.5181 19.7035C73.3609 19.5207 73.282 19.2876 73.282 19.0043V17.8321C73.282 17.5213 73.3768 17.2723 73.5664 17.0849C73.7554 16.8975 74.0074 16.8038 74.3211 16.8038H75.9076V22.7266H75.3603V20.0326H74.7437L73.9196 22.3085C73.8687 22.4456 73.7834 22.5552 73.6631 22.6375C73.548 22.7197 73.4162 22.7609 73.2686 22.7609H73.1439ZM74.3141 19.4979H75.3603V17.3385H74.3141C74.1665 17.3385 74.0488 17.3819 73.961 17.4688C73.8731 17.5556 73.8292 17.6721 73.8292 17.8183V19.018C73.8292 19.1643 73.8731 19.2808 73.961 19.3677C74.0488 19.4544 74.1665 19.4979 74.3141 19.4979ZM41.8467 31.9206V25.9978H42.394V30.6112L43.9249 26.3816C43.9665 26.2629 44.0381 26.1692 44.1396 26.1006C44.2413 26.0321 44.3544 25.9978 44.4791 25.9978H44.68V31.9206H44.1327V27.3071L42.6018 31.5367C42.5602 31.6555 42.4886 31.7492 42.387 31.8177C42.2854 31.8863 42.1722 31.9206 42.0476 31.9206H41.8467ZM48.612 25.9978C48.926 25.9978 49.1778 26.0915 49.3671 26.2789C49.5565 26.4662 49.6511 26.7153 49.6511 27.026V28.1983C49.6511 28.509 49.5565 28.7581 49.3671 28.9455C49.1778 29.1328 48.926 29.2265 48.612 29.2265H47.5729V31.9206H47.0257V25.9978H48.612ZM47.5729 28.6918H48.6189C48.7668 28.6918 48.8845 28.6484 48.9722 28.5616C49.06 28.4748 49.1038 28.3582 49.1038 28.212V27.0123C49.1038 26.8661 49.06 26.7496 48.9722 26.6627C48.8845 26.5759 48.7668 26.5325 48.6189 26.5325H47.5729V28.6918ZM50.9643 26.4708C50.992 26.3291 51.059 26.2149 51.1652 26.128C51.2714 26.0412 51.3984 25.9978 51.5462 25.9978H51.7402L52.9317 31.9206H52.3498L52.0796 30.5564H50.7149L50.4447 31.9206H49.8698L50.9643 26.4708ZM51.9965 30.0149L51.4007 26.9575L50.798 30.0149H51.9965ZM54.6238 25.9635H55.1711C55.4851 25.9635 55.7368 26.0572 55.9262 26.2445C56.1155 26.4319 56.2102 26.681 56.2102 26.9918V28.2805C56.2102 28.4862 56.1478 28.6507 56.0231 28.7741C55.8984 28.8975 55.7321 28.9592 55.5244 28.9592H55.5174V28.966H55.5244C55.7321 28.966 55.8984 29.0277 56.0231 29.1511C56.1478 29.2745 56.2102 29.439 56.2102 29.6447V30.9266C56.2102 31.2374 56.1155 31.4864 55.9262 31.6738C55.7368 31.8612 55.4851 31.9549 55.1711 31.9549H54.6238C54.3097 31.9549 54.0581 31.8612 53.8687 31.6738C53.6794 31.4864 53.5847 31.2374 53.5847 30.9266V30.7003L54.1319 30.4262V30.9403C54.1319 31.0865 54.1758 31.203 54.2635 31.2899C54.3513 31.3767 54.4691 31.4202 54.6168 31.4202H55.178C55.3258 31.4202 55.4435 31.3767 55.5313 31.2899C55.619 31.203 55.6629 31.0865 55.6629 30.9403V29.7064C55.6629 29.5602 55.619 29.4436 55.5313 29.3568C55.4435 29.2699 55.3258 29.2265 55.178 29.2265H54.4991V28.6918H55.178C55.3258 28.6918 55.4435 28.6484 55.5313 28.5616C55.619 28.4748 55.6629 28.3582 55.6629 28.212V26.978C55.6629 26.8318 55.619 26.7153 55.5313 26.6284C55.4435 26.5416 55.3258 26.4982 55.178 26.4982H54.6168C54.4691 26.4982 54.3513 26.5416 54.2635 26.6284C54.1758 26.7153 54.1319 26.8318 54.1319 26.978V27.4922L53.5847 27.7664V26.9918C53.5847 26.681 53.6794 26.4319 53.8687 26.2445C54.0581 26.0572 54.3097 25.9635 54.6238 25.9635ZM58.69 25.9978C59.0041 25.9978 59.2558 26.0915 59.4451 26.2789C59.6344 26.4662 59.7291 26.7153 59.7291 27.026V28.2805C59.7291 28.4862 59.6668 28.6507 59.5421 28.7741C59.4174 28.8975 59.2512 28.9592 59.0433 28.9592H59.0364V28.966H59.0433C59.2512 28.966 59.4174 29.0277 59.5421 29.1511C59.6668 29.2745 59.7291 29.439 59.7291 29.6447V30.8923C59.7291 31.203 59.6344 31.4522 59.4451 31.6395C59.2558 31.8269 59.0041 31.9206 58.69 31.9206H57.1037V25.9978H58.69ZM57.651 28.6918H58.697C58.8448 28.6918 58.9625 28.6484 59.0503 28.5616C59.138 28.4748 59.1819 28.3582 59.1819 28.212V27.0123C59.1819 26.8661 59.138 26.7496 59.0503 26.6627C58.9625 26.5759 58.8448 26.5325 58.697 26.5325H57.651V28.6918ZM57.651 31.3859H58.697C58.8448 31.3859 58.9625 31.3425 59.0503 31.2556C59.138 31.1688 59.1819 31.0522 59.1819 30.906V29.7064C59.1819 29.5602 59.138 29.4436 59.0503 29.3568C58.9625 29.2699 58.8448 29.2265 58.697 29.2265H57.651V31.3859ZM60.6227 31.9206V25.9978H61.1699V30.6112L62.7009 26.3816C62.7424 26.2629 62.814 26.1692 62.9156 26.1006C63.0172 26.0321 63.1304 25.9978 63.2551 25.9978H63.4559V31.9206H62.9087V27.3071L61.3778 31.5367C61.3362 31.6555 61.2646 31.7492 61.163 31.8177C61.0614 31.8863 60.9483 31.9206 60.8236 31.9206H60.6227ZM64.1101 26.5325V25.9978H66.8464V26.5325H65.7519V31.9206H65.2046V26.5325H64.1101ZM67.4007 31.9206V25.9978H67.948V30.6112L69.479 26.3816C69.5204 26.2629 69.5923 26.1692 69.6941 26.1006C69.7953 26.0321 69.9086 25.9978 70.0333 25.9978H70.2344V31.9206H69.6871V27.3071L68.1561 31.5367C68.1147 31.6555 68.0428 31.7492 67.941 31.8177C67.8398 31.8863 67.7265 31.9206 67.6018 31.9206H67.4007ZM71.0006 31.9549L72.0188 29.2197C71.7509 29.1831 71.5364 29.0757 71.3748 28.8975C71.2176 28.7147 71.1393 28.4816 71.1393 28.1983V27.026C71.1393 26.7153 71.2335 26.4662 71.4231 26.2789C71.6121 26.0915 71.8641 25.9978 72.1779 25.9978H73.7643V31.9206H73.217V29.2265H72.6011L71.7763 31.5024C71.7254 31.6395 71.6401 31.7492 71.5199 31.8314C71.4047 31.9137 71.273 31.9549 71.1253 31.9549H71.0006ZM72.1715 28.6918H73.217V26.5325H72.1715C72.0232 26.5325 71.9055 26.5759 71.8177 26.6627C71.7305 26.7496 71.6866 26.8661 71.6866 27.0123V28.212C71.6866 28.3582 71.7305 28.4748 71.8177 28.5616C71.9055 28.6484 72.0232 28.6918 72.1715 28.6918ZM41.8467 40.1835V36.2487C41.8467 35.9379 41.9414 35.6889 42.1307 35.5015C42.3201 35.3141 42.5718 35.2204 42.8858 35.2204H43.4331C43.7471 35.2204 43.9988 35.3141 44.1881 35.5015C44.3775 35.6889 44.4722 35.9379 44.4722 36.2487V37.085L43.9249 36.8108V36.2418C43.9249 36.0956 43.881 35.9791 43.7933 35.8922C43.7056 35.8054 43.5878 35.762 43.44 35.762H42.8789C42.7311 35.762 42.6133 35.8054 42.5256 35.8922C42.4378 35.9791 42.394 36.0956 42.394 36.2418V40.1904C42.394 40.3366 42.4378 40.4532 42.5256 40.5399C42.6133 40.6268 42.7311 40.6702 42.8789 40.6702H43.44C43.5878 40.6702 43.7056 40.6268 43.7933 40.5399C43.881 40.4532 43.9249 40.3366 43.9249 40.1904V39.7242L44.4722 39.9984V40.1835C44.4722 40.4943 44.3775 40.7433 44.1881 40.9307C43.9988 41.1181 43.7471 41.2118 43.4331 41.2118H42.8858C42.5718 41.2118 42.3201 41.1181 42.1307 40.9307C41.9414 40.7433 41.8467 40.4943 41.8467 40.1835ZM47.963 35.2547V41.1775H47.4158V35.7894H45.8156V41.1775H45.2683V35.2547H47.963ZM48.7932 36.2487C48.7932 35.9379 48.8879 35.6889 49.0772 35.5015C49.2666 35.3141 49.5183 35.2204 49.8323 35.2204H50.4489C50.7629 35.2204 51.0146 35.3141 51.204 35.5015C51.3933 35.6889 51.488 35.9379 51.488 36.2487V40.1835C51.488 40.4943 51.3933 40.7433 51.204 40.9307C51.0146 41.1181 50.7629 41.2118 50.4489 41.2118H49.8323C49.5183 41.2118 49.2666 41.1181 49.0772 40.9307C48.8879 40.7433 48.7932 40.4943 48.7932 40.1835V36.2487ZM49.8254 40.6702H50.4558C50.6036 40.6702 50.7213 40.6268 50.8091 40.5399C50.8969 40.4532 50.9407 40.3366 50.9407 40.1904V36.2418C50.9407 36.0956 50.8969 35.9791 50.8091 35.8922C50.7213 35.8054 50.6036 35.762 50.4558 35.762H49.8254C49.6776 35.762 49.5599 35.8054 49.4721 35.8922C49.3843 35.9791 49.3405 36.0956 49.3405 36.2418V40.1904C49.3405 40.3366 49.3843 40.4532 49.4721 40.5399C49.5599 40.6268 49.6776 40.6702 49.8254 40.6702ZM53.8358 35.2547C54.1498 35.2547 54.4016 35.3484 54.5909 35.5358C54.7802 35.7231 54.8749 35.9722 54.8749 36.283V37.4552C54.8749 37.766 54.7802 38.015 54.5909 38.2024C54.4016 38.3898 54.1498 38.4835 53.8358 38.4835H52.7967V41.1775H52.2494V35.2547H53.8358ZM52.7967 37.9488H53.8427C53.9905 37.9488 54.1083 37.9053 54.196 37.8185C54.2838 37.7317 54.3276 37.6151 54.3276 37.4689V36.2692C54.3276 36.123 54.2838 36.0065 54.196 35.9197C54.1083 35.8328 53.9905 35.7894 53.8427 35.7894H52.7967V37.9488ZM55.3798 35.7894V35.2547H58.1161V35.7894H57.0216V41.1775H56.4744V35.7894H55.3798ZM59.1713 35.7277C59.199 35.586 59.2659 35.4718 59.3722 35.385C59.4784 35.2981 59.6054 35.2547 59.7532 35.2547H59.9472L61.1387 41.1775H60.5567L60.2866 39.8133H58.9219L58.6517 41.1775H58.0768L59.1713 35.7277ZM60.2035 39.2718L59.6077 36.2144L59.005 39.2718H60.2035Z" fill="black"/>
</mask>
<g mask="url(#mask0_641_972)">
<path d="M41.8461 7.5469V7.41895H41.7168V7.5469H41.8461ZM42.3934 7.5469H42.5227V7.41895H42.3934V7.5469ZM43.9243 12.9281V13.0562H44.0537V12.9281H43.9243ZM43.9243 7.5469V7.41895H43.795V7.5469H43.9243ZM44.4716 7.5469H44.6009V7.41895H44.4716V7.5469ZM44.4716 12.9281H44.3422V13.0562H44.4716V12.9281ZM45.0951 13.0241L45.0003 13.1112L45.0036 13.1147L45.0071 13.1179L45.0951 13.0241ZM45.192 13.4697V13.5977H45.3214V13.4697H45.192ZM41.9754 12.4414V7.5469H41.7168V12.4414H41.9754ZM41.8461 7.67493H42.3934V7.41895H41.8461V7.67493ZM42.2641 7.5469V12.4483H42.5227V7.5469H42.2641ZM42.2641 12.4483C42.2641 12.6215 42.317 12.7731 42.4335 12.8884L42.6164 12.7074C42.5575 12.6491 42.5227 12.5676 42.5227 12.4483H42.2641ZM42.4335 12.8884C42.5501 13.0038 42.7032 13.0562 42.8783 13.0562V12.8002C42.7578 12.8002 42.6753 12.7657 42.6164 12.7074L42.4335 12.8884ZM42.8783 13.0562H43.9243V12.8002H42.8783V13.0562ZM44.0537 12.9281V7.5469H43.795V12.9281H44.0537ZM43.9243 7.67493H44.4716V7.41895H43.9243V7.67493ZM44.3422 7.5469V12.9281H44.6009V7.5469H44.3422ZM44.4716 13.0562H44.8457V12.8002H44.4716V13.0562ZM44.8457 13.0562C44.9239 13.0562 44.9696 13.0786 45.0003 13.1112L45.1898 12.9371C45.1004 12.8417 44.9799 12.8002 44.8457 12.8002V13.0562ZM45.0071 13.1179C45.0401 13.1482 45.0627 13.1936 45.0627 13.2709H45.3214C45.3214 13.1381 45.2793 13.0189 45.1831 12.9303L45.0071 13.1179ZM45.0627 13.2709V13.4697H45.3214V13.2709H45.0627ZM45.192 13.3417H42.8852V13.5977H45.192V13.3417ZM42.8852 13.3417C42.5991 13.3417 42.3825 13.2574 42.2216 13.0982L42.0387 13.2791C42.2564 13.4946 42.5432 13.5977 42.8852 13.5977V13.3417ZM42.2216 13.0982C42.0606 12.9389 41.9754 12.7246 41.9754 12.4414H41.7168C41.7168 12.7798 41.8209 13.0637 42.0387 13.2791L42.2216 13.0982ZM45.7548 7.5469V7.41895H45.6255V7.5469H45.7548ZM48.1725 7.5469H48.3018V7.41895H48.1725V7.5469ZM48.1725 8.0816V8.20963H48.3018V8.0816H48.1725ZM46.3021 8.0816V7.95364H46.1727V8.0816H46.3021ZM46.3021 10.241H46.1727V10.3689H46.3021V10.241ZM47.6044 10.241H47.7337V10.113H47.6044V10.241ZM46.3021 10.7757V10.6477H46.1727V10.7757H46.3021ZM46.3021 12.935H46.1727V13.063H46.3021V12.935ZM48.1725 12.935H48.3018V12.807H48.1725V12.935ZM48.1725 13.4697V13.5977H48.3018V13.4697H48.1725ZM45.7548 13.4697H45.6255V13.5977H45.7548V13.4697ZM45.7548 7.67493H48.1725V7.41895H45.7548V7.67493ZM48.0431 7.5469V8.0816H48.3018V7.5469H48.0431ZM48.1725 7.95364H46.3021V8.20963H48.1725V7.95364ZM46.1727 8.0816V10.241H46.4314V8.0816H46.1727ZM46.3021 10.3689H47.6044V10.113H46.3021V10.3689ZM47.4751 10.241V10.2958H47.7337V10.241H47.4751ZM47.4751 10.2958C47.4751 10.415 47.4403 10.4966 47.3813 10.5549L47.5642 10.7359C47.6807 10.6206 47.7337 10.4691 47.7337 10.2958H47.4751ZM47.3813 10.5549C47.3224 10.6133 47.24 10.6477 47.1195 10.6477V10.9036C47.2945 10.9036 47.4476 10.8512 47.5642 10.7359L47.3813 10.5549ZM47.1195 10.6477H46.3021V10.9036H47.1195V10.6477ZM46.1727 10.7757V12.935H46.4314V10.7757H46.1727ZM46.3021 13.063H48.1725V12.807H46.3021V13.063ZM48.0431 12.935V13.4697H48.3018V12.935H48.0431ZM48.1725 13.3417H45.7548V13.5977H48.1725V13.3417ZM45.8841 13.4697V7.5469H45.6255V13.4697H45.8841ZM49.6099 7.5469H49.7393V7.41895H49.6099V7.5469ZM49.6099 10.241H49.4806V10.3689H49.6099V10.241ZM51.1409 10.241V10.3689H51.2702V10.241H51.1409ZM51.1409 7.5469V7.41895H51.0116V7.5469H51.1409ZM51.6882 7.5469H51.8175V7.41895H51.6882V7.5469ZM51.6882 13.4697V13.5977H51.8175V13.4697H51.6882ZM51.1409 13.4697H51.0116V13.5977H51.1409V13.4697ZM51.1409 10.7757H51.2702V10.6477H51.1409V10.7757ZM49.6099 10.7757V10.6477H49.4806V10.7757H49.6099ZM49.6099 13.4697V13.5977H49.7393V13.4697H49.6099ZM49.0627 13.4697H48.9334V13.5977H49.0627V13.4697ZM49.0627 7.5469V7.41895H48.9334V7.5469H49.0627ZM49.4806 7.5469V10.241H49.7393V7.5469H49.4806ZM49.6099 10.3689H51.1409V10.113H49.6099V10.3689ZM51.2702 10.241V7.5469H51.0116V10.241H51.2702ZM51.1409 7.67493H51.6882V7.41895H51.1409V7.67493ZM51.5589 7.5469V13.4697H51.8175V7.5469H51.5589ZM51.6882 13.3417H51.1409V13.5977H51.6882V13.3417ZM51.2702 13.4697V10.7757H51.0116V13.4697H51.2702ZM51.1409 10.6477H49.6099V10.9036H51.1409V10.6477ZM49.4806 10.7757V13.4697H49.7393V10.7757H49.4806ZM49.6099 13.3417H49.0627V13.5977H49.6099V13.3417ZM49.192 13.4697V7.5469H48.9334V13.4697H49.192ZM49.0627 7.67493H49.6099V7.41895H49.0627V7.67493ZM52.3392 8.0816H52.2099V8.20963H52.3392V8.0816ZM52.3392 7.5469V7.41895H52.2099V7.5469H52.3392ZM55.0755 7.5469H55.2048V7.41895H55.0755V7.5469ZM55.0755 8.0816V8.20963H55.2048V8.0816H55.0755ZM53.9811 8.0816V7.95364H53.8517V8.0816H53.9811ZM53.9811 13.4697V13.5977H54.1104V13.4697H53.9811ZM53.4338 13.4697H53.3045V13.5977H53.4338V13.4697ZM53.4338 8.0816H53.5631V7.95364H53.4338V8.0816ZM52.4685 8.0816V7.5469H52.2099V8.0816H52.4685ZM52.3392 7.67493H55.0755V7.41895H52.3392V7.67493ZM54.9462 7.5469V8.0816H55.2048V7.5469H54.9462ZM55.0755 7.95364H53.9811V8.20963H55.0755V7.95364ZM53.8517 8.0816V13.4697H54.1104V8.0816H53.8517ZM53.9811 13.3417H53.4338V13.5977H53.9811V13.3417ZM53.5631 13.4697V8.0816H53.3045V13.4697H53.5631ZM53.4338 7.95364H52.3392V8.20963H53.4338V7.95364ZM56.1771 10.7757V10.6477H56.0478V10.7757H56.1771ZM56.1771 13.4697V13.5977H56.3065V13.4697H56.1771ZM55.6299 13.4697H55.5005V13.5977H55.6299V13.4697ZM55.6299 7.5469V7.41895H55.5005V7.5469H55.6299ZM56.1771 10.241H56.0478V10.3689H56.1771V10.241ZM56.1771 8.0816V7.95364H56.0478V8.0816H56.1771ZM57.2162 7.67493C57.5024 7.67493 57.7189 7.75925 57.8799 7.9185L58.0628 7.73752C57.845 7.52197 57.5582 7.41895 57.2162 7.41895V7.67493ZM57.8799 7.9185C58.0408 8.0777 58.126 8.29206 58.126 8.57518H58.3846C58.3846 8.23683 58.2805 7.95301 58.0628 7.73752L57.8799 7.9185ZM58.126 8.57518V9.74741H58.3846V8.57518H58.126ZM58.126 9.74741C58.126 10.0305 58.0408 10.2449 57.8799 10.4041L58.0628 10.5851C58.2805 10.3696 58.3846 10.0858 58.3846 9.74741H58.126ZM57.8799 10.4041C57.7189 10.5633 57.5024 10.6477 57.2162 10.6477V10.9036C57.5582 10.9036 57.845 10.8006 58.0628 10.5851L57.8799 10.4041ZM57.2162 10.6477H56.1771V10.9036H57.2162V10.6477ZM56.0478 10.7757V13.4697H56.3065V10.7757H56.0478ZM56.1771 13.3417H55.6299V13.5977H56.1771V13.3417ZM55.7592 13.4697V7.5469H55.5005V13.4697H55.7592ZM55.6299 7.67493H57.2162V7.41895H55.6299V7.67493ZM56.1771 10.3689H57.2231V10.113H56.1771V10.3689ZM57.2231 10.3689C57.3982 10.3689 57.5513 10.3166 57.6679 10.2012L57.485 10.0203C57.4261 10.0786 57.3437 10.113 57.2231 10.113V10.3689ZM57.6679 10.2012C57.7844 10.0859 57.8374 9.93437 57.8374 9.76114H57.5787C57.5787 9.88034 57.5439 9.96189 57.485 10.0203L57.6679 10.2012ZM57.8374 9.76114V8.56145H57.5787V9.76114H57.8374ZM57.8374 8.56145C57.8374 8.38828 57.7844 8.2367 57.6679 8.1214L57.485 8.30238C57.5439 8.3607 57.5787 8.44224 57.5787 8.56145H57.8374ZM57.6679 8.1214C57.5513 8.00604 57.3982 7.95364 57.2231 7.95364V8.20963C57.3437 8.20963 57.4261 8.24401 57.485 8.30238L57.6679 8.1214ZM57.2231 7.95364H56.1771V8.20963H57.2231V7.95364ZM56.0478 8.0816V10.241H56.3065V8.0816H56.0478ZM41.8461 21.2048L41.9045 21.0907L41.7168 20.9966V21.2048H41.8461ZM42.3934 21.479H42.5227V21.4004L42.4518 21.3649L42.3934 21.479ZM43.9243 20.0395H44.0537V19.9115H43.9243V20.0395ZM41.86 16.8038V16.6759H41.7307V16.8038H41.86ZM42.4072 16.8038H42.5366V16.6759H42.4072V16.8038ZM43.9243 19.4979V19.6259H44.0537V19.4979H43.9243ZM43.9243 16.8038V16.6759H43.795V16.8038H43.9243ZM44.4716 16.8038H44.6009V16.6759H44.4716V16.8038ZM41.9754 21.7327V21.2048H41.7168V21.7327H41.9754ZM41.7877 21.319L42.335 21.5932L42.4518 21.3649L41.9045 21.0907L41.7877 21.319ZM42.2641 21.479V21.7395H42.5227V21.479H42.2641ZM42.2641 21.7395C42.2641 21.9127 42.317 22.0643 42.4335 22.1796L42.6164 21.9986C42.5575 21.9403 42.5227 21.8587 42.5227 21.7395H42.2641ZM42.4335 22.1796C42.5501 22.295 42.7032 22.3473 42.8783 22.3473V22.0914C42.7578 22.0914 42.6753 22.057 42.6164 21.9986L42.4335 22.1796ZM42.8783 22.3473H43.4394V22.0914H42.8783V22.3473ZM43.4394 22.3473C43.6144 22.3473 43.7676 22.295 43.8841 22.1796L43.7012 21.9986C43.6423 22.057 43.5599 22.0914 43.4394 22.0914V22.3473ZM43.8841 22.1796C44.0007 22.0643 44.0537 21.9127 44.0537 21.7395H43.795C43.795 21.8587 43.7602 21.9403 43.7012 21.9986L43.8841 22.1796ZM44.0537 21.7395V20.0395H43.795V21.7395H44.0537ZM43.9243 19.9115H42.8991V20.1674H43.9243V19.9115ZM42.8991 19.9115C42.6129 19.9115 42.3964 19.8271 42.2354 19.6679L42.0525 19.8489C42.2703 20.0644 42.5571 20.1674 42.8991 20.1674V19.9115ZM42.2354 19.6679C42.0745 19.5087 41.9893 19.2943 41.9893 19.0112H41.7307C41.7307 19.3495 41.8348 19.6334 42.0525 19.8489L42.2354 19.6679ZM41.9893 19.0112V16.8038H41.7307V19.0112H41.9893ZM41.86 16.9319H42.4072V16.6759H41.86V16.9319ZM42.2779 16.8038V19.0181H42.5366V16.8038H42.2779ZM42.2779 19.0181C42.2779 19.1913 42.3308 19.3428 42.4474 19.4581L42.6303 19.2772C42.5714 19.2188 42.5366 19.1373 42.5366 19.0181H42.2779ZM42.4474 19.4581C42.564 19.5735 42.7171 19.6259 42.8922 19.6259V19.37C42.7716 19.37 42.6892 19.3355 42.6303 19.2772L42.4474 19.4581ZM42.8922 19.6259H43.9243V19.37H42.8922V19.6259ZM44.0537 19.4979V16.8038H43.795V19.4979H44.0537ZM43.9243 16.9319H44.4716V16.6759H43.9243V16.9319ZM44.3422 16.8038V21.7327H44.6009V16.8038H44.3422ZM44.3422 21.7327C44.3422 22.0158 44.257 22.2302 44.0961 22.3893L44.279 22.5703C44.4968 22.3548 44.6009 22.071 44.6009 21.7327H44.3422ZM44.0961 22.3893C43.9352 22.5486 43.7186 22.6329 43.4325 22.6329V22.8889C43.7744 22.8889 44.0612 22.7858 44.279 22.5703L44.0961 22.3893ZM43.4325 22.6329H42.8852V22.8889H43.4325V22.6329ZM42.8852 22.6329C42.5991 22.6329 42.3825 22.5486 42.2216 22.3893L42.0387 22.5703C42.2564 22.7858 42.5432 22.8889 42.8852 22.8889V22.6329ZM42.2216 22.3893C42.0606 22.2302 41.9754 22.0158 41.9754 21.7327H41.7168C41.7168 22.071 41.8209 22.3548 42.0387 22.5703L42.2216 22.3893ZM48.0923 16.8038H48.2216V16.6759H48.0923V16.8038ZM48.0923 22.7266V22.8546H48.2216V22.7266H48.0923ZM47.5451 22.7266H47.4158V22.8546H47.5451V22.7266ZM47.5451 17.3385H47.6744V17.2106H47.5451V17.3385ZM45.9449 17.3385V17.2106H45.8155V17.3385H45.9449ZM45.9449 22.7266V22.8546H46.0742V22.7266H45.9449ZM45.3976 22.7266H45.2683V22.8546H45.3976V22.7266ZM45.3976 16.8038V16.6759H45.2683V16.8038H45.3976ZM47.963 16.8038V22.7266H48.2216V16.8038H47.963ZM48.0923 22.5987H47.5451V22.8546H48.0923V22.5987ZM47.6744 22.7266V17.3385H47.4158V22.7266H47.6744ZM47.5451 17.2106H45.9449V17.4666H47.5451V17.2106ZM45.8155 17.3385V22.7266H46.0742V17.3385H45.8155ZM45.9449 22.5987H45.3976V22.8546H45.9449V22.5987ZM45.5269 22.7266V16.8038H45.2683V22.7266H45.5269ZM45.3976 16.9319H48.0923V16.6759H45.3976V16.9319ZM49.545 20.0326V19.9046H49.4157V20.0326H49.545ZM49.545 22.7266V22.8546H49.6743V22.7266H49.545ZM48.9978 22.7266H48.8684V22.8546H48.9978V22.7266ZM48.9978 16.8038V16.6759H48.8684V16.8038H48.9978ZM49.545 19.4979H49.4157V19.6259H49.545V19.4979ZM49.545 17.3385V17.2106H49.4157V17.3385H49.545ZM50.5841 16.9319C50.8703 16.9319 51.0868 17.0162 51.2477 17.1754L51.4306 16.9944C51.2129 16.7789 50.9261 16.6759 50.5841 16.6759V16.9319ZM51.2477 17.1754C51.4087 17.3346 51.4939 17.549 51.4939 17.8321H51.7526C51.7526 17.4938 51.6484 17.2099 51.4306 16.9944L51.2477 17.1754ZM51.4939 17.8321V19.0043H51.7526V17.8321H51.4939ZM51.4939 19.0043C51.4939 19.2875 51.4087 19.5018 51.2477 19.6611L51.4306 19.8421C51.6484 19.6265 51.7526 19.3427 51.7526 19.0043H51.4939ZM51.2477 19.6611C51.0868 19.8203 50.8703 19.9046 50.5841 19.9046V20.1606C50.9261 20.1606 51.2129 20.0575 51.4306 19.8421L51.2477 19.6611ZM50.5841 19.9046H49.545V20.1606H50.5841V19.9046ZM49.4157 20.0326V22.7266H49.6743V20.0326H49.4157ZM49.545 22.5987H48.9978V22.8546H49.545V22.5987ZM49.1271 22.7266V16.8038H48.8684V22.7266H49.1271ZM48.9978 16.9319H50.5841V16.6759H48.9978V16.9319ZM49.545 19.6259H50.5911V19.37H49.545V19.6259ZM50.5911 19.6259C50.7661 19.6259 50.9193 19.5735 51.0358 19.4581L50.8529 19.2772C50.794 19.3355 50.7115 19.37 50.5911 19.37V19.6259ZM51.0358 19.4581C51.1524 19.3428 51.2053 19.1913 51.2053 19.0181H50.9466C50.9466 19.1373 50.9119 19.2188 50.8529 19.2772L51.0358 19.4581ZM51.2053 19.0181V17.8184H50.9466V19.0181H51.2053ZM51.2053 17.8184C51.2053 17.6452 51.1524 17.4936 51.0358 17.3783L50.8529 17.5593C50.9119 17.6176 50.9466 17.6992 50.9466 17.8184H51.2053ZM51.0358 17.3783C50.9193 17.263 50.7661 17.2106 50.5911 17.2106V17.4666C50.7115 17.4666 50.794 17.5009 50.8529 17.5593L51.0358 17.3783ZM50.5911 17.2106H49.545V17.4666H50.5911V17.2106ZM49.4157 17.3385V19.4979H49.6743V17.3385H49.4157ZM52.9364 17.2769L53.0632 17.3018L53.0634 17.3012L52.9364 17.2769ZM53.7123 16.8038L53.8391 16.7789L53.8184 16.6759H53.7123V16.8038ZM54.9038 22.7266V22.8546H55.0614L55.0306 22.7016L54.9038 22.7266ZM54.3219 22.7266L54.1949 22.7512L54.2154 22.8546H54.3219V22.7266ZM54.0517 21.3625L54.1786 21.3379L54.1581 21.2345H54.0517V21.3625ZM52.687 21.3625V21.2345H52.5806L52.5601 21.3379L52.687 21.3625ZM52.4169 22.7266V22.8546H52.5233L52.5438 22.7512L52.4169 22.7266ZM51.8419 22.7266L51.715 22.7017L51.6843 22.8546H51.8419V22.7266ZM53.9686 20.821V20.9489H54.1252L54.0955 20.7967L53.9686 20.821ZM53.3728 17.7636L53.4998 17.7393L53.2459 17.739L53.3728 17.7636ZM52.7701 20.821L52.6432 20.7964L52.6131 20.9489H52.7701V20.821ZM53.0634 17.3012C53.0858 17.1868 53.138 17.0995 53.2196 17.0327L53.0549 16.8354C52.9242 16.9424 52.8425 17.0836 52.8094 17.2525L53.0634 17.3012ZM53.2196 17.0327C53.301 16.9663 53.3982 16.9319 53.5183 16.9319V16.6759C53.3428 16.6759 53.186 16.7282 53.0549 16.8354L53.2196 17.0327ZM53.5183 16.9319H53.7123V16.6759H53.5183V16.9319ZM53.5854 16.8288L54.777 22.7516L55.0306 22.7016L53.8391 16.7789L53.5854 16.8288ZM54.9038 22.5987H54.3219V22.8546H54.9038V22.5987ZM54.4488 22.702L54.1786 21.3379L53.9248 21.3871L54.1949 22.7512L54.4488 22.702ZM54.0517 21.2345H52.687V21.4905H54.0517V21.2345ZM52.5601 21.3379L52.2899 22.702L52.5438 22.7512L52.8139 21.3871L52.5601 21.3379ZM52.4169 22.5987H51.8419V22.8546H52.4169V22.5987ZM51.9687 22.7516L53.0632 17.3018L52.8096 17.2519L51.715 22.7017L51.9687 22.7516ZM54.0955 20.7967L53.4998 17.7393L53.2459 17.7878L53.8416 20.8451L54.0955 20.7967ZM53.2459 17.739L52.6432 20.7964L52.8971 20.8455L53.4998 17.7881L53.2459 17.739ZM52.7701 20.9489H53.9686V20.6929H52.7701V20.9489ZM57.4895 19.7652V19.6373H57.3602V19.7652H57.4895ZM57.4895 19.7721H57.3602V19.9001H57.4895V19.7721ZM55.5568 22.7266H55.4274V22.8546H55.5568V22.7266ZM55.5568 16.8038V16.6759H55.4274V16.8038H55.5568ZM56.104 19.4979H55.9747V19.6259H56.104V19.4979ZM56.104 17.3385V17.2106H55.9747V17.3385H56.104ZM56.104 22.1919H55.9747V22.3199H56.104V22.1919ZM56.104 20.0326V19.9046H55.9747V20.0326H56.104ZM57.1431 16.9319C57.4293 16.9319 57.6459 17.0162 57.8068 17.1754L57.9897 16.9944C57.7719 16.7789 57.4851 16.6759 57.1431 16.6759V16.9319ZM57.8068 17.1754C57.9677 17.3346 58.053 17.549 58.053 17.8321H58.3116C58.3116 17.4938 58.2075 17.2099 57.9897 16.9944L57.8068 17.1754ZM58.053 17.8321V19.0866H58.3116V17.8321H58.053ZM58.053 19.0866C58.053 19.2649 57.9999 19.3945 57.9038 19.4897L58.0867 19.6706C58.2399 19.519 58.3116 19.3196 58.3116 19.0866H58.053ZM57.9038 19.4897C57.8076 19.5848 57.6765 19.6373 57.4965 19.6373V19.8933C57.732 19.8933 57.9334 19.8223 58.0867 19.6706L57.9038 19.4897ZM57.4965 19.6373H57.4895V19.8933H57.4965V19.6373ZM57.3602 19.7652V19.7721H57.6188V19.7652H57.3602ZM57.4895 19.9001H57.4965V19.6441H57.4895V19.9001ZM57.4965 19.9001C57.6765 19.9001 57.8076 19.9525 57.9038 20.0477L58.0867 19.8667C57.9334 19.715 57.732 19.6441 57.4965 19.6441V19.9001ZM57.9038 20.0477C57.9999 20.1428 58.053 20.2725 58.053 20.4507H58.3116C58.3116 20.2177 58.2399 20.0183 58.0867 19.8667L57.9038 20.0477ZM58.053 20.4507V21.6984H58.3116V20.4507H58.053ZM58.053 21.6984C58.053 21.9815 57.9677 22.1958 57.8068 22.3551L57.9897 22.5361C58.2075 22.3206 58.3116 22.0368 58.3116 21.6984H58.053ZM57.8068 22.3551C57.6459 22.5143 57.4293 22.5987 57.1431 22.5987V22.8546C57.4851 22.8546 57.7719 22.7516 57.9897 22.5361L57.8068 22.3551ZM57.1431 22.5987H55.5568V22.8546H57.1431V22.5987ZM55.6861 22.7266V16.8038H55.4274V22.7266H55.6861ZM55.5568 16.9319H57.1431V16.6759H55.5568V16.9319ZM56.104 19.6259H57.1501V19.37H56.104V19.6259ZM57.1501 19.6259C57.3251 19.6259 57.4783 19.5735 57.5948 19.4581L57.4119 19.2772C57.353 19.3355 57.2706 19.37 57.1501 19.37V19.6259ZM57.5948 19.4581C57.7114 19.3428 57.7643 19.1913 57.7643 19.0181H57.5057C57.5057 19.1373 57.4709 19.2188 57.4119 19.2772L57.5948 19.4581ZM57.7643 19.0181V17.8184H57.5057V19.0181H57.7643ZM57.7643 17.8184C57.7643 17.6452 57.7114 17.4936 57.5948 17.3783L57.4119 17.5593C57.4709 17.6176 57.5057 17.6992 57.5057 17.8184H57.7643ZM57.5948 17.3783C57.4783 17.263 57.3251 17.2106 57.1501 17.2106V17.4666C57.2706 17.4666 57.353 17.5009 57.4119 17.5593L57.5948 17.3783ZM57.1501 17.2106H56.104V17.4666H57.1501V17.2106ZM55.9747 17.3385V19.4979H56.2334V17.3385H55.9747ZM56.104 22.3199H57.1501V22.064H56.104V22.3199ZM57.1501 22.3199C57.3251 22.3199 57.4783 22.2675 57.5948 22.1522L57.4119 21.9712C57.353 22.0295 57.2706 22.064 57.1501 22.064V22.3199ZM57.5948 22.1522C57.7114 22.0368 57.7643 21.8853 57.7643 21.7121H57.5057C57.5057 21.8314 57.4709 21.9129 57.4119 21.9712L57.5948 22.1522ZM57.7643 21.7121V20.5125H57.5057V21.7121H57.7643ZM57.7643 20.5125C57.7643 20.3392 57.7114 20.1877 57.5948 20.0723L57.4119 20.2533C57.4709 20.3116 57.5057 20.3932 57.5057 20.5125H57.7643ZM57.5948 20.0723C57.4783 19.957 57.3251 19.9046 57.1501 19.9046V20.1606C57.2706 20.1606 57.353 20.195 57.4119 20.2533L57.5948 20.0723ZM57.1501 19.9046H56.104V20.1606H57.1501V19.9046ZM55.9747 20.0326V22.1919H56.2334V20.0326H55.9747ZM58.6667 22.7266L58.5507 22.67L58.4586 22.8546H58.6667V22.7266ZM58.9368 22.1851V22.0571H58.8564L58.8209 22.1285L58.9368 22.1851ZM61.8048 16.8038H61.9341V16.6759H61.8048V16.8038ZM61.8048 22.7266V22.8546H61.9341V22.7266H61.8048ZM61.2644 22.7266H61.1351V22.8546H61.2644V22.7266ZM61.2644 17.3385H61.3937V17.2106H61.2644V17.3385ZM58.7826 22.7833L59.0527 22.2417L58.8209 22.1285L58.5507 22.67L58.7826 22.7833ZM58.9368 22.3131H59.1446V22.0571H58.9368V22.3131ZM59.1446 22.3131C59.2108 22.3131 59.2841 22.2967 59.34 22.2413C59.3959 22.186 59.4125 22.1134 59.4125 22.048H59.1539C59.1539 22.0606 59.1522 22.0664 59.1518 22.0675C59.1517 22.0679 59.1519 22.0672 59.1528 22.0657C59.1537 22.0642 59.1551 22.0622 59.1571 22.0603C59.159 22.0584 59.1609 22.057 59.1625 22.0561C59.164 22.0552 59.1648 22.055 59.1644 22.0551C59.1632 22.0555 59.1573 22.0571 59.1446 22.0571V22.3131ZM59.4125 22.048V17.8321H59.1539V22.048H59.4125ZM59.4125 17.8321C59.4125 17.549 59.4977 17.3346 59.6586 17.1754L59.4757 16.9944C59.258 17.2099 59.1539 17.4938 59.1539 17.8321H59.4125ZM59.6586 17.1754C59.8196 17.0162 60.0361 16.9319 60.3223 16.9319V16.6759C59.9803 16.6759 59.6935 16.7789 59.4757 16.9944L59.6586 17.1754ZM60.3223 16.9319H61.8048V16.6759H60.3223V16.9319ZM61.6754 16.8038V22.7266H61.9341V16.8038H61.6754ZM61.8048 22.5987H61.2644V22.8546H61.8048V22.5987ZM61.3937 22.7266V17.3385H61.1351V22.7266H61.3937ZM61.2644 17.2106H60.3084V17.4666H61.2644V17.2106ZM60.3084 17.2106C60.1334 17.2106 59.9802 17.263 59.8637 17.3783L60.0466 17.5593C60.1055 17.5009 60.1879 17.4666 60.3084 17.4666V17.2106ZM59.8637 17.3783C59.7471 17.4936 59.6942 17.6452 59.6942 17.8184H59.9528C59.9528 17.6992 59.9876 17.6176 60.0466 17.5593L59.8637 17.3783ZM59.6942 17.8184V22.1097H59.9528V17.8184H59.6942ZM59.6942 22.1097C59.6942 22.269 59.6462 22.3853 59.5588 22.4717L59.7417 22.6526C59.8854 22.5105 59.9528 22.3251 59.9528 22.1097H59.6942ZM59.5588 22.4717C59.4772 22.5524 59.3627 22.5987 59.2001 22.5987V22.8546C59.416 22.8546 59.6018 22.7912 59.7417 22.6526L59.5588 22.4717ZM59.2001 22.5987H58.6667V22.8546H59.2001V22.5987ZM62.7084 16.8038V16.6759H62.5791V16.8038H62.7084ZM65.1264 16.8038H65.2556V16.6759H65.1264V16.8038ZM65.1264 17.3385V17.4666H65.2556V17.3385H65.1264ZM63.2557 17.3385V17.2106H63.1264V17.3385H63.2557ZM63.2557 19.4979H63.1264V19.6259H63.2557V19.4979ZM64.5581 19.4979H64.6873V19.37H64.5581V19.4979ZM63.2557 20.0326V19.9046H63.1264V20.0326H63.2557ZM63.2557 22.1919H63.1264V22.3199H63.2557V22.1919ZM65.1264 22.1919H65.2556V22.064H65.1264V22.1919ZM65.1264 22.7266V22.8546H65.2556V22.7266H65.1264ZM62.7084 22.7266H62.5791V22.8546H62.7084V22.7266ZM62.7084 16.9319H65.1264V16.6759H62.7084V16.9319ZM64.9966 16.8038V17.3385H65.2556V16.8038H64.9966ZM65.1264 17.2106H63.2557V17.4666H65.1264V17.2106ZM63.1264 17.3385V19.4979H63.385V17.3385H63.1264ZM63.2557 19.6259H64.5581V19.37H63.2557V19.6259ZM64.4289 19.4979V19.5528H64.6873V19.4979H64.4289ZM64.4289 19.5528C64.4289 19.672 64.3939 19.7535 64.3348 19.8118L64.518 19.9928C64.6345 19.8775 64.6873 19.726 64.6873 19.5528H64.4289ZM64.3348 19.8118C64.2762 19.8702 64.1935 19.9046 64.0732 19.9046V20.1606C64.2482 20.1606 64.4016 20.1082 64.518 19.9928L64.3348 19.8118ZM64.0732 19.9046H63.2557V20.1606H64.0732V19.9046ZM63.1264 20.0326V22.1919H63.385V20.0326H63.1264ZM63.2557 22.3199H65.1264V22.064H63.2557V22.3199ZM64.9966 22.1919V22.7266H65.2556V22.1919H64.9966ZM65.1264 22.5987H62.7084V22.8546H65.1264V22.5987ZM62.8378 22.7266V16.8038H62.5791V22.7266H62.8378ZM66.5633 16.8038H66.6931V16.6759H66.5633V16.8038ZM66.5633 19.4979H66.4341V19.6259H66.5633V19.4979ZM68.0944 19.4979V19.6259H68.2236V19.4979H68.0944ZM68.0944 16.8038V16.6759H67.9652V16.8038H68.0944ZM68.6417 16.8038H68.7708V16.6759H68.6417V16.8038ZM68.6417 22.7266V22.8546H68.7708V22.7266H68.6417ZM68.0944 22.7266H67.9652V22.8546H68.0944V22.7266ZM68.0944 20.0326H68.2236V19.9046H68.0944V20.0326ZM66.5633 20.0326V19.9046H66.4341V20.0326H66.5633ZM66.5633 22.7266V22.8546H66.6931V22.7266H66.5633ZM66.0167 22.7266H65.8868V22.8546H66.0167V22.7266ZM66.0167 16.8038V16.6759H65.8868V16.8038H66.0167ZM66.4341 16.8038V19.4979H66.6931V16.8038H66.4341ZM66.5633 19.6259H68.0944V19.37H66.5633V19.6259ZM68.2236 19.4979V16.8038H67.9652V19.4979H68.2236ZM68.0944 16.9319H68.6417V16.6759H68.0944V16.9319ZM68.5125 16.8038V22.7266H68.7708V16.8038H68.5125ZM68.6417 22.5987H68.0944V22.8546H68.6417V22.5987ZM68.2236 22.7266V20.0326H67.9652V22.7266H68.2236ZM68.0944 19.9046H66.5633V20.1606H68.0944V19.9046ZM66.4341 20.0326V22.7266H66.6931V20.0326H66.4341ZM66.5633 22.5987H66.0167V22.8546H66.5633V22.5987ZM66.1458 22.7266V16.8038H65.8868V22.7266H66.1458ZM66.0167 16.9319H66.5633V16.6759H66.0167V16.9319ZM69.5434 22.7266H69.4142V22.8546H69.5434V22.7266ZM69.5434 16.8038V16.6759H69.4142V16.8038H69.5434ZM70.0907 16.8038H70.2198V16.6759H70.0907V16.8038ZM70.0907 21.4173H69.9615L70.2122 21.4605L70.0907 21.4173ZM71.6218 17.1877L71.7433 17.2309L71.7439 17.2302V17.2296L71.6218 17.1877ZM72.3765 16.8038H72.5063V16.6759H72.3765V16.8038ZM72.3765 22.7266V22.8546H72.5063V22.7266H72.3765ZM71.8292 22.7266H71.7V22.8546H71.8292V22.7266ZM71.8292 18.1132H71.959L71.7077 18.07L71.8292 18.1132ZM70.2988 22.3427L70.1766 22.2996V22.3002V22.3009L70.2988 22.3427ZM69.6726 22.7266V16.8038H69.4142V22.7266H69.6726ZM69.5434 16.9319H70.0907V16.6759H69.5434V16.9319ZM69.9615 16.8038V21.4173H70.2198V16.8038H69.9615ZM70.2122 21.4605L71.7433 17.2309L71.5002 17.1446L69.9691 21.3742L70.2122 21.4605ZM71.7439 17.2296C71.7764 17.1358 71.8318 17.0649 71.9094 17.0124L71.7637 16.8009C71.6383 16.8855 71.5498 17.002 71.4996 17.1459L71.7439 17.2296ZM71.9094 17.0124C71.9889 16.9586 72.0768 16.9319 72.176 16.9319V16.6759C72.0258 16.6759 71.8871 16.7177 71.7637 16.8009L71.9094 17.0124ZM72.176 16.9319H72.3765V16.6759H72.176V16.9319ZM72.2473 16.8038V22.7266H72.5063V16.8038H72.2473ZM72.3765 22.5987H71.8292V22.8546H72.3765V22.5987ZM71.959 22.7266V18.1132H71.7V22.7266H71.959ZM71.7077 18.07L70.1766 22.2996L70.4203 22.3859L71.9514 18.1563L71.7077 18.07ZM70.1766 22.3009C70.1435 22.3946 70.0888 22.4655 70.0111 22.5181L70.1568 22.7295C70.2822 22.645 70.3707 22.5285 70.4209 22.3846L70.1766 22.3009ZM70.0111 22.5181C69.9309 22.5719 69.8438 22.5987 69.7445 22.5987V22.8546C69.8947 22.8546 70.0334 22.8128 70.1568 22.7295L70.0111 22.5181ZM69.7445 22.5987H69.5434V22.8546H69.7445V22.5987ZM73.1433 22.7609L73.0218 22.7167L72.9575 22.8889H73.1433V22.7609ZM74.1615 20.0257L74.283 20.07L74.3384 19.9207L74.1793 19.899L74.1615 20.0257ZM73.5175 19.7036L73.4188 19.7865L73.4195 19.7878L73.4208 19.789L73.5175 19.7036ZM75.907 16.8038H76.0362V16.6759H75.907V16.8038ZM75.907 22.7266V22.8546H76.0362V22.7266H75.907ZM75.3598 22.7266H75.2306V22.8546H75.3598V22.7266ZM75.3598 20.0326H75.4889V19.9046H75.3598V20.0326ZM74.7431 20.0326V19.9046H74.6521L74.6216 19.9894L74.7431 20.0326ZM73.919 22.3085L74.0406 22.3525V22.3521V22.3517L73.919 22.3085ZM73.6626 22.6375L73.5888 22.5323L73.5881 22.533L73.5868 22.5337L73.6626 22.6375ZM75.3598 19.4979V19.6259H75.4889V19.4979H75.3598ZM75.3598 17.3385H75.4889V17.2106H75.3598V17.3385ZM73.2642 22.8052L74.283 20.07L74.0399 19.9815L73.0218 22.7167L73.2642 22.8052ZM74.1793 19.899C73.9375 19.866 73.7523 19.7711 73.6136 19.6181L73.4208 19.789C73.6053 19.9924 73.8497 20.1123 74.1437 20.1525L74.1793 19.899ZM73.6155 19.6206C73.4818 19.465 73.4112 19.2631 73.4112 19.0043H73.1522C73.1522 19.3123 73.2381 19.5764 73.4188 19.7865L73.6155 19.6206ZM73.4112 19.0043V17.8321H73.1522V19.0043H73.4112ZM73.4112 17.8321C73.4112 17.549 73.4965 17.3346 73.6568 17.1754L73.4742 16.9944C73.2566 17.2099 73.1522 17.4938 73.1522 17.8321H73.4112ZM73.6568 17.1754C73.8178 17.0162 74.0348 16.9319 74.3206 16.9319V16.6759C73.9788 16.6759 73.6918 16.7789 73.4742 16.9944L73.6568 17.1754ZM74.3206 16.9319H75.907V16.6759H74.3206V16.9319ZM75.7778 16.8038V22.7266H76.0362V16.8038H75.7778ZM75.907 22.5987H75.3598V22.8546H75.907V22.5987ZM75.4889 22.7266V20.0326H75.2306V22.7266H75.4889ZM75.3598 19.9046H74.7431V20.1606H75.3598V19.9046ZM74.6216 19.9894L73.7975 22.2653L74.0406 22.3517L74.8653 20.0757L74.6216 19.9894ZM73.7975 22.2644C73.7561 22.377 73.6868 22.4652 73.5888 22.5323L73.7364 22.7427C73.8783 22.6453 73.9808 22.5142 74.0406 22.3525L73.7975 22.2644ZM73.5868 22.5337C73.4946 22.5996 73.3896 22.6329 73.268 22.6329V22.8889C73.4418 22.8889 73.5996 22.84 73.7383 22.7414L73.5868 22.5337ZM73.268 22.6329H73.1433V22.8889H73.268V22.6329ZM74.3136 19.6259H75.3598V19.37H74.3136V19.6259ZM75.4889 19.4979V17.3385H75.2306V19.4979H75.4889ZM75.3598 17.2106H74.3136V17.4666H75.3598V17.2106ZM74.3136 17.2106C74.1386 17.2106 73.9858 17.263 73.8694 17.3783L74.052 17.5593C74.1112 17.5009 74.1933 17.4666 74.3136 17.4666V17.2106ZM73.8694 17.3783C73.7523 17.4936 73.6995 17.6452 73.6995 17.8184H73.9585C73.9585 17.6992 73.9928 17.6176 74.052 17.5593L73.8694 17.3783ZM73.6995 17.8184V19.0181H73.9585V17.8184H73.6995ZM73.6995 19.0181C73.6995 19.1913 73.7523 19.3428 73.8694 19.4581L74.052 19.2772C73.9928 19.2188 73.9585 19.1373 73.9585 19.0181H73.6995ZM73.8694 19.4581C73.9858 19.5735 74.1386 19.6259 74.3136 19.6259V19.37C74.1933 19.37 74.1112 19.3355 74.052 19.2772L73.8694 19.4581ZM41.8461 31.9206H41.7168V32.0485H41.8461V31.9206ZM41.8461 25.9978V25.8698H41.7168V25.9978H41.8461ZM42.3934 25.9978H42.5227V25.8698H42.3934V25.9978ZM42.3934 30.6113H42.2641L42.5151 30.6545L42.3934 30.6113ZM43.9243 26.3817L44.0461 26.4249L44.0463 26.4242L44.0465 26.4235L43.9243 26.3817ZM44.6794 25.9978H44.8088V25.8698H44.6794V25.9978ZM44.6794 31.9206V32.0485H44.8088V31.9206H44.6794ZM44.1321 31.9206H44.0028V32.0485H44.1321V31.9206ZM44.1321 27.3071H44.2615L44.0104 27.264L44.1321 27.3071ZM42.6012 31.5367L42.4795 31.4936L42.4792 31.4942L42.479 31.4948L42.6012 31.5367ZM41.9754 31.9206V25.9978H41.7168V31.9206H41.9754ZM41.8461 26.1258H42.3934V25.8698H41.8461V26.1258ZM42.2641 25.9978V30.6113H42.5227V25.9978H42.2641ZM42.5151 30.6545L44.0461 26.4249L43.8026 26.3385L42.2716 30.5681L42.5151 30.6545ZM44.0465 26.4235C44.0794 26.3298 44.1341 26.2589 44.2119 26.2064L44.0662 25.9949C43.9408 26.0795 43.8524 26.196 43.8021 26.3399L44.0465 26.4235ZM44.2119 26.2064C44.2917 26.1525 44.3794 26.1258 44.4785 26.1258V25.8698C44.3282 25.8698 44.1896 25.9116 44.0662 25.9949L44.2119 26.2064ZM44.4785 26.1258H44.6794V25.8698H44.4785V26.1258ZM44.5501 25.9978V31.9206H44.8088V25.9978H44.5501ZM44.6794 31.7926H44.1321V32.0485H44.6794V31.7926ZM44.2615 31.9206V27.3071H44.0028V31.9206H44.2615ZM44.0104 27.264L42.4795 31.4936L42.7229 31.5798L44.2539 27.3503L44.0104 27.264ZM42.479 31.4948C42.4462 31.5886 42.3914 31.6595 42.3136 31.712L42.4593 31.9235C42.5847 31.8389 42.6731 31.7225 42.7234 31.5786L42.479 31.4948ZM42.3136 31.712C42.2338 31.7659 42.1461 31.7926 42.047 31.7926V32.0485C42.1973 32.0485 42.3359 32.0068 42.4593 31.9235L42.3136 31.712ZM42.047 31.7926H41.8461V32.0485H42.047V31.7926ZM47.5724 29.2266V29.0986H47.443V29.2266H47.5724ZM47.5724 31.9206V32.0485H47.7017V31.9206H47.5724ZM47.0251 31.9206H46.8958V32.0485H47.0251V31.9206ZM47.0251 25.9978V25.8698H46.8958V25.9978H47.0251ZM47.5724 28.6919H47.443V28.8198H47.5724V28.6919ZM47.5724 26.5325V26.4045H47.443V26.5325H47.5724ZM48.6114 26.1258C48.8976 26.1258 49.1141 26.2101 49.2751 26.3694L49.458 26.1884C49.2402 25.9728 48.9534 25.8698 48.6114 25.8698V26.1258ZM49.2751 26.3694C49.436 26.5286 49.5212 26.7429 49.5212 27.0261H49.7798C49.7798 26.6877 49.6757 26.4039 49.458 26.1884L49.2751 26.3694ZM49.5212 27.0261V28.1983H49.7798V27.0261H49.5212ZM49.5212 28.1983C49.5212 28.4814 49.436 28.6958 49.2751 28.855L49.458 29.036C49.6757 28.8205 49.7798 28.5367 49.7798 28.1983H49.5212ZM49.2751 28.855C49.1141 29.0142 48.8976 29.0986 48.6114 29.0986V29.3545C48.9534 29.3545 49.2402 29.2515 49.458 29.036L49.2751 28.855ZM48.6114 29.0986H47.5724V29.3545H48.6114V29.0986ZM47.443 29.2266V31.9206H47.7017V29.2266H47.443ZM47.5724 31.7926H47.0251V32.0485H47.5724V31.7926ZM47.1544 31.9206V25.9978H46.8958V31.9206H47.1544ZM47.0251 26.1258H48.6114V25.8698H47.0251V26.1258ZM47.5724 28.8198H48.6184V28.5639H47.5724V28.8198ZM48.6184 28.8198C48.7934 28.8198 48.9466 28.7674 49.0631 28.6521L48.8802 28.4711C48.8213 28.5295 48.7389 28.5639 48.6184 28.5639V28.8198ZM49.0631 28.6521C49.1797 28.5368 49.2326 28.3853 49.2326 28.212H48.974C48.974 28.3312 48.9391 28.4128 48.8802 28.4711L49.0631 28.6521ZM49.2326 28.212V27.0123H48.974V28.212H49.2326ZM49.2326 27.0123C49.2326 26.8392 49.1797 26.6876 49.0631 26.5723L48.8802 26.7533C48.9391 26.8116 48.974 26.8931 48.974 27.0123H49.2326ZM49.0631 26.5723C48.9466 26.4569 48.7934 26.4045 48.6184 26.4045V26.6605C48.7389 26.6605 48.8213 26.6949 48.8802 26.7533L49.0631 26.5723ZM48.6184 26.4045H47.5724V26.6605H48.6184V26.4045ZM47.443 26.5325V28.6919H47.7017V26.5325H47.443ZM50.9637 26.4708L51.0906 26.4958L51.0907 26.4951L50.9637 26.4708ZM51.7396 25.9978L51.8664 25.9728L51.8457 25.8698H51.7396V25.9978ZM52.9311 31.9206V32.0485H53.0887L53.0579 31.8956L52.9311 31.9206ZM52.3492 31.9206L52.2223 31.9452L52.2428 32.0485H52.3492V31.9206ZM52.079 30.5564L52.2059 30.5319L52.1855 30.4285H52.079V30.5564ZM50.7143 30.5564V30.4285H50.6079L50.5875 30.5319L50.7143 30.5564ZM50.4441 31.9206V32.0485H50.5506L50.5711 31.9452L50.4441 31.9206ZM49.8692 31.9206L49.7424 31.8956L49.7116 32.0485H49.8692V31.9206ZM51.9959 30.0149V30.1429H52.1525L52.1229 29.9907L51.9959 30.0149ZM51.4002 26.9575L51.5271 26.9333L51.2732 26.933L51.4002 26.9575ZM50.7975 30.0149L50.6706 29.9904L50.6405 30.1429H50.7975V30.0149ZM51.0907 26.4951C51.113 26.3808 51.1653 26.2935 51.247 26.2267L51.0822 26.0294C50.9514 26.1363 50.8698 26.2775 50.8368 26.4465L51.0907 26.4951ZM51.247 26.2267C51.3282 26.1603 51.4255 26.1258 51.5456 26.1258V25.8698C51.3701 25.8698 51.2134 25.9222 51.0822 26.0294L51.247 26.2267ZM51.5456 26.1258H51.7396V25.8698H51.5456V26.1258ZM51.6128 26.0228L52.8043 31.9456L53.0579 31.8956L51.8664 25.9728L51.6128 26.0228ZM52.9311 31.7926H52.3492V32.0485H52.9311V31.7926ZM52.4761 31.896L52.2059 30.5319L51.9521 30.581L52.2223 31.9452L52.4761 31.896ZM52.079 30.4285H50.7143V30.6844H52.079V30.4285ZM50.5875 30.5319L50.3173 31.896L50.5711 31.9452L50.8412 30.581L50.5875 30.5319ZM50.4441 31.7926H49.8692V32.0485H50.4441V31.7926ZM49.996 31.9455L51.0906 26.4958L50.8369 26.4458L49.7424 31.8956L49.996 31.9455ZM52.1229 29.9907L51.5271 26.9333L51.2731 26.9817L51.8689 30.0391L52.1229 29.9907ZM51.2732 26.933L50.6706 29.9904L50.9244 30.0394L51.5271 26.982L51.2732 26.933ZM50.7975 30.1429H51.9959V29.8869H50.7975V30.1429ZM55.5169 28.9592V28.8312H55.3875V28.9592H55.5169ZM55.5169 28.966H55.3875V29.094H55.5169V28.966ZM53.5841 30.7004L53.5257 30.5862L53.4548 30.6218V30.7004H53.5841ZM54.1314 30.4262H54.2607V30.2179L54.0729 30.312L54.1314 30.4262ZM54.4985 29.2266H54.3692V29.3545H54.4985V29.2266ZM54.4985 28.6919V28.5639H54.3692V28.6919H54.4985ZM54.1314 27.4922L54.1898 27.6064L54.2607 27.5708V27.4922H54.1314ZM53.5841 27.7664H53.4548V27.9747L53.6425 27.8806L53.5841 27.7664ZM54.6232 26.0915H55.1705V25.8356H54.6232V26.0915ZM55.1705 26.0915C55.4566 26.0915 55.6732 26.1758 55.8341 26.3351L56.017 26.1541C55.7992 25.9386 55.5124 25.8356 55.1705 25.8356V26.0915ZM55.8341 26.3351C55.995 26.4943 56.0803 26.7087 56.0803 26.9918H56.3389C56.3389 26.6534 56.2348 26.3696 56.017 26.1541L55.8341 26.3351ZM56.0803 26.9918V28.2805H56.3389V26.9918H56.0803ZM56.0803 28.2805C56.0803 28.4588 56.0272 28.5885 55.9311 28.6836L56.114 28.8646C56.2673 28.713 56.3389 28.5136 56.3389 28.2805H56.0803ZM55.9311 28.6836C55.835 28.7788 55.7039 28.8312 55.5238 28.8312V29.0872C55.7593 29.0872 55.9607 29.0162 56.114 28.8646L55.9311 28.6836ZM55.5238 28.8312H55.5169V29.0872H55.5238V28.8312ZM55.3875 28.9592V28.966H55.6462V28.9592H55.3875ZM55.5169 29.094H55.5238V28.8381H55.5169V29.094ZM55.5238 29.094C55.7039 29.094 55.835 29.1465 55.9311 29.2416L56.114 29.0606C55.9607 28.909 55.7593 28.8381 55.5238 28.8381V29.094ZM55.9311 29.2416C56.0272 29.3368 56.0803 29.4665 56.0803 29.6447H56.3389C56.3389 29.4116 56.2673 29.2123 56.114 29.0606L55.9311 29.2416ZM56.0803 29.6447V30.9266H56.3389V29.6447H56.0803ZM56.0803 30.9266C56.0803 31.2098 55.995 31.4241 55.8341 31.5833L56.017 31.7643C56.2348 31.5488 56.3389 31.265 56.3389 30.9266H56.0803ZM55.8341 31.5833C55.6732 31.7426 55.4566 31.8269 55.1705 31.8269V32.0829C55.5124 32.0829 55.7992 31.9798 56.017 31.7643L55.8341 31.5833ZM55.1705 31.8269H54.6232V32.0829H55.1705V31.8269ZM54.6232 31.8269C54.3371 31.8269 54.1205 31.7426 53.9595 31.5833L53.7767 31.7643C53.9945 31.9798 54.2813 32.0829 54.6232 32.0829V31.8269ZM53.9595 31.5833C53.7987 31.4241 53.7135 31.2098 53.7135 30.9266H53.4548C53.4548 31.265 53.5589 31.5488 53.7767 31.7643L53.9595 31.5833ZM53.7135 30.9266V30.7004H53.4548V30.9266H53.7135ZM53.6425 30.8145L54.1898 30.5404L54.0729 30.312L53.5257 30.5862L53.6425 30.8145ZM54.0021 30.4262V30.9403H54.2607V30.4262H54.0021ZM54.0021 30.9403C54.0021 31.1135 54.055 31.2651 54.1715 31.3804L54.3544 31.1994C54.2955 31.1411 54.2607 31.0596 54.2607 30.9403H54.0021ZM54.1715 31.3804C54.2881 31.4958 54.4412 31.5482 54.6163 31.5482V31.2922C54.4957 31.2922 54.4134 31.2577 54.3544 31.1994L54.1715 31.3804ZM54.6163 31.5482H55.1774V31.2922H54.6163V31.5482ZM55.1774 31.5482C55.3525 31.5482 55.5056 31.4958 55.6222 31.3804L55.4393 31.1994C55.3803 31.2577 55.2979 31.2922 55.1774 31.2922V31.5482ZM55.6222 31.3804C55.7387 31.2651 55.7916 31.1135 55.7916 30.9403H55.533C55.533 31.0596 55.4982 31.1411 55.4393 31.1994L55.6222 31.3804ZM55.7916 30.9403V29.7064H55.533V30.9403H55.7916ZM55.7916 29.7064C55.7916 29.5332 55.7387 29.3817 55.6222 29.2663L55.4393 29.4473C55.4982 29.5056 55.533 29.5871 55.533 29.7064H55.7916ZM55.6222 29.2663C55.5056 29.151 55.3525 29.0986 55.1774 29.0986V29.3545C55.2979 29.3545 55.3803 29.389 55.4393 29.4473L55.6222 29.2663ZM55.1774 29.0986H54.4985V29.3545H55.1774V29.0986ZM54.6279 29.2266V28.6919H54.3692V29.2266H54.6279ZM54.4985 28.8198H55.1774V28.5639H54.4985V28.8198ZM55.1774 28.8198C55.3525 28.8198 55.5056 28.7674 55.6222 28.6521L55.4393 28.4711C55.3803 28.5295 55.2979 28.5639 55.1774 28.5639V28.8198ZM55.6222 28.6521C55.7387 28.5368 55.7916 28.3853 55.7916 28.212H55.533C55.533 28.3312 55.4982 28.4128 55.4393 28.4711L55.6222 28.6521ZM55.7916 28.212V26.9781H55.533V28.212H55.7916ZM55.7916 26.9781C55.7916 26.8048 55.7387 26.6533 55.6222 26.538L55.4393 26.7189C55.4982 26.7773 55.533 26.8588 55.533 26.9781H55.7916ZM55.6222 26.538C55.5056 26.4227 55.3525 26.3703 55.1774 26.3703V26.6262C55.2979 26.6262 55.3803 26.6606 55.4393 26.7189L55.6222 26.538ZM55.1774 26.3703H54.6163V26.6262H55.1774V26.3703ZM54.6163 26.3703C54.4412 26.3703 54.2881 26.4227 54.1715 26.538L54.3544 26.7189C54.4134 26.6606 54.4957 26.6262 54.6163 26.6262V26.3703ZM54.1715 26.538C54.055 26.6533 54.0021 26.8048 54.0021 26.9781H54.2607C54.2607 26.8588 54.2955 26.7773 54.3544 26.7189L54.1715 26.538ZM54.0021 26.9781V27.4922H54.2607V26.9781H54.0021ZM54.0729 27.3781L53.5257 27.6523L53.6425 27.8806L54.1898 27.6064L54.0729 27.3781ZM53.7135 27.7664V26.9918H53.4548V27.7664H53.7135ZM53.7135 26.9918C53.7135 26.7087 53.7987 26.4943 53.9595 26.3351L53.7767 26.1541C53.5589 26.3696 53.4548 26.6534 53.4548 26.9918H53.7135ZM53.9595 26.3351C54.1205 26.1758 54.3371 26.0915 54.6232 26.0915V25.8356C54.2813 25.8356 53.9945 25.9386 53.7767 26.1541L53.9595 26.3351ZM59.0358 28.9592V28.8312H58.9065V28.9592H59.0358ZM59.0358 28.966H58.9065V29.094H59.0358V28.966ZM57.1031 31.9206H56.9738V32.0485H57.1031V31.9206ZM57.1031 25.9978V25.8698H56.9738V25.9978H57.1031ZM57.6504 28.6919H57.521V28.8198H57.6504V28.6919ZM57.6504 26.5325V26.4045H57.521V26.5325H57.6504ZM57.6504 31.3859H57.521V31.5138H57.6504V31.3859ZM57.6504 29.2266V29.0986H57.521V29.2266H57.6504ZM58.6894 26.1258C58.9756 26.1258 59.1922 26.2101 59.3531 26.3694L59.536 26.1884C59.3182 25.9728 59.0314 25.8698 58.6894 25.8698V26.1258ZM59.3531 26.3694C59.514 26.5286 59.5993 26.7429 59.5993 27.0261H59.8579C59.8579 26.6877 59.7538 26.4039 59.536 26.1884L59.3531 26.3694ZM59.5993 27.0261V28.2805H59.8579V27.0261H59.5993ZM59.5993 28.2805C59.5993 28.4588 59.5462 28.5885 59.4501 28.6836L59.633 28.8646C59.7862 28.713 59.8579 28.5136 59.8579 28.2805H59.5993ZM59.4501 28.6836C59.3539 28.7788 59.2229 28.8312 59.0428 28.8312V29.0872C59.2783 29.0872 59.4797 29.0162 59.633 28.8646L59.4501 28.6836ZM59.0428 28.8312H59.0358V29.0872H59.0428V28.8312ZM58.9065 28.9592V28.966H59.1652V28.9592H58.9065ZM59.0358 29.094H59.0428V28.8381H59.0358V29.094ZM59.0428 29.094C59.2229 29.094 59.3539 29.1465 59.4501 29.2416L59.633 29.0606C59.4797 28.909 59.2783 28.8381 59.0428 28.8381V29.094ZM59.4501 29.2416C59.5462 29.3368 59.5993 29.4665 59.5993 29.6447H59.8579C59.8579 29.4116 59.7862 29.2123 59.633 29.0606L59.4501 29.2416ZM59.5993 29.6447V30.8923H59.8579V29.6447H59.5993ZM59.5993 30.8923C59.5993 31.1755 59.514 31.3898 59.3531 31.549L59.536 31.73C59.7538 31.5145 59.8579 31.2307 59.8579 30.8923H59.5993ZM59.3531 31.549C59.1922 31.7083 58.9756 31.7926 58.6894 31.7926V32.0485C59.0314 32.0485 59.3182 31.9455 59.536 31.73L59.3531 31.549ZM58.6894 31.7926H57.1031V32.0485H58.6894V31.7926ZM57.2324 31.9206V25.9978H56.9738V31.9206H57.2324ZM57.1031 26.1258H58.6894V25.8698H57.1031V26.1258ZM57.6504 28.8198H58.6964V28.5639H57.6504V28.8198ZM58.6964 28.8198C58.8714 28.8198 59.0246 28.7674 59.1411 28.6521L58.9582 28.4711C58.8993 28.5295 58.8169 28.5639 58.6964 28.5639V28.8198ZM59.1411 28.6521C59.2577 28.5368 59.3107 28.3853 59.3107 28.212H59.052C59.052 28.3312 59.0172 28.4128 58.9582 28.4711L59.1411 28.6521ZM59.3107 28.212V27.0123H59.052V28.212H59.3107ZM59.3107 27.0123C59.3107 26.8392 59.2577 26.6876 59.1411 26.5723L58.9582 26.7533C59.0172 26.8116 59.052 26.8931 59.052 27.0123H59.3107ZM59.1411 26.5723C59.0246 26.4569 58.8714 26.4045 58.6964 26.4045V26.6605C58.8169 26.6605 58.8993 26.6949 58.9582 26.7533L59.1411 26.5723ZM58.6964 26.4045H57.6504V26.6605H58.6964V26.4045ZM57.521 26.5325V28.6919H57.7797V26.5325H57.521ZM57.6504 31.5138H58.6964V31.2579H57.6504V31.5138ZM58.6964 31.5138C58.8714 31.5138 59.0246 31.4615 59.1411 31.3461L58.9582 31.1652C58.8993 31.2235 58.8169 31.2579 58.6964 31.2579V31.5138ZM59.1411 31.3461C59.2577 31.2308 59.3107 31.0793 59.3107 30.906H59.052C59.052 31.0253 59.0172 31.1069 58.9582 31.1652L59.1411 31.3461ZM59.3107 30.906V29.7064H59.052V30.906H59.3107ZM59.3107 29.7064C59.3107 29.5332 59.2577 29.3817 59.1411 29.2663L58.9582 29.4473C59.0172 29.5056 59.052 29.5871 59.052 29.7064H59.3107ZM59.1411 29.2663C59.0246 29.151 58.8714 29.0986 58.6964 29.0986V29.3545C58.8169 29.3545 58.8993 29.389 58.9582 29.4473L59.1411 29.2663ZM58.6964 29.0986H57.6504V29.3545H58.6964V29.0986ZM57.521 29.2266V31.3859H57.7797V29.2266H57.521ZM60.6221 31.9206H60.4928V32.0485H60.6221V31.9206ZM60.6221 25.9978V25.8698H60.4928V25.9978H60.6221ZM61.1694 25.9978H61.2987V25.8698H61.1694V25.9978ZM61.1694 30.6113H61.04L61.2911 30.6545L61.1694 30.6113ZM62.7003 26.3817L62.8221 26.4249L62.8223 26.4242L62.8225 26.4235L62.7003 26.3817ZM63.4554 25.9978H63.5847V25.8698H63.4554V25.9978ZM63.4554 31.9206V32.0485H63.5847V31.9206H63.4554ZM62.9082 31.9206H62.7788V32.0485H62.9082V31.9206ZM62.9082 27.3071H63.0375L62.7864 27.264L62.9082 27.3071ZM61.3772 31.5367L61.2555 31.4936L61.2552 31.4942L61.2549 31.4948L61.3772 31.5367ZM60.7514 31.9206V25.9978H60.4928V31.9206H60.7514ZM60.6221 26.1258H61.1694V25.8698H60.6221V26.1258ZM61.04 25.9978V30.6113H61.2987V25.9978H61.04ZM61.2911 30.6545L62.8221 26.4249L62.5786 26.3385L61.0476 30.5681L61.2911 30.6545ZM62.8225 26.4235C62.8553 26.3298 62.9101 26.2589 62.9879 26.2064L62.8422 25.9949C62.7169 26.0795 62.6284 26.196 62.5781 26.3399L62.8225 26.4235ZM62.9879 26.2064C63.0677 26.1525 63.1554 26.1258 63.2545 26.1258V25.8698C63.1042 25.8698 62.9656 25.9116 62.8422 25.9949L62.9879 26.2064ZM63.2545 26.1258H63.4554V25.8698H63.2545V26.1258ZM63.3261 25.9978V31.9206H63.5847V25.9978H63.3261ZM63.4554 31.7926H62.9082V32.0485H63.4554V31.7926ZM63.0375 31.9206V27.3071H62.7788V31.9206H63.0375ZM62.7864 27.264L61.2555 31.4936L61.4989 31.5798L63.0299 27.3503L62.7864 27.264ZM61.2549 31.4948C61.2222 31.5886 61.1674 31.6595 61.0896 31.712L61.2353 31.9235C61.3606 31.8389 61.449 31.7225 61.4994 31.5786L61.2549 31.4948ZM61.0896 31.712C61.0098 31.7659 60.9221 31.7926 60.823 31.7926V32.0485C60.9733 32.0485 61.1119 32.0068 61.2353 31.9235L61.0896 31.712ZM60.823 31.7926H60.6221V32.0485H60.823V31.7926ZM64.1095 26.5325H63.9803V26.6605H64.1095V26.5325ZM64.1095 25.9978V25.8698H63.9803V25.9978H64.1095ZM66.8458 25.9978H66.975V25.8698H66.8458V25.9978ZM66.8458 26.5325V26.6605H66.975V26.5325H66.8458ZM65.7513 26.5325V26.4045H65.6221V26.5325H65.7513ZM65.7513 31.9206V32.0485H65.8811V31.9206H65.7513ZM65.204 31.9206H65.0748V32.0485H65.204V31.9206ZM65.204 26.5325H65.3338V26.4045H65.204V26.5325ZM64.2393 26.5325V25.9978H63.9803V26.5325H64.2393ZM64.1095 26.1258H66.8458V25.8698H64.1095V26.1258ZM66.7167 25.9978V26.5325H66.975V25.9978H66.7167ZM66.8458 26.4045H65.7513V26.6605H66.8458V26.4045ZM65.6221 26.5325V31.9206H65.8811V26.5325H65.6221ZM65.7513 31.7926H65.204V32.0485H65.7513V31.7926ZM65.3338 31.9206V26.5325H65.0748V31.9206H65.3338ZM65.204 26.4045H64.1095V26.6605H65.204V26.4045ZM67.4001 31.9206H67.2709V32.0485H67.4001V31.9206ZM67.4001 25.9978V25.8698H67.2709V25.9978H67.4001ZM67.9474 25.9978H68.0772V25.8698H67.9474V25.9978ZM67.9474 30.6113H67.8182L68.0696 30.6545L67.9474 30.6113ZM69.4785 26.3817L69.6 26.4249L69.6007 26.4242V26.4235L69.4785 26.3817ZM70.2338 25.9978H70.363V25.8698H70.2338V25.9978ZM70.2338 31.9206V32.0485H70.363V31.9206H70.2338ZM69.6866 31.9206H69.5568V32.0485H69.6866V31.9206ZM69.6866 27.3071H69.8158L69.5644 27.264L69.6866 27.3071ZM68.1555 31.5367L68.0339 31.4936L68.0333 31.4942V31.4948L68.1555 31.5367ZM67.5299 31.9206V25.9978H67.2709V31.9206H67.5299ZM67.4001 26.1258H67.9474V25.8698H67.4001V26.1258ZM67.8182 25.9978V30.6113H68.0772V25.9978H67.8182ZM68.0696 30.6545L69.6 26.4249L69.3569 26.3385L67.8258 30.5681L68.0696 30.6545ZM69.6007 26.4235C69.6338 26.3298 69.6885 26.2589 69.7661 26.2064L69.6204 25.9949C69.495 26.0795 69.4066 26.196 69.3563 26.3399L69.6007 26.4235ZM69.7661 26.2064C69.8457 26.1525 69.9335 26.1258 70.0328 26.1258V25.8698C69.8826 25.8698 69.7438 25.9116 69.6204 25.9949L69.7661 26.2064ZM70.0328 26.1258H70.2338V25.8698H70.0328V26.1258ZM70.104 25.9978V31.9206H70.363V25.9978H70.104ZM70.2338 31.7926H69.6866V32.0485H70.2338V31.7926ZM69.8158 31.9206V27.3071H69.5568V31.9206H69.8158ZM69.5644 27.264L68.0339 31.4936L68.277 31.5798L69.8081 27.3503L69.5644 27.264ZM68.0333 31.4948C68.0002 31.5886 67.9455 31.6595 67.8678 31.712L68.0136 31.9235C68.1389 31.8389 68.2274 31.7225 68.2777 31.5786L68.0333 31.4948ZM67.8678 31.712C67.7883 31.7659 67.7005 31.7926 67.6012 31.7926V32.0485C67.7514 32.0485 67.8901 32.0068 68.0136 31.9235L67.8678 31.712ZM67.6012 31.7926H67.4001V32.0485H67.6012V31.7926ZM71 31.9549L70.8785 31.9106L70.8142 32.0829H71V31.9549ZM72.0182 29.2197L72.1398 29.2639L72.1951 29.1147L72.036 29.0929L72.0182 29.2197ZM71.3742 28.8975L71.2756 28.9804L71.2768 28.9817L71.2775 28.983L71.3742 28.8975ZM73.7638 25.9978H73.8936V25.8698H73.7638V25.9978ZM73.7638 31.9206V32.0485H73.8936V31.9206H73.7638ZM73.2165 31.9206H73.0873V32.0485H73.2165V31.9206ZM73.2165 29.2266H73.3463V29.0986H73.2165V29.2266ZM72.6005 29.2266V29.0986H72.5088L72.4783 29.1834L72.6005 29.2266ZM71.7758 31.5024L71.8973 31.5465V31.5461V31.5456L71.7758 31.5024ZM71.5193 31.8315L71.4461 31.7262L71.4448 31.7269L71.4442 31.7276L71.5193 31.8315ZM73.2165 28.6919V28.8198H73.3463V28.6919H73.2165ZM73.2165 26.5325H73.3463V26.4045H73.2165V26.5325ZM71.1216 31.9991L72.1398 29.2639L71.8967 29.1754L70.8785 31.9106L71.1216 31.9991ZM72.036 29.0929C71.7948 29.06 71.609 28.965 71.4703 28.812L71.2775 28.983C71.462 29.1864 71.7064 29.3063 72.0004 29.3465L72.036 29.0929ZM71.4728 28.8146C71.3392 28.659 71.2679 28.457 71.2679 28.1983H71.0089C71.0089 28.5062 71.0948 28.7704 71.2756 28.9804L71.4728 28.8146ZM71.2679 28.1983V27.0261H71.0089V28.1983H71.2679ZM71.2679 27.0261C71.2679 26.7429 71.3532 26.5286 71.5142 26.3694L71.3309 26.1884C71.1133 26.4039 71.0089 26.6877 71.0089 27.0261H71.2679ZM71.5142 26.3694C71.6746 26.2101 71.8916 26.1258 72.1773 26.1258V25.8698C71.8356 25.8698 71.5486 25.9728 71.3309 26.1884L71.5142 26.3694ZM72.1773 26.1258H73.7638V25.8698H72.1773V26.1258ZM73.6346 25.9978V31.9206H73.8936V25.9978H73.6346ZM73.7638 31.7926H73.2165V32.0485H73.7638V31.7926ZM73.3463 31.9206V29.2266H73.0873V31.9206H73.3463ZM73.2165 29.0986H72.6005V29.3545H73.2165V29.0986ZM72.4783 29.1834L71.6542 31.4592L71.8973 31.5456L72.722 29.2697L72.4783 29.1834ZM71.6542 31.4584C71.6128 31.571 71.5435 31.6592 71.4461 31.7262L71.5931 31.9367C71.7357 31.8392 71.8375 31.7081 71.8973 31.5465L71.6542 31.4584ZM71.4442 31.7276C71.3513 31.7936 71.2463 31.8269 71.1248 31.8269V32.0829C71.2985 32.0829 71.4569 32.0339 71.595 31.9353L71.4442 31.7276ZM71.1248 31.8269H71V32.0829H71.1248V31.8269ZM72.1709 28.8198H73.2165V28.5639H72.1709V28.8198ZM73.3463 28.6919V26.5325H73.0873V28.6919H73.3463ZM73.2165 26.4045H72.1709V26.6605H73.2165V26.4045ZM72.1709 26.4045C71.9953 26.4045 71.8426 26.4569 71.7261 26.5723L71.9088 26.7533C71.9679 26.6949 72.05 26.6605 72.1709 26.6605V26.4045ZM71.7261 26.5723C71.6097 26.6876 71.5562 26.8392 71.5562 27.0123H71.8152C71.8152 26.8931 71.8496 26.8116 71.9088 26.7533L71.7261 26.5723ZM71.5562 27.0123V28.212H71.8152V27.0123H71.5562ZM71.5562 28.212C71.5562 28.3853 71.6097 28.5368 71.7261 28.6521L71.9088 28.4711C71.8496 28.4128 71.8152 28.3312 71.8152 28.212H71.5562ZM71.7261 28.6521C71.8426 28.7674 71.9953 28.8198 72.1709 28.8198V28.5639C72.05 28.5639 71.9679 28.5295 71.9088 28.4711L71.7261 28.6521ZM44.4716 37.0851L44.4132 37.1992L44.6009 37.2933V37.0851H44.4716ZM43.9243 36.8108H43.795V36.8895L43.8659 36.925L43.9243 36.8108ZM43.9243 39.7242L43.9828 39.6101L43.795 39.516V39.7242H43.9243ZM44.4716 39.9985H44.6009V39.9198L44.53 39.8843L44.4716 39.9985ZM41.9754 40.1836V36.2487H41.7168V40.1836H41.9754ZM41.9754 36.2487C41.9754 35.9656 42.0606 35.7512 42.2216 35.592L42.0387 35.411C41.8209 35.6265 41.7168 35.9103 41.7168 36.2487H41.9754ZM42.2216 35.592C42.3825 35.4327 42.5991 35.3484 42.8852 35.3484V35.0925C42.5432 35.0925 42.2564 35.1955 42.0387 35.411L42.2216 35.592ZM42.8852 35.3484H43.4325V35.0925H42.8852V35.3484ZM43.4325 35.3484C43.7186 35.3484 43.9352 35.4327 44.0961 35.592L44.279 35.411C44.0612 35.1955 43.7744 35.0925 43.4325 35.0925V35.3484ZM44.0961 35.592C44.257 35.7512 44.3422 35.9656 44.3422 36.2487H44.6009C44.6009 35.9103 44.4968 35.6265 44.279 35.411L44.0961 35.592ZM44.3422 36.2487V37.0851H44.6009V36.2487H44.3422ZM44.53 36.9709L43.9828 36.6967L43.8659 36.925L44.4132 37.1992L44.53 36.9709ZM44.0537 36.8108V36.2419H43.795V36.8108H44.0537ZM44.0537 36.2419C44.0537 36.0686 44.0007 35.9171 43.8841 35.8018L43.7012 35.9827C43.7602 36.041 43.795 36.1226 43.795 36.2419H44.0537ZM43.8841 35.8018C43.7676 35.6865 43.6144 35.6341 43.4394 35.6341V35.89C43.5599 35.89 43.6423 35.9244 43.7012 35.9827L43.8841 35.8018ZM43.4394 35.6341H42.8783V35.89H43.4394V35.6341ZM42.8783 35.6341C42.7032 35.6341 42.5501 35.6865 42.4335 35.8018L42.6164 35.9827C42.6753 35.9244 42.7578 35.89 42.8783 35.89V35.6341ZM42.4335 35.8018C42.317 35.9171 42.2641 36.0686 42.2641 36.2419H42.5227C42.5227 36.1226 42.5575 36.041 42.6164 35.9827L42.4335 35.8018ZM42.2641 36.2419V40.1904H42.5227V36.2419H42.2641ZM42.2641 40.1904C42.2641 40.3636 42.317 40.5152 42.4335 40.6305L42.6164 40.4495C42.5575 40.3912 42.5227 40.3096 42.5227 40.1904H42.2641ZM42.4335 40.6305C42.5501 40.7458 42.7032 40.7982 42.8783 40.7982V40.5423C42.7578 40.5423 42.6753 40.5079 42.6164 40.4495L42.4335 40.6305ZM42.8783 40.7982H43.4394V40.5423H42.8783V40.7982ZM43.4394 40.7982C43.6144 40.7982 43.7676 40.7458 43.8841 40.6305L43.7012 40.4495C43.6423 40.5079 43.5599 40.5423 43.4394 40.5423V40.7982ZM43.8841 40.6305C44.0007 40.5152 44.0537 40.3636 44.0537 40.1904H43.795C43.795 40.3096 43.7602 40.3912 43.7012 40.4495L43.8841 40.6305ZM44.0537 40.1904V39.7242H43.795V40.1904H44.0537ZM43.8659 39.8384L44.4132 40.1126L44.53 39.8843L43.9828 39.6101L43.8659 39.8384ZM44.3422 39.9985V40.1836H44.6009V39.9985H44.3422ZM44.3422 40.1836C44.3422 40.4667 44.257 40.681 44.0961 40.8402L44.279 41.0212C44.4968 40.8057 44.6009 40.5219 44.6009 40.1836H44.3422ZM44.0961 40.8402C43.9352 40.9995 43.7186 41.0838 43.4325 41.0838V41.3398C43.7744 41.3398 44.0612 41.2367 44.279 41.0212L44.0961 40.8402ZM43.4325 41.0838H42.8852V41.3398H43.4325V41.0838ZM42.8852 41.0838C42.5991 41.0838 42.3825 40.9995 42.2216 40.8402L42.0387 41.0212C42.2564 41.2367 42.5432 41.3398 42.8852 41.3398V41.0838ZM42.2216 40.8402C42.0606 40.681 41.9754 40.4667 41.9754 40.1836H41.7168C41.7168 40.5219 41.8209 40.8057 42.0387 41.0212L42.2216 40.8402ZM47.9625 35.2547H48.0918V35.1268H47.9625V35.2547ZM47.9625 41.1775V41.3055H48.0918V41.1775H47.9625ZM47.4152 41.1775H47.2859V41.3055H47.4152V41.1775ZM47.4152 35.7894H47.5445V35.6614H47.4152V35.7894ZM45.815 35.7894V35.6614H45.6856V35.7894H45.815ZM45.815 41.1775V41.3055H45.9443V41.1775H45.815ZM45.2677 41.1775H45.1384V41.3055H45.2677V41.1775ZM45.2677 35.2547V35.1268H45.1384V35.2547H45.2677ZM47.8331 35.2547V41.1775H48.0918V35.2547H47.8331ZM47.9625 41.0495H47.4152V41.3055H47.9625V41.0495ZM47.5445 41.1775V35.7894H47.2859V41.1775H47.5445ZM47.4152 35.6614H45.815V35.9174H47.4152V35.6614ZM45.6856 35.7894V41.1775H45.9443V35.7894H45.6856ZM45.815 41.0495H45.2677V41.3055H45.815V41.0495ZM45.397 41.1775V35.2547H45.1384V41.1775H45.397ZM45.2677 35.3827H47.9625V35.1268H45.2677V35.3827ZM48.922 36.2487C48.922 35.9656 49.0072 35.7512 49.1681 35.592L48.9852 35.411C48.7675 35.6265 48.6633 35.9103 48.6633 36.2487H48.922ZM49.1681 35.592C49.329 35.4327 49.5456 35.3484 49.8318 35.3484V35.0925C49.4898 35.0925 49.203 35.1955 48.9852 35.411L49.1681 35.592ZM49.8318 35.3484H50.4483V35.0925H49.8318V35.3484ZM50.4483 35.3484C50.7344 35.3484 50.951 35.4327 51.1119 35.592L51.2948 35.411C51.077 35.1955 50.7903 35.0925 50.4483 35.0925V35.3484ZM51.1119 35.592C51.2728 35.7512 51.3581 35.9656 51.3581 36.2487H51.6167C51.6167 35.9103 51.5126 35.6265 51.2948 35.411L51.1119 35.592ZM51.3581 36.2487V40.1836H51.6167V36.2487H51.3581ZM51.3581 40.1836C51.3581 40.4667 51.2728 40.681 51.1119 40.8402L51.2948 41.0212C51.5126 40.8057 51.6167 40.5219 51.6167 40.1836H51.3581ZM51.1119 40.8402C50.951 40.9995 50.7344 41.0838 50.4483 41.0838V41.3398C50.7903 41.3398 51.077 41.2367 51.2948 41.0212L51.1119 40.8402ZM50.4483 41.0838H49.8318V41.3398H50.4483V41.0838ZM49.8318 41.0838C49.5456 41.0838 49.329 40.9995 49.1681 40.8402L48.9852 41.0212C49.203 41.2367 49.4898 41.3398 49.8318 41.3398V41.0838ZM49.1681 40.8402C49.0072 40.681 48.922 40.4667 48.922 40.1836H48.6633C48.6633 40.5219 48.7675 40.8057 48.9852 41.0212L49.1681 40.8402ZM48.922 40.1836V36.2487H48.6633V40.1836H48.922ZM49.8248 40.7982H50.4552V40.5423H49.8248V40.7982ZM50.4552 40.7982C50.6303 40.7982 50.7834 40.7458 50.9 40.6305L50.7171 40.4495C50.6581 40.5079 50.5757 40.5423 50.4552 40.5423V40.7982ZM50.9 40.6305C51.0165 40.5152 51.0694 40.3636 51.0694 40.1904H50.8108C50.8108 40.3096 50.776 40.3912 50.7171 40.4495L50.9 40.6305ZM51.0694 40.1904V36.2419H50.8108V40.1904H51.0694ZM51.0694 36.2419C51.0694 36.0686 51.0165 35.9171 50.9 35.8018L50.7171 35.9827C50.776 36.041 50.8108 36.1226 50.8108 36.2419H51.0694ZM50.9 35.8018C50.7834 35.6865 50.6303 35.6341 50.4552 35.6341V35.89C50.5757 35.89 50.6581 35.9244 50.7171 35.9827L50.9 35.8018ZM50.4552 35.6341H49.8248V35.89H50.4552V35.6341ZM49.8248 35.6341C49.6498 35.6341 49.4967 35.6865 49.3801 35.8018L49.563 35.9827C49.6219 35.9244 49.7043 35.89 49.8248 35.89V35.6341ZM49.3801 35.8018C49.2635 35.9171 49.2106 36.0686 49.2106 36.2419H49.4692C49.4692 36.1226 49.504 36.041 49.563 35.9827L49.3801 35.8018ZM49.2106 36.2419V40.1904H49.4692V36.2419H49.2106ZM49.2106 40.1904C49.2106 40.3636 49.2635 40.5152 49.3801 40.6305L49.563 40.4495C49.504 40.3912 49.4692 40.3096 49.4692 40.1904H49.2106ZM49.3801 40.6305C49.4967 40.7458 49.6498 40.7982 49.8248 40.7982V40.5423C49.7043 40.5423 49.6219 40.5079 49.563 40.4495L49.3801 40.6305ZM52.7961 38.4835V38.3555H52.6668V38.4835H52.7961ZM52.7961 41.1775V41.3055H52.9255V41.1775H52.7961ZM52.2489 41.1775H52.1196V41.3055H52.2489V41.1775ZM52.2489 35.2547V35.1268H52.1196V35.2547H52.2489ZM52.7961 37.9488H52.6668V38.0768H52.7961V37.9488ZM52.7961 35.7894V35.6614H52.6668V35.7894H52.7961ZM53.8352 35.3827C54.1214 35.3827 54.3379 35.4671 54.4989 35.6263L54.6818 35.4453C54.464 35.2298 54.1772 35.1268 53.8352 35.1268V35.3827ZM54.4989 35.6263C54.6598 35.7855 54.745 35.9999 54.745 36.283H55.0036C55.0036 35.9446 54.8995 35.6608 54.6818 35.4453L54.4989 35.6263ZM54.745 36.283V37.4552H55.0036V36.283H54.745ZM54.745 37.4552C54.745 37.7383 54.6598 37.9527 54.4989 38.112L54.6818 38.2929C54.8995 38.0774 55.0036 37.7936 55.0036 37.4552H54.745ZM54.4989 38.112C54.3379 38.2711 54.1214 38.3555 53.8352 38.3555V38.6115C54.1772 38.6115 54.464 38.5084 54.6818 38.2929L54.4989 38.112ZM53.8352 38.3555H52.7961V38.6115H53.8352V38.3555ZM52.6668 38.4835V41.1775H52.9255V38.4835H52.6668ZM52.7961 41.0495H52.2489V41.3055H52.7961V41.0495ZM52.3782 41.1775V35.2547H52.1196V41.1775H52.3782ZM52.2489 35.3827H53.8352V35.1268H52.2489V35.3827ZM52.7961 38.0768H53.8421V37.8208H52.7961V38.0768ZM53.8421 38.0768C54.0172 38.0768 54.1704 38.0244 54.2869 37.909L54.104 37.7281C54.0451 37.7864 53.9627 37.8208 53.8421 37.8208V38.0768ZM54.2869 37.909C54.4035 37.7937 54.4564 37.6422 54.4564 37.4689H54.1977C54.1977 37.5882 54.1629 37.6697 54.104 37.7281L54.2869 37.909ZM54.4564 37.4689V36.2693H54.1977V37.4689H54.4564ZM54.4564 36.2693C54.4564 36.0961 54.4035 35.9445 54.2869 35.8292L54.104 36.0102C54.1629 36.0685 54.1977 36.1501 54.1977 36.2693H54.4564ZM54.2869 35.8292C54.1704 35.7138 54.0172 35.6614 53.8421 35.6614V35.9174C53.9627 35.9174 54.0451 35.9518 54.104 36.0102L54.2869 35.8292ZM53.8421 35.6614H52.7961V35.9174H53.8421V35.6614ZM52.6668 35.7894V37.9488H52.9255V35.7894H52.6668ZM55.3793 35.7894H55.25V35.9174H55.3793V35.7894ZM55.3793 35.2547V35.1268H55.25V35.2547H55.3793ZM58.1156 35.2547H58.2449V35.1268H58.1156V35.2547ZM58.1156 35.7894V35.9174H58.2449V35.7894H58.1156ZM57.021 35.7894V35.6614H56.8917V35.7894H57.021ZM57.021 41.1775V41.3055H57.1504V41.1775H57.021ZM56.4738 41.1775H56.3444V41.3055H56.4738V41.1775ZM56.4738 35.7894H56.6031V35.6614H56.4738V35.7894ZM55.5086 35.7894V35.2547H55.25V35.7894H55.5086ZM55.3793 35.3827H58.1156V35.1268H55.3793V35.3827ZM57.9863 35.2547V35.7894H58.2449V35.2547H57.9863ZM58.1156 35.6614H57.021V35.9174H58.1156V35.6614ZM56.8917 35.7894V41.1775H57.1504V35.7894H56.8917ZM57.021 41.0495H56.4738V41.3055H57.021V41.0495ZM56.6031 41.1775V35.7894H56.3444V41.1775H56.6031ZM56.4738 35.6614H55.3793V35.9174H56.4738V35.6614ZM59.1707 35.7278L59.2976 35.7527L59.2977 35.7521L59.1707 35.7278ZM59.9466 35.2547L60.0734 35.2298L60.0527 35.1268H59.9466V35.2547ZM61.1381 41.1775V41.3055H61.2957L61.2649 41.1525L61.1381 41.1775ZM60.5562 41.1775L60.4293 41.2021L60.4498 41.3055H60.5562V41.1775ZM60.286 39.8133L60.4129 39.7888L60.3925 39.6854H60.286V39.8133ZM58.9213 39.8133V39.6854H58.8149L58.7944 39.7888L58.9213 39.8133ZM58.6511 41.1775V41.3055H58.7576L58.7781 41.2021L58.6511 41.1775ZM58.0762 41.1775L57.9494 41.1526L57.9186 41.3055H58.0762V41.1775ZM60.2029 39.2718V39.3998H60.3595L60.3299 39.2476L60.2029 39.2718ZM59.6071 36.2145L59.7341 36.1902L59.4802 36.1899L59.6071 36.2145ZM59.0044 39.2718L58.8775 39.2473L58.8475 39.3998H59.0044V39.2718ZM59.2977 35.7521C59.32 35.6377 59.3723 35.5504 59.454 35.4836L59.2892 35.2863C59.1584 35.3933 59.0768 35.5344 59.0438 35.7034L59.2977 35.7521ZM59.454 35.4836C59.5352 35.4172 59.6325 35.3827 59.7526 35.3827V35.1268C59.5771 35.1268 59.4204 35.1791 59.2892 35.2863L59.454 35.4836ZM59.7526 35.3827H59.9466V35.1268H59.7526V35.3827ZM59.8198 35.2797L61.0112 41.2025L61.2649 41.1525L60.0734 35.2298L59.8198 35.2797ZM61.1381 41.0495H60.5562V41.3055H61.1381V41.0495ZM60.6831 41.1529L60.4129 39.7888L60.1591 39.838L60.4293 41.2021L60.6831 41.1529ZM60.286 39.6854H58.9213V39.9414H60.286V39.6854ZM58.7944 39.7888L58.5242 41.1529L58.7781 41.2021L59.0482 39.838L58.7944 39.7888ZM58.6511 41.0495H58.0762V41.3055H58.6511V41.0495ZM58.203 41.2024L59.2976 35.7527L59.0438 35.7028L57.9494 41.1526L58.203 41.2024ZM60.3299 39.2476L59.7341 36.1902L59.4801 36.2387L60.0759 39.296L60.3299 39.2476ZM59.4802 36.1899L58.8775 39.2473L59.1314 39.2963L59.734 36.239L59.4802 36.1899ZM59.0044 39.3998H60.2029V39.1438H59.0044V39.3998Z" fill="#131313"/>
</g>
<path d="M20.7768 49.2975C19.3555 49.6914 19.3275 49.5615 17.7815 49.5615C10.9338 49.5615 5.36459 46.4007 2.37793 40.5597C4.51048 41.5467 6.88483 42.0984 9.38784 42.0984C11.569 42.0984 13.6527 41.6793 15.5637 40.9178C17.3339 38.8025 18.5939 36.2437 19.1537 33.4326C21.659 36.3533 23.1727 40.1411 23.1727 44.2806C23.1727 45.8644 22.7555 47.7239 22.1728 49.4293C21.7792 49.2422 20.9118 48.9266 20.7768 49.2975Z" fill="#131313"/>
<path d="M12.8434 18.1433L12.622 18.1359C11.8797 18.1075 9.39981 18.424 8.72743 18.3463C8.44718 18.3139 9.17288 18.0912 9.67644 17.8652C10.2212 17.602 10.7497 17.3102 11.2597 16.9916C15.846 14.127 18.9509 9.09961 19.1562 3.33642C19.1633 3.13432 19.167 2.93105 19.167 2.72703L19.1542 2.05974C18.9406 0.425925 22.6632 -0.360341 22.5378 3.0381C22.4874 9.72744 18.5319 15.4903 12.8434 18.1433Z" fill="#131313"/>
<path d="M16.4649 13.1165C16.8709 12.5272 17.3459 11.8347 17.7674 11.2223C16.0713 10.4672 14.5236 9.43845 13.1803 8.19141C12.2964 8.66672 11.4597 9.21886 10.6797 9.83958C12.3512 11.2913 14.3126 12.416 16.4649 13.1165Z" fill="#131313"/>
<path d="M10.656 20.3831C8.40581 20.3831 6.22386 20.0933 4.14453 19.5506C4.30301 18.7879 4.51308 18.0442 4.77108 17.3232C6.42691 17.7457 8.16119 17.9711 9.94829 17.9711C18.1242 17.9711 25.2051 13.264 28.6494 6.40884C29.9455 3.64411 32.6416 7.372 31.5455 9.66198C26.8872 16.1546 19.2654 20.3831 10.656 20.3831Z" fill="#131313"/>
<path d="M17.7076 50C12.8202 50 8.39294 48.012 5.18675 44.7983C1.98227 41.5863 0 37.1509 0 32.2542V17.7458C0 12.8491 1.98227 8.41366 5.18675 5.20167C8.39294 1.98795 12.8202 0 17.7076 0C19.382 0 21.0024 0.233326 22.5383 0.669383V2.54563L22.5377 2.68127C21.0157 2.19159 19.3927 1.92704 17.7076 1.92704C13.3489 1.92704 9.40431 3.69631 6.55066 6.55668C3.69542 9.41851 1.92914 13.3746 1.92914 17.7458V32.2542C1.92914 36.6254 3.69542 40.5815 6.55066 43.4433C9.40431 46.3037 13.3489 48.0729 17.7076 48.0729C19.4917 48.0729 21.2063 47.7759 22.8052 47.2289C22.6442 47.9823 22.4323 48.717 22.1731 49.4292C20.7465 49.8016 19.25 50 17.7076 50ZM27.8907 44.337C28.2272 44.0514 28.5518 43.7521 28.8633 43.4396C31.7194 40.5752 33.4863 36.6162 33.4863 32.2441V17.7458C33.4863 13.3746 31.72 9.4187 28.8646 6.55668C28.8021 6.49389 28.7389 6.43174 28.6752 6.37021C28.6904 6.34131 28.7634 6.19651 28.8153 6.0737C29.1231 5.47733 29.2731 5.16426 29.5238 4.53639C29.5238 4.53639 29.5074 4.5179 29.5677 4.57253C29.7933 4.77645 30.0138 4.98638 30.2285 5.20167C33.4331 8.41379 35.4154 12.8492 35.4154 17.7458V32.2441C35.4154 37.1414 33.4326 41.5798 30.2272 44.7946C29.5574 45.4663 28.8342 46.0844 28.0648 46.6421C28.0591 45.8598 27.9999 45.0903 27.8907 44.337Z" fill="#131313"/>
<path fill-rule="evenodd" clip-rule="evenodd" d="M19.6058 21.0901C23.5702 19.4481 27.5346 17.8062 31.4988 16.1641L31.585 16.3743C32.328 18.1873 31.4646 20.2589 29.6558 20.9986C29.3895 21.1075 29.1194 21.1826 28.8496 21.2257C28.1347 21.3032 27.3836 21.2008 26.7311 20.8891C26.7298 20.8884 26.73 20.8887 26.7315 20.8899C28.075 23.7596 30.321 29.2282 30.6375 35.2842C30.883 39.9837 30.4461 42.6615 28.0651 46.642C28.0633 46.5896 28.0616 46.5381 28.0599 46.4872C28.0252 45.4663 28.0008 44.7457 27.771 43.7482C26.0476 36.2667 19.4431 30.5307 11.5048 30.5307C10.4214 30.5307 9.36232 30.6344 8.33631 30.8316C7.29236 29.6365 6.41488 28.2916 5.74023 26.8333C10.3619 24.9187 14.9839 23.0044 19.6058 21.0901ZM16.008 25.3388L19.4788 23.8991V26.476C18.3684 25.9992 17.2082 25.6167 16.008 25.3388Z" fill="#131313"/>
</g>
<defs>
<clipPath id="clip0_641_972">
<rect width="77" height="50" fill="white"/>
</clipPath>
</defs>
</svg>
