<svg width="222" height="34" viewBox="0 0 222 34" fill="none" xmlns="http://www.w3.org/2000/svg">
<g clip-path="url(#clip0_641_987)">
<path d="M24.9343 0.384616L0.151071 13.7589L0 13.9425L0.0302143 14.1684L0.226607 14.3026L0.309696 14.3167H9.94802L10.2653 14.232L13.9364 12.2548L14.4122 12.1983L14.5708 12.2548L18.2267 14.232L18.544 14.3167H28.1899L28.4165 14.225L28.5072 14.0202L28.4165 13.8083L28.3485 13.7589L20.2284 9.37374L20.0773 9.19725L20.1076 8.97128L20.2284 8.86537L24.9343 6.31619L25.4177 6.2597L25.5688 6.31619L40.2303 14.232L40.5475 14.3167H50.1934L50.42 14.225L50.5106 14.0202L50.42 13.8083L50.352 13.7589L25.5688 0.384616L25.0854 0.328125L24.9343 0.384616Z" fill="#131313"/>
<path d="M40.5551 19.9121L40.2378 19.9898L36.5819 21.967L36.0985 22.0306L35.9474 21.967L32.2839 19.9898L31.9667 19.9121H22.3208L22.0942 19.9969L22.0035 20.2087L22.0942 20.4205L22.1621 20.4629L30.2822 24.848L30.4333 25.0316L30.4031 25.2576L30.2822 25.3635L25.5764 27.9056L25.1005 27.9692L24.9418 27.9056L10.2804 19.9898L9.96316 19.9121H0.317249L0.098196 19.9969L0 20.2087L0.098196 20.4205L0.158625 20.4629L24.9418 33.8442L25.4027 33.9008H25.4329L25.5764 33.8442L50.3672 20.4629L50.5106 20.2864L50.4804 20.0604L50.2841 19.9263L50.2085 19.9121H40.5551Z" fill="#131313"/>
<path d="M66.3264 19.4073H70.0956V16.2724H66.3264V13.2354H70.6492V10.1201H62.6426V23.8353H66.3264V19.4073Z" fill="#131313"/>
<path d="M76.2239 13.2354H80.5677V10.1201H72.5615V23.8353H80.7385V20.5633H76.2239V18.3297H80.1849V15.1947H76.2239V13.2354Z" fill="#131313"/>
<path d="M93.9265 23.8148V23.6384L91.3924 18.6618C92.7129 17.7605 93.1603 16.5261 93.1811 14.9587C93.1811 12.0588 91.1798 10.1191 88.1559 10.1191H82.8965V23.8148H86.5803V19.5239H87.9857L89.9023 23.8148H93.9265ZM86.5164 16.6045V13.2148H88.1343C89.0291 13.2148 89.6251 13.8811 89.6251 14.8803C89.6251 15.9187 89.0291 16.6045 88.1343 16.6045H86.5164Z" fill="#131313"/>
<path d="M106.612 23.8148V23.6384L104.078 18.6618C105.398 17.7605 105.845 16.5261 105.867 14.9587C105.867 12.0588 103.865 10.1191 100.841 10.1191H95.582V23.8148H99.2659V19.5239H100.671L102.587 23.8148H106.612ZM99.202 16.6045V13.2148H100.82C101.715 13.2148 102.311 13.8811 102.311 14.8803C102.311 15.9187 101.715 16.6045 100.82 16.6045H99.202Z" fill="#131313"/>
<path d="M113.294 24.0117C116.403 24.0117 118.49 22.0916 118.49 19.2309V10.1201H114.827V19.1526C114.827 20.1714 114.231 20.8572 113.315 20.8572C112.378 20.8572 111.761 20.1714 111.761 19.1526V10.1201H108.077V19.2309C108.077 22.0916 110.164 24.0117 113.294 24.0117Z" fill="#131313"/>
<path d="M133.536 10.041H132.236L127.254 15.9777L122.271 10.041H120.972V23.8346H124.656V17.6236L127.04 20.5626H127.445L129.852 17.6236V23.8346H133.536V10.041Z" fill="#131313"/>
<path d="M139.578 19.5245H143.347V16.3895H139.578V13.3526H143.901V10.2373H135.895V23.9525H139.578V19.5245Z" fill="#131313"/>
<path d="M158.207 17.0946C158.207 12.8624 155.609 10.041 151.712 10.041C147.794 10.041 145.175 12.8624 145.175 17.0946C145.175 21.3267 147.794 24.1481 151.712 24.1481C155.609 24.1481 158.207 21.3267 158.207 17.0946ZM148.837 17.0946C148.837 14.9001 149.988 13.411 151.712 13.411C153.394 13.411 154.501 14.9001 154.501 17.0946C154.501 19.289 153.394 20.7977 151.712 20.7977C149.988 20.7977 148.837 19.289 148.837 17.0946Z" fill="#131313"/>
<path d="M171.193 23.9329V23.7566L168.659 18.7799C169.979 17.8787 170.426 16.6443 170.447 15.0768C170.447 12.177 168.445 10.2373 165.422 10.2373H160.162V23.9329H163.846V19.642H165.251L167.168 23.9329H171.193ZM163.782 16.7227V13.333H165.401C166.295 13.333 166.891 13.9992 166.891 14.9984C166.891 16.0369 166.295 16.7227 165.401 16.7227H163.782Z" fill="#131313"/>
<path d="M185.411 10.1582H184.112L179.13 16.095L174.147 10.1582H172.848V23.9518H176.532V17.7408L178.916 20.6798H179.321L181.727 17.7408V23.9518H185.411V10.1582Z" fill="#131313"/>
<path d="M199.847 23.9522V23.7367L194.182 10.041H192.351L186.623 23.7367V23.9522H190.477L191.137 22.2476H195.375L196.035 23.9522H199.847ZM192.18 19.4654C192.798 17.5648 192.947 16.9182 193.245 15.5663C193.48 16.7811 193.629 17.4864 194.331 19.4654H192.18Z" fill="#131313"/>
<path d="M199.047 10.2373V13.3722H201.985V23.9525H205.563V13.3722H208.48V10.2373H199.047Z" fill="#131313"/>
<path d="M212.462 8.34668V9.34861H213.628V12.7302H215.047V9.34861H216.204V8.34668H212.462Z" fill="#131313"/>
<path d="M221.826 8.32129H221.31L219.335 10.2187L217.358 8.32129H216.843V12.7298H218.304V10.7447L219.25 11.684H219.411L220.364 10.7447V12.7298H221.826V8.32129Z" fill="#131313"/>
</g>
<defs>
<clipPath id="clip0_641_987">
<rect width="222" height="34" fill="white"/>
</clipPath>
</defs>
</svg>
