<svg width="143" height="29" viewBox="0 0 143 29" fill="none" xmlns="http://www.w3.org/2000/svg">
<g clip-path="url(#clip0_641_957)">
<path fill-rule="evenodd" clip-rule="evenodd" d="M28.5664 0H0V28.7421H28.9625V0H28.5664ZM3.67448 12.5484C4.16632 12.5489 4.63786 12.743 4.98559 13.0882C5.33331 13.4334 5.5288 13.9014 5.52913 14.3896C5.52847 14.8775 5.33286 15.3453 4.98519 15.6903C4.63751 16.0353 4.16616 16.2295 3.67448 16.2301C3.18295 16.229 2.71188 16.0347 2.36431 15.6898C2.01675 15.3448 1.82098 14.8774 1.81983 14.3896C1.82049 13.9015 2.01608 13.4337 2.36373 13.0886C2.71139 12.7434 3.18274 12.5492 3.67448 12.5484ZM12.5622 27.2501C16.4761 24.4242 18.932 19.8952 19.1433 15.0781H23.802L20.8388 17.9837V19.7731L26.3095 14.4074L20.8382 9.03936V10.8263L23.802 13.7349H19.1433C18.932 8.91966 16.4761 4.38949 12.5622 1.5623V0.791021H28.1691V27.9535H12.5629L12.5622 27.2501ZM10.5895 27.9535H0.798313V0.791021H10.5901V2.17685H10.8599C14.8832 4.66283 17.4535 9.04738 17.6767 13.7349H16.7739C16.5482 9.35157 14.1402 5.26134 10.375 2.93826L9.72276 3.97794C13.1299 6.07704 15.3128 9.77362 15.536 13.7349H14.4094C14.1862 10.1574 12.2072 6.83042 9.129 4.93L8.59057 5.79074C11.3722 7.50483 13.1684 10.5073 13.3879 13.7349H12.0412C11.8224 10.9676 10.2755 8.40198 7.88241 6.92668L7.45963 7.6054C9.6152 8.9357 11.0203 11.239 11.2361 13.7349H9.68732C9.47717 11.7691 8.35058 9.96181 6.64701 8.91102L6.31998 9.42932C7.84324 10.3703 8.85294 11.9813 9.06309 13.7349H7.32595C7.22882 13.1527 7.00814 12.5977 6.67854 12.1066C6.34894 11.6155 5.91794 11.1994 5.4141 10.8861L5.17598 11.265C5.71208 11.5992 6.15426 12.0626 6.46136 12.6121C6.76846 13.1615 6.9305 13.7791 6.93239 14.4074C6.9302 15.0358 6.76804 15.6534 6.46097 16.2029C6.1539 16.7524 5.71189 17.216 5.17598 17.5506L5.4141 17.9313C5.91818 17.6171 6.34927 17.2004 6.67886 16.7085C7.00845 16.2167 7.22901 15.6609 7.32595 15.0781H9.06309C8.85294 16.8348 7.84386 18.444 6.31998 19.3813L6.64701 19.902C8.35058 18.8531 9.47717 17.0464 9.68732 15.0781H11.2361C11.0203 17.574 9.6152 19.8804 7.46025 21.2083L7.88303 21.8857C10.2718 20.4111 11.8224 17.848 12.0412 15.0781H13.3879C13.1684 18.307 11.3697 21.3076 8.59057 23.0217L9.129 23.8824C12.2047 21.9838 14.1862 18.6544 14.4094 15.0781H15.5366C15.3128 19.0407 13.1299 22.7354 9.72276 24.8382L10.375 25.8779C14.1402 23.5542 16.5488 19.4627 16.7739 15.0781H17.6767C17.4535 19.77 14.8776 24.157 10.8506 26.6436L10.8618 26.6633H10.5901V27.9535H10.5895ZM132.384 9.52064H135.607C136.531 9.52064 138.554 9.42191 138.554 11.7771C138.554 13.4616 137.555 14.1563 135.607 14.1563H132.384V9.52064ZM128.265 6.15047V23.5011H132.385V17.5271H136.307C138.43 17.5271 143.001 17.1803 143.001 11.7518C143.001 7.46349 139.954 6.15047 136.407 6.15047H128.265ZM114.518 17.3044L116.814 10.6862L119.064 17.3044H114.518ZM114.717 6.15047L108.174 23.5011H112.519L113.618 20.2537H119.963L121.087 23.5011H125.458L118.888 6.15047H114.717ZM99.3147 9.52064V23.5011H103.436V9.52064H108.705V6.15047H94.0194V9.52064H99.3147ZM82.9748 20.6258C80.6769 20.6258 78.5791 19.3615 78.5791 14.8252C78.5791 10.859 80.1521 9.02517 82.9748 9.02517C87.1952 9.02517 87.3705 13.2888 87.3705 14.8252C87.3705 16.2881 87.1709 20.6258 82.9748 20.6258ZM82.9748 23.9966C88.9939 23.9966 91.8166 20.0797 91.8166 14.8252C91.8166 9.57062 88.9939 5.65438 82.9748 5.65438C76.081 5.65438 74.1324 10.7855 74.1324 14.8252C74.1324 18.866 76.081 23.9966 82.9748 23.9966ZM66.5976 16.3622C66.4975 20.055 63.8744 20.6258 62.2019 20.6258C59.3792 20.6258 58.0804 18.8901 58.0052 17.255H53.8097C54.0596 21.0225 56.9308 23.9966 62.251 23.9966C64.6242 23.9966 71.043 23.5252 71.043 14.6024C71.043 10.5128 69.2201 5.65438 61.9768 5.65438C56.1822 5.65438 54.2088 9.12451 54.0086 11.9258H58.2054C58.3546 10.7855 59.2045 9.02579 62.2268 9.02579C63.4758 9.02579 66.2233 9.17387 66.5976 13.1894H59.9276V16.3622H66.5976ZM43.8973 9.52064H51.4657V6.15047H39.777V23.5011H43.8979V9.52064H43.8973Z" fill="#131313"/>
</g>
<defs>
<clipPath id="clip0_641_957">
<rect width="143" height="29" fill="white"/>
</clipPath>
</defs>
</svg>
