<svg width="119" height="22" viewBox="0 0 119 22" fill="none" xmlns="http://www.w3.org/2000/svg">
<g clip-path="url(#clip0_641_966)">
<path d="M0.666992 0H22.6103V22H0.666992V0Z" fill="#131313"/>
<path d="M11.6381 19.6039C16.3776 19.6039 20.2196 15.7519 20.2196 11.0002C20.2196 6.24849 16.3776 2.39648 11.6381 2.39648C6.89871 2.39648 3.05664 6.24849 3.05664 11.0002C3.05664 15.7519 6.89871 19.6039 11.6381 19.6039Z" fill="white"/>
<path d="M36.7295 22C40.4219 22 42.7301 20.2392 43.715 18.6628L43.8999 21.8147H46.2073V10.1039H37.1287V12.5764H43.5918V13.3176C43.5918 17.149 40.7299 19.5284 36.7599 19.5284C32.2978 19.5284 29.343 16.0058 29.343 11C29.343 5.99415 32.2969 2.47162 36.8206 2.47162C40.0834 2.47162 42.3908 4.23331 43.1302 7.23038H45.9921C45.2536 2.78131 41.6532 0 36.8831 0C30.636 0 26.6035 4.44992 26.6035 11C26.6035 17.5509 30.7592 22 36.7295 22ZM56.827 6.05592C54.0267 6.05592 52.8266 7.23038 52.0881 8.43531L51.7488 6.05592H49.5638V21.8147H52.0872V13.7813C52.0872 11.2784 52.9802 8.52839 56.2733 8.52839H57.5342V6.05592H56.827ZM72.5983 19.4979C71.891 19.4979 71.583 19.2813 71.583 18.447V11.5568C71.583 7.87938 69.2747 5.87062 65.2743 5.87062C61.4891 5.87062 58.9968 7.69408 58.6272 10.7842H61.1507C61.4587 9.17654 62.9356 8.12731 65.1511 8.12731C67.6129 8.12731 69.0595 9.36269 69.0595 11.4019V12.4833H64.443C60.3202 12.4833 58.1351 14.2442 58.1351 17.3961C58.1351 20.2696 60.4729 22 63.9206 22C66.6289 22 68.1978 20.7951 69.1827 19.3735C69.214 20.9186 69.9212 21.8147 72.0143 21.8147H73.3984V19.4979H72.5983ZM69.0595 15.3882C69.0595 18.0146 67.2441 19.8372 64.1054 19.8372C62.0123 19.8372 60.689 18.7872 60.689 17.2421C60.689 15.4499 61.9507 14.6156 64.1974 14.6156H69.0595V15.3882ZM78.615 21.8147H81.6617L87.5391 6.05592H84.8924L80.1839 18.9412L75.445 6.05592H72.7367L78.615 21.8147ZM90.2542 3.399C91.1766 3.399 91.8847 2.71954 91.8847 1.76085C91.8847 0.803 91.1766 0.123538 90.2542 0.123538C89.3309 0.123538 88.6228 0.803 88.6228 1.76085C88.6228 2.71954 89.3309 3.399 90.2542 3.399ZM88.9612 21.8147H91.4847V6.05592H88.9612V21.8147ZM95.6497 17.7049C95.6497 20.4862 96.7266 21.8147 99.7429 21.8147H102.482V19.4979H99.9885C98.6348 19.4979 98.1731 19.0029 98.1731 17.6745V8.37354H102.235V6.05592H98.1731V1.63731H95.6497V6.05592H92.8181V8.37438H95.6497V17.7049ZM117.845 19.4979C117.137 19.4979 116.83 19.2813 116.83 18.447V11.5568C116.83 7.87938 114.522 5.87062 110.521 5.87062C106.736 5.87062 104.243 7.69408 103.874 10.7842H106.398C106.705 9.17654 108.183 8.12731 110.398 8.12731C112.86 8.12731 114.307 9.36269 114.307 11.4019V12.4833H109.69C105.566 12.4833 103.381 14.2442 103.381 17.3961C103.381 20.2696 105.72 22 109.167 22C111.875 22 113.445 20.7951 114.43 19.3735C114.46 20.9186 115.168 21.8147 117.26 21.8147H118.645V19.4979H117.845ZM114.307 15.3882C114.307 18.0146 112.49 19.8372 109.352 19.8372C107.259 19.8372 105.936 18.7872 105.936 17.2421C105.936 15.4499 107.198 14.6156 109.444 14.6156H114.307V15.3882Z" fill="#131313"/>
</g>
<defs>
<clipPath id="clip0_641_966">
<rect width="119" height="22" fill="white"/>
</clipPath>
</defs>
</svg>
