<svg width="183" height="25" viewBox="0 0 183 25" fill="none" xmlns="http://www.w3.org/2000/svg">
<path d="M180.292 20.9452H173.133V6.73373H180.331L180.292 20.9452ZM170.879 4.56255V23.1316H182.5V4.56255H170.879ZM128.322 23.1316V4.56255H126.052L114.121 19.6698V4.56255H111.843V23.1316H114.121L126.052 8.2065V23.1316H128.322ZM82.7587 23.1316V4.56255H80.4887V12.7235H72.6173V4.56255H70.3395V23.1316H72.6173V14.9554H80.4887V23.1316H82.7587ZM105.544 23.1316V4.56255H103.266L91.3352 19.6698V4.56255H89.0652V23.1316H91.3352L103.266 8.2065V23.1316H105.544ZM54.031 13.8547L62.7702 23.1316H65.9312L57.1145 13.8547L65.9312 4.57772H62.7702L54.031 13.8547ZM51.6448 23.1316H53.8916V4.56255H51.6448V23.1316ZM116.577 0V2.23193H123.611V0H116.577ZM51.4976 13.8395L42.7584 4.56255H39.5897L48.3986 13.8395L39.6052 23.1316H42.7739L51.4976 13.8395ZM163.774 20.9452H156.577V6.73373H163.774V20.9452ZM154.361 4.56255V23.1316H165.982V4.56255H154.361ZM12.4192 23.1316V4.56255H10.1492V12.7235H2.27001V4.56255H0V23.1316H2.27001V14.9554H10.1492V23.1316H12.4192ZM35.1969 23.1316V4.56255H32.9036L20.9724 19.6698V4.56255H18.7257V23.1316H20.9957L32.9036 8.19133V23.1316H35.1969ZM138.897 10.6813L142.174 13.8395L138.897 16.9975L143.282 21.34L147.667 16.9975L144.39 13.8395L147.667 10.6813L143.282 6.33898L138.897 10.6813ZM143.282 3.21125L150.805 10.6813L147.567 13.8395L150.844 16.9975L143.321 24.4677L135.798 16.9975L139.075 13.8395L135.798 10.6813L143.282 3.21125Z" fill="#131313"/>
</svg>
