<svg xmlns="http://www.w3.org/2000/svg" width="1600" height="306" viewBox="0 0 1600 306" fill="none">
    <rect width="1600" height="306" fill="#131313" />
    <path d="M84.7961 188.009H147.797L117.148 98.7859H116.467L84.7961 188.009ZM89.9043 38.8497H144.732L235.658 282H180.149L161.76 227.853H70.8337L51.7631 282H-2.04328L89.9043 38.8497ZM249.815 38.8497H302.94L404.423 201.972H405.104V38.8497H455.164V282H401.699L300.556 119.219H299.875V282H249.815V38.8497ZM548.887 237.048H596.563C604.282 237.048 611.774 235.799 619.039 233.302C626.304 230.804 632.775 226.718 638.45 221.042C644.126 215.139 648.667 207.534 652.072 198.226C655.478 188.917 657.18 177.566 657.18 164.171C657.18 151.911 655.932 140.9 653.434 131.138C651.164 121.148 647.305 112.635 641.856 105.597C636.407 98.5589 629.142 93.2237 620.061 89.5912C611.207 85.7317 600.196 83.8019 587.028 83.8019H548.887V237.048ZM495.421 38.8497H600.309C615.974 38.8497 630.504 41.3471 643.899 46.3418C657.521 51.3364 669.213 58.8285 678.975 68.8178C688.965 78.8072 696.684 91.2939 702.133 106.278C707.808 121.262 710.646 138.857 710.646 159.063C710.646 176.771 708.376 193.117 703.835 208.101C699.295 223.085 692.37 236.026 683.062 246.924C673.981 257.821 662.516 266.448 648.667 272.805C635.045 278.935 618.926 282 600.309 282H495.421V38.8497ZM794.492 148.846H853.066C865.326 148.846 874.521 146.122 880.651 140.673C886.781 135.224 889.846 126.37 889.846 114.111C889.846 102.305 886.781 93.7913 880.651 88.5695C874.521 83.1208 865.326 80.3964 853.066 80.3964H794.492V148.846ZM741.027 38.8497H872.137C883.035 38.8497 892.797 40.666 901.424 44.2985C910.278 47.704 917.77 52.4716 923.9 58.6014C930.257 64.7313 935.025 71.8828 938.203 80.0559C941.609 88.002 943.311 96.6291 943.311 105.937C943.311 120.24 940.246 132.614 934.117 143.057C928.214 153.5 918.451 161.447 904.83 166.895V167.576C911.413 169.393 916.862 172.23 921.176 176.09C925.489 179.723 929.008 184.15 931.733 189.371C934.457 194.366 936.387 199.928 937.522 206.058C938.884 212.188 939.792 218.318 940.246 224.448C940.473 228.307 940.7 232.848 940.927 238.069C941.155 243.291 941.495 248.626 941.949 254.075C942.63 259.524 943.538 264.746 944.674 269.74C946.036 274.508 947.965 278.595 950.463 282H896.997C894.046 274.281 892.229 265.086 891.548 254.416C890.867 243.745 889.846 233.529 888.483 223.767C886.667 211.053 882.808 201.745 876.905 195.842C871.002 189.939 861.353 186.988 847.958 186.988H794.492V282H741.027V38.8497ZM979.981 38.8497H1161.83V83.8019H1033.45V135.906H1151.28V177.452H1033.45V237.048H1164.56V282H979.981V38.8497ZM1193.99 38.8497H1375.85V83.8019H1247.46V135.906H1365.29V177.452H1247.46V237.048H1378.57V282H1193.99V38.8497ZM1521.07 282H1460.79L1382.12 38.8497H1436.95L1491.1 209.804H1491.78L1546.61 38.8497H1601.78L1521.07 282Z" fill="white" />
</svg>