<svg xmlns="http://www.w3.org/2000/svg" width="229" height="32" viewBox="0 0 229 32" fill="none">
    <path d="M17.1592 8H28.655V10.798H20.5645V13.7262H24.5989C25.3798 13.7262 26.1028 13.8202 26.768 14.0082C27.4331 14.1962 28.0115 14.4926 28.5032 14.8975C28.9948 15.2879 29.378 15.794 29.6528 16.4158C29.942 17.0231 30.0866 17.7461 30.0866 18.5848C30.0866 19.438 29.9492 20.1755 29.6744 20.7972C29.3997 21.4046 29.0093 21.9107 28.5032 22.3156C28.0115 22.7204 27.4187 23.0169 26.7246 23.2049C26.0305 23.3928 25.2641 23.4868 24.4254 23.4868H17.1592V8ZM24.0567 20.7105C24.8809 20.7105 25.5244 20.5587 25.9871 20.255C26.4498 19.9369 26.6812 19.3657 26.6812 18.5415C26.6812 18.1366 26.6161 17.7968 26.486 17.522C26.3558 17.2473 26.1679 17.0304 25.922 16.8713C25.6907 16.6978 25.4087 16.5749 25.0761 16.5026C24.758 16.4303 24.4109 16.3941 24.035 16.3941H20.5645V20.7105H24.0567Z" fill="#131313" />
    <path d="M43.6896 23.4868H32.172V8H35.5774V20.6237H41.6507V8H45.056V20.6237H46.7696V27.0223H43.6896V23.4868Z" fill="#131313" />
    <path d="M48.2652 8H55.2494C56.2183 8 57.0425 8.1446 57.7221 8.43381C58.4018 8.70855 58.9512 9.07728 59.3706 9.54001C59.8044 10.0027 60.1153 10.5378 60.3033 11.1451C60.5057 11.738 60.6069 12.3453 60.6069 12.9671C60.6069 13.6033 60.5057 14.2179 60.3033 14.8107C60.1153 15.4036 59.8044 15.9314 59.3706 16.3941C58.9512 16.8568 58.4018 17.2328 57.7221 17.522C57.0425 17.7968 56.2183 17.9341 55.2494 17.9341H51.6706V23.4868H48.2652V8ZM54.3168 15.2879C54.7072 15.2879 55.0831 15.259 55.4447 15.2012C55.8062 15.1433 56.1243 15.0349 56.399 14.8758C56.6738 14.7023 56.8907 14.4637 57.0497 14.16C57.2233 13.8564 57.31 13.4587 57.31 12.9671C57.31 12.4754 57.2233 12.0778 57.0497 11.7741C56.8907 11.4704 56.6738 11.2391 56.399 11.08C56.1243 10.9065 55.8062 10.7908 55.4447 10.733C55.0831 10.6751 54.7072 10.6462 54.3168 10.6462H51.6706V15.2879H54.3168Z" fill="#131313" />
    <path d="M66.7451 8H70.2372L76.0285 23.4868H72.493L71.3217 20.0381H65.5304L64.3158 23.4868H60.8887L66.7451 8ZM70.4324 17.5003L68.4803 11.8175H68.4369L66.4197 17.5003H70.4324Z" fill="#131313" />
    <path d="M80.9814 19.9295L88.9417 16.7627L80.9814 13.5959V11.1016L92 15.483V18.0424L80.9814 22.4022V19.9295Z" fill="#131313" />
    <path d="M11.0186 13.5959L3.05832 16.7627L11.0186 19.9295V22.4022L0 18.0424V15.483L11.0186 11.1016V13.5959Z" fill="#131313" />
    <path d="M103.144 5H109.06V5.696H103.96V8.624H107.188C107.988 8.624 108.612 8.844 109.06 9.284C109.508 9.724 109.732 10.328 109.732 11.096C109.732 11.864 109.508 12.468 109.06 12.908C108.612 13.348 107.988 13.568 107.188 13.568H103.144V5ZM107.008 12.872C107.608 12.872 108.076 12.716 108.412 12.404C108.748 12.084 108.916 11.648 108.916 11.096C108.916 10.544 108.748 10.112 108.412 9.8C108.076 9.48 107.608 9.32 107.008 9.32H103.96V12.872H107.008Z" fill="#131313" />
    <path d="M115.852 13.736C115.428 13.736 115.044 13.656 114.7 13.496C114.356 13.336 114.06 13.12 113.812 12.848C113.572 12.568 113.38 12.24 113.236 11.864C113.1 11.488 113.024 11.088 113.008 10.664H111.628V13.568H110.872V7.376H111.628V10.028H113.032C113.072 9.636 113.164 9.268 113.308 8.924C113.46 8.58 113.656 8.28 113.896 8.024C114.136 7.768 114.42 7.568 114.748 7.424C115.076 7.272 115.444 7.196 115.852 7.196C116.292 7.196 116.688 7.284 117.04 7.46C117.392 7.636 117.688 7.872 117.928 8.168C118.176 8.464 118.364 8.812 118.492 9.212C118.628 9.612 118.696 10.032 118.696 10.472C118.696 10.92 118.628 11.344 118.492 11.744C118.364 12.136 118.176 12.48 117.928 12.776C117.688 13.072 117.392 13.308 117.04 13.484C116.688 13.652 116.292 13.736 115.852 13.736ZM115.852 13.112C116.18 13.112 116.472 13.036 116.728 12.884C116.992 12.732 117.212 12.532 117.388 12.284C117.572 12.036 117.708 11.756 117.796 11.444C117.892 11.124 117.94 10.8 117.94 10.472C117.94 10.144 117.892 9.824 117.796 9.512C117.708 9.192 117.572 8.908 117.388 8.66C117.212 8.412 116.992 8.212 116.728 8.06C116.472 7.908 116.18 7.832 115.852 7.832C115.524 7.832 115.228 7.908 114.964 8.06C114.708 8.212 114.488 8.412 114.304 8.66C114.128 8.908 113.992 9.192 113.896 9.512C113.808 9.824 113.764 10.144 113.764 10.472C113.764 10.8 113.808 11.124 113.896 11.444C113.992 11.756 114.128 12.036 114.304 12.284C114.488 12.532 114.708 12.732 114.964 12.884C115.228 13.036 115.524 13.112 115.852 13.112Z" fill="#131313" />
    <path d="M119.705 7.376H120.401V8.552H120.425C120.601 8.12 120.885 7.788 121.277 7.556C121.677 7.316 122.129 7.196 122.633 7.196C123.105 7.196 123.513 7.284 123.857 7.46C124.209 7.636 124.501 7.876 124.733 8.18C124.965 8.476 125.137 8.824 125.249 9.224C125.361 9.616 125.417 10.032 125.417 10.472C125.417 10.92 125.361 11.34 125.249 11.732C125.137 12.124 124.965 12.472 124.733 12.776C124.501 13.072 124.209 13.308 123.857 13.484C123.513 13.652 123.105 13.736 122.633 13.736C122.401 13.736 122.173 13.708 121.949 13.652C121.733 13.596 121.529 13.512 121.337 13.4C121.145 13.288 120.973 13.148 120.821 12.98C120.677 12.812 120.565 12.616 120.485 12.392H120.461V15.848H119.705V7.376ZM122.633 13.112C122.993 13.112 123.301 13.036 123.557 12.884C123.813 12.724 124.021 12.52 124.181 12.272C124.349 12.024 124.469 11.744 124.541 11.432C124.621 11.112 124.661 10.792 124.661 10.472C124.661 10.152 124.621 9.836 124.541 9.524C124.469 9.204 124.349 8.92 124.181 8.672C124.021 8.424 123.813 8.224 123.557 8.072C123.301 7.912 122.993 7.832 122.633 7.832C122.209 7.832 121.857 7.904 121.577 8.048C121.305 8.192 121.085 8.384 120.917 8.624C120.749 8.864 120.629 9.144 120.557 9.464C120.493 9.784 120.461 10.12 120.461 10.472C120.461 10.792 120.497 11.112 120.569 11.432C120.649 11.744 120.773 12.024 120.941 12.272C121.117 12.52 121.341 12.724 121.613 12.884C121.893 13.036 122.233 13.112 122.633 13.112Z" fill="#131313" />
    <path d="M129.092 13.736C128.62 13.736 128.2 13.652 127.832 13.484C127.472 13.308 127.168 13.072 126.92 12.776C126.672 12.48 126.484 12.136 126.356 11.744C126.228 11.344 126.164 10.92 126.164 10.472C126.164 10.032 126.228 9.612 126.356 9.212C126.484 8.812 126.672 8.464 126.92 8.168C127.168 7.872 127.472 7.636 127.832 7.46C128.2 7.284 128.62 7.196 129.092 7.196C129.564 7.196 129.98 7.284 130.34 7.46C130.708 7.636 131.016 7.872 131.264 8.168C131.512 8.464 131.7 8.812 131.828 9.212C131.956 9.612 132.02 10.032 132.02 10.472C132.02 10.92 131.956 11.344 131.828 11.744C131.7 12.136 131.512 12.48 131.264 12.776C131.016 13.072 130.708 13.308 130.34 13.484C129.98 13.652 129.564 13.736 129.092 13.736ZM129.092 13.112C129.452 13.112 129.768 13.036 130.04 12.884C130.312 12.732 130.536 12.532 130.712 12.284C130.896 12.036 131.032 11.756 131.12 11.444C131.216 11.124 131.264 10.8 131.264 10.472C131.264 10.144 131.216 9.824 131.12 9.512C131.032 9.192 130.896 8.908 130.712 8.66C130.536 8.412 130.312 8.212 130.04 8.06C129.768 7.908 129.452 7.832 129.092 7.832C128.732 7.832 128.416 7.908 128.144 8.06C127.872 8.212 127.644 8.412 127.46 8.66C127.284 8.908 127.148 9.192 127.052 9.512C126.964 9.824 126.92 10.144 126.92 10.472C126.92 10.8 126.964 11.124 127.052 11.444C127.148 11.756 127.284 12.036 127.46 12.284C127.644 12.532 127.872 12.732 128.144 12.884C128.416 13.036 128.732 13.112 129.092 13.112Z" fill="#131313" />
    <path d="M141.296 13.568H136.232V7.376H136.988V12.932H140.384V7.376H141.14V12.932H142.052V15.536H141.296V13.568Z" fill="#131313" />
    <path d="M142.733 7.376H143.489V12.68L146.909 7.376H147.845V13.568H147.089V8.264L143.669 13.568H142.733V7.376Z" fill="#131313" />
    <path d="M152.86 12.908H152.836C152.7 13.148 152.492 13.348 152.212 13.508C151.932 13.66 151.624 13.736 151.288 13.736C150.96 13.736 150.652 13.664 150.364 13.52C150.076 13.376 149.82 13.168 149.596 12.896C149.38 12.616 149.208 12.276 149.08 11.876C148.952 11.476 148.888 11.016 148.888 10.496C148.888 9.4 149.1 8.576 149.524 8.024C149.956 7.472 150.548 7.196 151.3 7.196C151.636 7.196 151.936 7.272 152.2 7.424C152.464 7.568 152.676 7.772 152.836 8.036H152.86V5H153.616V8.036H153.64C153.8 7.772 154.012 7.568 154.276 7.424C154.54 7.272 154.84 7.196 155.176 7.196C155.928 7.196 156.516 7.472 156.94 8.024C157.372 8.576 157.588 9.4 157.588 10.496C157.588 11.016 157.524 11.476 157.396 11.876C157.268 12.276 157.092 12.616 156.868 12.896C156.652 13.168 156.396 13.376 156.1 13.52C155.812 13.664 155.508 13.736 155.188 13.736C154.852 13.736 154.544 13.66 154.264 13.508C153.984 13.348 153.776 13.148 153.64 12.908C153.632 12.916 153.624 12.916 153.616 12.908V15.848H152.86V12.908ZM151.48 13.1C151.872 13.1 152.2 12.98 152.464 12.74C152.728 12.492 152.86 12.164 152.86 11.756V9.152C152.86 8.96 152.824 8.784 152.752 8.624C152.68 8.464 152.584 8.324 152.464 8.204C152.344 8.084 152.2 7.992 152.032 7.928C151.864 7.864 151.684 7.832 151.492 7.832C151.236 7.832 150.996 7.884 150.772 7.988C150.548 8.084 150.352 8.24 150.184 8.456C150.016 8.672 149.884 8.948 149.788 9.284C149.692 9.62 149.644 10.024 149.644 10.496C149.644 10.952 149.688 11.348 149.776 11.684C149.864 12.012 149.988 12.28 150.148 12.488C150.316 12.696 150.512 12.852 150.736 12.956C150.96 13.052 151.208 13.1 151.48 13.1ZM154.996 13.1C155.268 13.1 155.516 13.052 155.74 12.956C155.964 12.852 156.156 12.696 156.316 12.488C156.476 12.28 156.6 12.012 156.688 11.684C156.784 11.348 156.832 10.952 156.832 10.496C156.832 10.024 156.784 9.62 156.688 9.284C156.592 8.948 156.46 8.672 156.292 8.456C156.124 8.24 155.928 8.084 155.704 7.988C155.48 7.884 155.24 7.832 154.984 7.832C154.792 7.832 154.612 7.864 154.444 7.928C154.276 7.992 154.132 8.084 154.012 8.204C153.892 8.324 153.796 8.464 153.724 8.624C153.652 8.784 153.616 8.96 153.616 9.152V11.756C153.616 12.164 153.748 12.492 154.012 12.74C154.276 12.98 154.604 13.1 154.996 13.1Z" fill="#131313" />
    <path d="M158.63 7.376H159.326V8.552H159.35C159.526 8.12 159.81 7.788 160.202 7.556C160.602 7.316 161.054 7.196 161.558 7.196C162.03 7.196 162.438 7.284 162.782 7.46C163.134 7.636 163.426 7.876 163.658 8.18C163.89 8.476 164.062 8.824 164.174 9.224C164.286 9.616 164.342 10.032 164.342 10.472C164.342 10.92 164.286 11.34 164.174 11.732C164.062 12.124 163.89 12.472 163.658 12.776C163.426 13.072 163.134 13.308 162.782 13.484C162.438 13.652 162.03 13.736 161.558 13.736C161.326 13.736 161.098 13.708 160.874 13.652C160.658 13.596 160.454 13.512 160.262 13.4C160.07 13.288 159.898 13.148 159.746 12.98C159.602 12.812 159.49 12.616 159.41 12.392H159.386V15.848H158.63V7.376ZM161.558 13.112C161.918 13.112 162.226 13.036 162.482 12.884C162.738 12.724 162.946 12.52 163.106 12.272C163.274 12.024 163.394 11.744 163.466 11.432C163.546 11.112 163.586 10.792 163.586 10.472C163.586 10.152 163.546 9.836 163.466 9.524C163.394 9.204 163.274 8.92 163.106 8.672C162.946 8.424 162.738 8.224 162.482 8.072C162.226 7.912 161.918 7.832 161.558 7.832C161.134 7.832 160.782 7.904 160.502 8.048C160.23 8.192 160.01 8.384 159.842 8.624C159.674 8.864 159.554 9.144 159.482 9.464C159.418 9.784 159.386 10.12 159.386 10.472C159.386 10.792 159.422 11.112 159.494 11.432C159.574 11.744 159.698 12.024 159.866 12.272C160.042 12.52 160.266 12.724 160.538 12.884C160.818 13.036 161.158 13.112 161.558 13.112Z" fill="#131313" />
    <path d="M168.016 13.736C167.544 13.736 167.124 13.652 166.756 13.484C166.396 13.308 166.092 13.072 165.844 12.776C165.596 12.48 165.408 12.136 165.28 11.744C165.152 11.344 165.088 10.92 165.088 10.472C165.088 10.032 165.152 9.612 165.28 9.212C165.408 8.812 165.596 8.464 165.844 8.168C166.092 7.872 166.396 7.636 166.756 7.46C167.124 7.284 167.544 7.196 168.016 7.196C168.488 7.196 168.904 7.284 169.264 7.46C169.632 7.636 169.94 7.872 170.188 8.168C170.436 8.464 170.624 8.812 170.752 9.212C170.88 9.612 170.944 10.032 170.944 10.472C170.944 10.92 170.88 11.344 170.752 11.744C170.624 12.136 170.436 12.48 170.188 12.776C169.94 13.072 169.632 13.308 169.264 13.484C168.904 13.652 168.488 13.736 168.016 13.736ZM168.016 13.112C168.376 13.112 168.692 13.036 168.964 12.884C169.236 12.732 169.46 12.532 169.636 12.284C169.82 12.036 169.956 11.756 170.044 11.444C170.14 11.124 170.188 10.8 170.188 10.472C170.188 10.144 170.14 9.824 170.044 9.512C169.956 9.192 169.82 8.908 169.636 8.66C169.46 8.412 169.236 8.212 168.964 8.06C168.692 7.908 168.376 7.832 168.016 7.832C167.656 7.832 167.34 7.908 167.068 8.06C166.796 8.212 166.568 8.412 166.384 8.66C166.208 8.908 166.072 9.192 165.976 9.512C165.888 9.824 165.844 10.144 165.844 10.472C165.844 10.8 165.888 11.124 165.976 11.444C166.072 11.756 166.208 12.036 166.384 12.284C166.568 12.532 166.796 12.732 167.068 12.884C167.34 13.036 167.656 13.112 168.016 13.112Z" fill="#131313" />
    <path d="M171.936 7.376H174.768C175.4 7.376 175.888 7.5 176.232 7.748C176.576 7.996 176.748 8.36 176.748 8.84C176.748 9.208 176.652 9.516 176.46 9.764C176.276 10.012 176.016 10.184 175.68 10.28V10.304C176.088 10.376 176.408 10.536 176.64 10.784C176.872 11.032 176.988 11.384 176.988 11.84C176.988 12.4 176.8 12.828 176.424 13.124C176.048 13.42 175.496 13.568 174.768 13.568H171.936V7.376ZM174.684 12.932C175.212 12.932 175.6 12.836 175.848 12.644C176.104 12.444 176.232 12.148 176.232 11.756C176.232 11.396 176.104 11.12 175.848 10.928C175.6 10.736 175.212 10.64 174.684 10.64H172.692V12.932H174.684ZM174.684 10.052C175.116 10.052 175.44 9.96 175.656 9.776C175.88 9.592 175.992 9.344 175.992 9.032C175.992 8.352 175.556 8.012 174.684 8.012H172.692V10.052H174.684Z" fill="#131313" />
    <path d="M178.016 7.376H178.772V9.86H180.776C181.376 9.86 181.852 10.02 182.204 10.34C182.556 10.66 182.732 11.112 182.732 11.696C182.732 12.28 182.556 12.74 182.204 13.076C181.852 13.404 181.376 13.568 180.776 13.568H178.016V7.376ZM180.596 12.932C181.028 12.932 181.364 12.828 181.604 12.62C181.852 12.412 181.976 12.104 181.976 11.696C181.976 11.288 181.852 10.988 181.604 10.796C181.364 10.596 181.028 10.496 180.596 10.496H178.772V12.932H180.596ZM183.896 7.376H184.652V13.568H183.896V7.376Z" fill="#131313" />
    <path d="M187.65 10.352L185.43 7.376H186.378L188.142 9.728L189.87 7.376H190.818L188.586 10.34L190.998 13.568H190.038L188.094 10.964L186.186 13.568H185.25L187.65 10.352Z" fill="#131313" />
    <path d="M103 19.376H103.696V20.552H103.72C103.896 20.12 104.18 19.788 104.572 19.556C104.972 19.316 105.424 19.196 105.928 19.196C106.4 19.196 106.808 19.284 107.152 19.46C107.504 19.636 107.796 19.876 108.028 20.18C108.26 20.476 108.432 20.824 108.544 21.224C108.656 21.616 108.712 22.032 108.712 22.472C108.712 22.92 108.656 23.34 108.544 23.732C108.432 24.124 108.26 24.472 108.028 24.776C107.796 25.072 107.504 25.308 107.152 25.484C106.808 25.652 106.4 25.736 105.928 25.736C105.696 25.736 105.468 25.708 105.244 25.652C105.028 25.596 104.824 25.512 104.632 25.4C104.44 25.288 104.268 25.148 104.116 24.98C103.972 24.812 103.86 24.616 103.78 24.392H103.756V27.848H103V19.376ZM105.928 25.112C106.288 25.112 106.596 25.036 106.852 24.884C107.108 24.724 107.316 24.52 107.476 24.272C107.644 24.024 107.764 23.744 107.836 23.432C107.916 23.112 107.956 22.792 107.956 22.472C107.956 22.152 107.916 21.836 107.836 21.524C107.764 21.204 107.644 20.92 107.476 20.672C107.316 20.424 107.108 20.224 106.852 20.072C106.596 19.912 106.288 19.832 105.928 19.832C105.504 19.832 105.152 19.904 104.872 20.048C104.6 20.192 104.38 20.384 104.212 20.624C104.044 20.864 103.924 21.144 103.852 21.464C103.788 21.784 103.756 22.12 103.756 22.472C103.756 22.792 103.792 23.112 103.864 23.432C103.944 23.744 104.068 24.024 104.236 24.272C104.412 24.52 104.636 24.724 104.908 24.884C105.188 25.036 105.528 25.112 105.928 25.112Z" fill="#131313" />
    <path d="M112.255 25.736C111.759 25.736 111.335 25.652 110.983 25.484C110.631 25.308 110.343 25.072 110.119 24.776C109.895 24.472 109.727 24.124 109.615 23.732C109.511 23.34 109.459 22.92 109.459 22.472C109.459 22.064 109.511 21.664 109.615 21.272C109.727 20.88 109.895 20.532 110.119 20.228C110.343 19.916 110.631 19.668 110.983 19.484C111.335 19.292 111.759 19.196 112.255 19.196C112.751 19.196 113.175 19.296 113.527 19.496C113.879 19.696 114.163 19.96 114.379 20.288C114.603 20.608 114.763 20.98 114.859 21.404C114.955 21.82 114.995 22.244 114.979 22.676H110.215C110.215 22.956 110.251 23.24 110.323 23.528C110.403 23.816 110.527 24.076 110.695 24.308C110.863 24.54 111.075 24.732 111.331 24.884C111.587 25.036 111.895 25.112 112.255 25.112C112.807 25.112 113.239 24.968 113.551 24.68C113.863 24.392 114.079 24.008 114.199 23.528H114.955C114.795 24.232 114.499 24.776 114.067 25.16C113.643 25.544 113.039 25.736 112.255 25.736ZM114.223 22.04C114.215 21.752 114.163 21.476 114.067 21.212C113.979 20.948 113.851 20.716 113.683 20.516C113.515 20.308 113.311 20.144 113.071 20.024C112.831 19.896 112.559 19.832 112.255 19.832C111.943 19.832 111.667 19.896 111.427 20.024C111.187 20.144 110.983 20.308 110.815 20.516C110.647 20.716 110.511 20.952 110.407 21.224C110.311 21.488 110.247 21.76 110.215 22.04H114.223Z" fill="#131313" />
    <path d="M115.861 19.376H116.617V24.932H119.473V19.376H120.229V24.932H123.085V19.376H123.841V25.568H115.861V19.376Z" fill="#131313" />
    <path d="M127.636 25.736C127.14 25.736 126.716 25.652 126.364 25.484C126.012 25.308 125.724 25.072 125.5 24.776C125.276 24.472 125.108 24.124 124.996 23.732C124.892 23.34 124.84 22.92 124.84 22.472C124.84 22.064 124.892 21.664 124.996 21.272C125.108 20.88 125.276 20.532 125.5 20.228C125.724 19.916 126.012 19.668 126.364 19.484C126.716 19.292 127.14 19.196 127.636 19.196C128.132 19.196 128.556 19.296 128.908 19.496C129.26 19.696 129.544 19.96 129.76 20.288C129.984 20.608 130.144 20.98 130.24 21.404C130.336 21.82 130.376 22.244 130.36 22.676H125.596C125.596 22.956 125.632 23.24 125.704 23.528C125.784 23.816 125.908 24.076 126.076 24.308C126.244 24.54 126.456 24.732 126.712 24.884C126.968 25.036 127.276 25.112 127.636 25.112C128.188 25.112 128.62 24.968 128.932 24.68C129.244 24.392 129.46 24.008 129.58 23.528H130.336C130.176 24.232 129.88 24.776 129.448 25.16C129.024 25.544 128.42 25.736 127.636 25.736ZM129.604 22.04C129.596 21.752 129.544 21.476 129.448 21.212C129.36 20.948 129.232 20.716 129.064 20.516C128.896 20.308 128.692 20.144 128.452 20.024C128.212 19.896 127.94 19.832 127.636 19.832C127.324 19.832 127.048 19.896 126.808 20.024C126.568 20.144 126.364 20.308 126.196 20.516C126.028 20.716 125.892 20.952 125.788 21.224C125.692 21.488 125.628 21.76 125.596 22.04H129.604Z" fill="#131313" />
    <path d="M131.242 19.376H131.998V22.004H135.514V19.376H136.27V25.568H135.514V22.64H131.998V25.568H131.242V19.376Z" fill="#131313" />
    <path d="M137.568 19.376H138.324V24.68L141.744 19.376H142.68V25.568H141.924V20.264L138.504 25.568H137.568V19.376Z" fill="#131313" />
    <path d="M143.975 25.568V19.376H144.731V24.68L148.151 19.376H149.087V25.568H148.331V20.264L144.911 25.568H143.975ZM146.507 18.464C146.003 18.464 145.611 18.332 145.331 18.068C145.051 17.796 144.879 17.408 144.815 16.904H145.283C145.323 17.208 145.447 17.448 145.655 17.624C145.871 17.8 146.159 17.888 146.519 17.888C146.863 17.888 147.143 17.804 147.359 17.636C147.583 17.46 147.727 17.216 147.791 16.904H148.259C148.171 17.408 147.983 17.796 147.695 18.068C147.407 18.332 147.011 18.464 146.507 18.464Z" fill="#131313" />
    <path d="M156.266 17H157.178L160.538 25.568H159.662L158.618 22.904H154.718L153.686 25.568H152.822L156.266 17ZM158.342 22.208L156.686 17.816L154.97 22.208H158.342Z" fill="#131313" />
    <path d="M161.041 19.376H161.797V22.004H165.313V19.376H166.069V25.568H165.313V22.64H161.797V25.568H161.041V19.376Z" fill="#131313" />
    <path d="M166.73 24.932H167.462C167.758 24.38 167.974 23.724 168.11 22.964C168.246 22.204 168.314 21.28 168.314 20.192V19.376H172.478V24.932H173.402V27.536H172.646V25.568H167.486V27.536H166.73V24.932ZM171.722 24.932V20.012H169.046V20.444C169.046 21.484 168.97 22.38 168.818 23.132C168.666 23.876 168.474 24.476 168.242 24.932H171.722Z" fill="#131313" />
    <path d="M174.102 19.376H174.798V20.552H174.822C174.998 20.12 175.282 19.788 175.674 19.556C176.074 19.316 176.526 19.196 177.03 19.196C177.502 19.196 177.91 19.284 178.254 19.46C178.606 19.636 178.898 19.876 179.13 20.18C179.362 20.476 179.534 20.824 179.646 21.224C179.758 21.616 179.814 22.032 179.814 22.472C179.814 22.92 179.758 23.34 179.646 23.732C179.534 24.124 179.362 24.472 179.13 24.776C178.898 25.072 178.606 25.308 178.254 25.484C177.91 25.652 177.502 25.736 177.03 25.736C176.798 25.736 176.57 25.708 176.346 25.652C176.13 25.596 175.926 25.512 175.734 25.4C175.542 25.288 175.37 25.148 175.218 24.98C175.074 24.812 174.962 24.616 174.882 24.392H174.858V27.848H174.102V19.376ZM177.03 25.112C177.39 25.112 177.698 25.036 177.954 24.884C178.21 24.724 178.418 24.52 178.578 24.272C178.746 24.024 178.866 23.744 178.938 23.432C179.018 23.112 179.058 22.792 179.058 22.472C179.058 22.152 179.018 21.836 178.938 21.524C178.866 21.204 178.746 20.92 178.578 20.672C178.418 20.424 178.21 20.224 177.954 20.072C177.698 19.912 177.39 19.832 177.03 19.832C176.606 19.832 176.254 19.904 175.974 20.048C175.702 20.192 175.482 20.384 175.314 20.624C175.146 20.864 175.026 21.144 174.954 21.464C174.89 21.784 174.858 22.12 174.858 22.472C174.858 22.792 174.894 23.112 174.966 23.432C175.046 23.744 175.17 24.024 175.338 24.272C175.514 24.52 175.738 24.724 176.01 24.884C176.29 25.036 176.63 25.112 177.03 25.112Z" fill="#131313" />
    <path d="M183.356 25.736C182.86 25.736 182.436 25.652 182.084 25.484C181.732 25.308 181.444 25.072 181.22 24.776C180.996 24.472 180.828 24.124 180.716 23.732C180.613 23.34 180.561 22.92 180.561 22.472C180.561 22.064 180.613 21.664 180.716 21.272C180.828 20.88 180.996 20.532 181.22 20.228C181.444 19.916 181.732 19.668 182.084 19.484C182.436 19.292 182.86 19.196 183.356 19.196C183.853 19.196 184.276 19.296 184.628 19.496C184.98 19.696 185.264 19.96 185.48 20.288C185.704 20.608 185.864 20.98 185.96 21.404C186.056 21.82 186.096 22.244 186.08 22.676H181.316C181.316 22.956 181.353 23.24 181.424 23.528C181.505 23.816 181.629 24.076 181.797 24.308C181.965 24.54 182.176 24.732 182.432 24.884C182.688 25.036 182.996 25.112 183.356 25.112C183.909 25.112 184.34 24.968 184.652 24.68C184.964 24.392 185.18 24.008 185.3 23.528H186.056C185.896 24.232 185.6 24.776 185.168 25.16C184.744 25.544 184.14 25.736 183.356 25.736ZM185.325 22.04C185.316 21.752 185.264 21.476 185.168 21.212C185.08 20.948 184.952 20.716 184.785 20.516C184.617 20.308 184.412 20.144 184.173 20.024C183.933 19.896 183.66 19.832 183.356 19.832C183.045 19.832 182.768 19.896 182.528 20.024C182.288 20.144 182.084 20.308 181.916 20.516C181.748 20.716 181.612 20.952 181.508 21.224C181.412 21.488 181.348 21.76 181.316 22.04H185.325Z" fill="#131313" />
    <path d="M189.459 25.736C188.963 25.736 188.539 25.652 188.187 25.484C187.835 25.308 187.547 25.072 187.323 24.776C187.099 24.472 186.931 24.124 186.819 23.732C186.715 23.34 186.663 22.92 186.663 22.472C186.663 22.064 186.715 21.664 186.819 21.272C186.931 20.88 187.099 20.532 187.323 20.228C187.547 19.916 187.835 19.668 188.187 19.484C188.539 19.292 188.963 19.196 189.459 19.196C189.955 19.196 190.379 19.296 190.731 19.496C191.083 19.696 191.367 19.96 191.583 20.288C191.807 20.608 191.967 20.98 192.063 21.404C192.159 21.82 192.199 22.244 192.183 22.676H187.419C187.419 22.956 187.455 23.24 187.527 23.528C187.607 23.816 187.731 24.076 187.899 24.308C188.067 24.54 188.279 24.732 188.535 24.884C188.791 25.036 189.099 25.112 189.459 25.112C190.011 25.112 190.443 24.968 190.755 24.68C191.067 24.392 191.283 24.008 191.403 23.528H192.159C191.999 24.232 191.703 24.776 191.271 25.16C190.847 25.544 190.243 25.736 189.459 25.736ZM191.427 22.04C191.419 21.752 191.367 21.476 191.271 21.212C191.183 20.948 191.055 20.716 190.887 20.516C190.719 20.308 190.515 20.144 190.275 20.024C190.035 19.896 189.763 19.832 189.459 19.832C189.147 19.832 188.871 19.896 188.631 20.024C188.391 20.144 188.187 20.308 188.019 20.516C187.851 20.716 187.715 20.952 187.611 21.224C187.515 21.488 187.451 21.76 187.419 22.04H191.427Z" fill="#131313" />
    <path d="M193.066 19.376H195.898C196.53 19.376 197.018 19.5 197.362 19.748C197.706 19.996 197.878 20.36 197.878 20.84C197.878 21.208 197.782 21.516 197.59 21.764C197.406 22.012 197.146 22.184 196.81 22.28V22.304C197.218 22.376 197.538 22.536 197.77 22.784C198.002 23.032 198.118 23.384 198.118 23.84C198.118 24.4 197.93 24.828 197.554 25.124C197.178 25.42 196.626 25.568 195.898 25.568H193.066V19.376ZM195.814 24.932C196.342 24.932 196.73 24.836 196.978 24.644C197.234 24.444 197.362 24.148 197.362 23.756C197.362 23.396 197.234 23.12 196.978 22.928C196.73 22.736 196.342 22.64 195.814 22.64H193.822V24.932H195.814ZM195.814 22.052C196.246 22.052 196.57 21.96 196.786 21.776C197.01 21.592 197.122 21.344 197.122 21.032C197.122 20.352 196.686 20.012 195.814 20.012H193.822V22.052H195.814Z" fill="#131313" />
    <path d="M200.897 25.736C200.609 25.736 200.337 25.7 200.081 25.628C199.833 25.564 199.613 25.46 199.421 25.316C199.237 25.164 199.089 24.976 198.977 24.752C198.873 24.52 198.821 24.248 198.821 23.936C198.821 23.504 198.917 23.168 199.109 22.928C199.301 22.68 199.553 22.492 199.865 22.364C200.185 22.236 200.541 22.148 200.933 22.1C201.333 22.044 201.737 21.992 202.145 21.944C202.297 21.928 202.433 21.908 202.553 21.884C202.681 21.86 202.785 21.82 202.865 21.764C202.945 21.7 203.005 21.616 203.045 21.512C203.093 21.408 203.117 21.272 203.117 21.104C203.117 20.848 203.073 20.64 202.985 20.48C202.905 20.312 202.789 20.18 202.637 20.084C202.493 19.988 202.321 19.924 202.121 19.892C201.929 19.852 201.721 19.832 201.497 19.832C201.017 19.832 200.625 19.948 200.321 20.18C200.017 20.404 199.857 20.768 199.841 21.272H199.085C199.133 20.544 199.381 20.016 199.829 19.688C200.285 19.36 200.873 19.196 201.593 19.196C201.865 19.196 202.137 19.224 202.409 19.28C202.681 19.328 202.925 19.424 203.141 19.568C203.357 19.712 203.533 19.916 203.669 20.18C203.805 20.436 203.873 20.772 203.873 21.188V24.476C203.873 24.78 204.021 24.932 204.317 24.932C204.413 24.932 204.493 24.916 204.557 24.884V25.52C204.469 25.536 204.389 25.548 204.317 25.556C204.253 25.564 204.169 25.568 204.065 25.568C203.873 25.568 203.717 25.544 203.597 25.496C203.485 25.44 203.397 25.364 203.333 25.268C203.269 25.172 203.225 25.06 203.201 24.932C203.185 24.796 203.177 24.648 203.177 24.488H203.153C203.017 24.688 202.877 24.868 202.733 25.028C202.597 25.18 202.441 25.308 202.265 25.412C202.097 25.516 201.901 25.596 201.677 25.652C201.453 25.708 201.193 25.736 200.897 25.736ZM200.957 25.112C201.245 25.112 201.521 25.068 201.785 24.98C202.049 24.892 202.277 24.764 202.469 24.596C202.669 24.428 202.825 24.224 202.937 23.984C203.057 23.744 203.117 23.472 203.117 23.168V22.184H203.093C203.045 22.272 202.953 22.336 202.817 22.376C202.681 22.416 202.561 22.444 202.457 22.46C202.137 22.516 201.805 22.568 201.461 22.616C201.125 22.656 200.817 22.72 200.537 22.808C200.257 22.896 200.025 23.024 199.841 23.192C199.665 23.36 199.577 23.592 199.577 23.888C199.577 24.08 199.613 24.252 199.685 24.404C199.765 24.548 199.869 24.676 199.997 24.788C200.125 24.892 200.269 24.972 200.429 25.028C200.597 25.084 200.773 25.112 200.957 25.112Z" fill="#131313" />
</svg>