<svg xmlns="http://www.w3.org/2000/svg" xmlns:xlink="http://www.w3.org/1999/xlink" viewBox="0 0 60 48.5107" width="60.000000" height="48.510742" fill="none" customFrame="#000000">
    <g id="Group">
        <path id="Vector" d="M10 0L25 0L25 26.9504C25 38.8409 16.03 48.5106 5 48.5106L5 37.7305C10.515 37.7305 15 32.8956 15 26.9504L0 26.9504L0 10.7801C0 4.83489 4.485 0 10 0ZM45 0L60 0L60 26.9504C60 38.8409 51.03 48.5106 40 48.5106L40 37.7305C45.515 37.7305 50 32.8956 50 26.9504L35 26.9504L35 10.7801C35 4.83489 39.485 0 45 0Z" fill="rgb(0,0,0)" fill-rule="nonzero" />
    </g>
</svg>