<svg width="100" height="100" viewBox="0 0 100 100" fill="none" xmlns="http://www.w3.org/2000/svg">
<path d="M86.3624 26.238C83.6639 26.238 81.2652 28.7711 79.5305 32.9296C79.2092 31.8952 78.888 30.9242 78.5025 29.9954C76.3608 24.6338 73.4267 21.6785 70.2784 21.6785C67.8583 21.6785 65.5667 23.4306 63.6606 26.6602C61.1763 20.4964 57.8138 17.119 54.173 17.119C51.8814 17.119 49.6969 18.47 47.7694 21.0242C45.0708 15.5359 41.687 12.5595 38.0675 12.5595C35.883 12.5595 33.8056 13.6361 31.8781 15.7047C29.0297 10.7019 25.603 8 21.9621 8C17.3361 8 13.0313 12.3906 9.8402 20.3276C6.71334 28.1167 5 38.4812 5 49.5C5 60.5188 6.71334 70.8622 9.8402 78.6724C13.0313 86.6305 17.3361 91 21.9621 91C25.5815 91 29.0297 88.2981 31.8781 83.2953C33.7842 85.3639 35.883 86.4405 38.0675 86.4405C41.687 86.4405 45.0708 83.4641 47.7694 77.9758C49.6969 80.53 51.8814 81.881 54.173 81.881C57.7924 81.881 61.1549 78.4824 63.6606 72.3398C65.5667 75.5694 67.8583 77.3215 70.2784 77.3215C73.4267 77.3215 76.3608 74.3662 78.5025 69.0046C78.8666 68.0758 79.2092 67.0837 79.5305 66.0704C81.2652 70.2289 83.6639 72.7619 86.3624 72.7619C91.7595 72.7619 96 62.5453 96 49.5211C96 36.4969 91.7595 26.238 86.3624 26.238ZM63.0181 68.5824C60.9835 63.4952 59.8484 56.7192 59.8484 49.4789C59.8484 42.2386 60.9835 35.4837 63.0181 30.3754C63.168 29.9954 63.318 29.6366 63.4679 29.2988C65.3526 34.956 66.3806 42.0064 66.3806 49.4789C66.3806 56.9514 65.3526 64.0018 63.4679 69.659C63.3394 69.3001 63.168 68.9412 63.0181 68.5824ZM21.9835 89.9234C17.8287 89.9234 13.888 85.7861 10.8682 78.2503C7.78418 70.5666 6.09226 60.3499 6.09226 49.4789C6.09226 38.6078 7.78418 28.3911 10.8682 20.7075C13.888 13.1717 17.8287 9.03433 21.9835 9.03433C25.3031 9.03433 28.4728 11.6729 31.1499 16.5491C29.715 18.3222 28.4086 20.6864 27.2521 23.5361C24.4679 30.4809 22.9473 39.6844 22.9473 49.4789C22.9473 59.2734 24.4893 68.4769 27.2521 75.4217C28.4086 78.2925 29.715 80.6356 31.1499 82.4087C28.4728 87.2848 25.3031 89.9234 21.9835 89.9234ZM31.6853 17.5623C32.1779 18.5333 32.6491 19.5676 33.0988 20.6864C36.1829 28.3911 37.8748 38.6078 37.8748 49.4789C37.8748 60.3499 36.1829 70.5666 33.0988 78.2503C32.6491 79.369 32.1779 80.4245 31.6853 81.3744C30.4432 79.7279 29.2867 77.5959 28.2372 75.0206C25.4959 68.2024 23.9967 59.1256 23.9967 49.4789C23.9967 39.8321 25.4959 30.7553 28.2372 23.9372C29.2867 21.3408 30.4432 19.2088 31.6853 17.5623ZM38.0675 85.3639C36.0972 85.3639 34.1911 84.3085 32.4135 82.3031C32.9918 81.1844 33.5486 79.9812 34.084 78.6513C37.2323 70.841 38.9456 60.4766 38.9456 49.4789C38.9456 38.4812 37.2323 28.1167 34.1054 20.3065C33.57 18.9977 33.0132 17.7734 32.4349 16.6546C34.1911 14.6493 36.1186 13.5938 38.0675 13.5938C41.3657 13.5938 44.514 16.5702 47.0626 21.9952C46.1845 23.325 45.3707 24.9293 44.6425 26.7658C42.201 32.8451 40.8731 40.9087 40.8731 49.4789C40.8731 58.0491 42.2224 66.1127 44.6425 72.192C45.3707 74.0285 46.1845 75.6116 47.0626 76.9626C44.5354 82.3876 41.3657 85.3639 38.0675 85.3639ZM47.8979 23.9372C50.6392 30.7553 52.1384 39.8321 52.1384 49.4789C52.1384 59.1256 50.6392 68.2024 47.8979 75.0206C47.7908 75.2739 47.6837 75.5272 47.598 75.7594C46.8913 74.6195 46.2488 73.2897 45.6491 71.7909C43.2504 65.8382 41.944 57.9224 41.944 49.4789C41.944 41.0354 43.2504 33.1195 45.6491 27.1668C46.2488 25.6681 46.9127 24.3382 47.598 23.1984C47.7051 23.4306 47.8122 23.6839 47.8979 23.9372ZM62.6969 71.7909C60.4053 77.5114 57.2998 80.7833 54.173 80.7833C52.1384 80.7833 50.1038 79.3901 48.3048 76.836C48.5189 76.3716 48.7117 75.9072 48.9044 75.4006C51.6886 68.4557 53.2092 59.2523 53.2092 49.4578C53.2092 39.6633 51.6672 30.4598 48.9044 23.515C48.7117 23.0295 48.4975 22.544 48.3048 22.0796C50.1038 19.5254 52.1384 18.1322 54.173 18.1322C57.2998 18.1322 60.4053 21.4041 62.6969 27.1246C62.7825 27.3568 62.8896 27.6101 62.9753 27.8634C62.654 28.5178 62.3328 29.2144 62.0329 29.9743C59.9341 35.1882 58.799 42.1119 58.799 49.4578C58.799 56.8037 59.9555 63.7274 62.0329 68.9412C62.3328 69.7012 62.654 70.3978 62.9753 71.0521C62.8896 71.3054 62.804 71.5587 62.6969 71.7909ZM77.4959 68.5824C75.547 73.4374 72.9127 76.2449 70.257 76.2449C68.0939 76.2449 65.9308 74.3662 64.1318 71.0099C66.2735 65.0994 67.4514 57.5003 67.4514 49.4789C67.4514 41.4575 66.2735 33.8794 64.1318 27.9479C65.9094 24.5916 68.0725 22.7129 70.257 22.7129C72.9127 22.7129 75.547 25.4992 77.4959 30.3754C78.0099 31.6841 78.4811 33.0984 78.888 34.6183C77.5173 38.6289 76.7249 43.7795 76.7249 49.4789C76.7249 55.1783 77.5387 60.3288 78.888 64.3395C78.4811 65.8382 78.0313 67.2736 77.4959 68.5824ZM79.402 36.7291C80.2372 40.5921 80.6656 44.9616 80.6656 49.4789C80.6656 53.9962 80.2158 58.3657 79.402 62.2286C78.3954 58.5979 77.7957 54.1862 77.7957 49.4789C77.7957 44.7716 78.374 40.3599 79.402 36.7291ZM86.3624 71.6643C83.8781 71.6643 81.6079 68.7724 80.0231 64.234C81.1367 59.8644 81.7364 54.7772 81.7364 49.4789C81.7364 44.1806 81.1367 39.0933 80.0231 34.7238C81.6079 30.1854 83.8781 27.2935 86.3624 27.2935C91.0099 27.2935 94.9292 37.4468 94.9292 49.4789C94.9292 61.5109 91.0099 71.6643 86.3624 71.6643Z" fill="#131313" />
</svg>
