<svg width="100" height="100" viewBox="0 0 100 100" fill="none" xmlns="http://www.w3.org/2000/svg">
<rect width="100" height="100" fill="white"/>
<path d="M90.8245 40.7707C90.9342 40.6619 91 40.5313 91 40.3789C91 40.2265 90.9342 40.0958 90.8245 39.987L90.2761 39.4427C86.9856 36.2424 83.3881 33.4993 79.5273 31.2134C83.3881 28.9275 86.9856 26.1844 90.2761 22.9841L90.8245 22.4398C90.9342 22.331 91 22.2004 91 22.048C91 21.8956 90.9342 21.7649 90.8245 21.6561L90.2761 21.1118C79.4834 10.6184 65.2028 4.89267 50.1106 5.00152C34.9965 5.11038 20.8256 11.0102 10.1645 21.6561C9.94516 21.8738 9.94516 22.2004 10.1645 22.4181C13.5866 25.8361 17.3816 28.7751 21.4617 31.1916C17.3816 33.6082 13.5866 36.5254 10.1645 39.9652C9.94516 40.1829 9.94516 40.5095 10.1645 40.7272C13.5866 44.1452 17.3816 47.0842 21.4617 49.5008C17.3816 51.9173 13.5866 54.8346 10.1645 58.2743C9.94516 58.4921 9.94516 58.8186 10.1645 59.0363C13.5866 62.4543 17.3816 65.3933 21.4617 67.8099C17.3816 70.2264 13.5866 73.1437 10.1645 76.5835C9.94516 76.8012 9.94516 77.1277 10.1645 77.3454C20.8256 87.9913 34.9965 93.8911 50.1106 94C50.2422 94 50.3739 94 50.5055 94C65.4661 94 79.5712 88.2961 90.2761 77.8897L90.8245 77.3454C90.9342 77.2366 91 77.106 91 76.9536C91 76.8012 90.9342 76.6706 90.8245 76.5617L90.2761 76.0174C86.9856 72.8171 83.3881 70.074 79.5273 67.7881C83.3881 65.5022 86.9856 62.7591 90.2761 59.5588L90.8245 59.0145C90.9342 58.9057 91 58.7751 91 58.6227C91 58.4703 90.9342 58.3397 90.8245 58.2308L90.2761 57.6865C86.9856 54.4862 83.3881 51.7431 79.5273 49.4572C83.3881 47.1713 86.9856 44.4282 90.2761 41.2279L90.8245 40.7707ZM11.3052 22.0697C21.703 11.8811 35.4571 6.22068 50.0887 6.1336C50.2203 6.1336 50.3519 6.1336 50.4835 6.1336C65.159 6.1336 79.0008 11.7287 89.4864 21.9391L89.6399 22.0915L89.4864 22.2439C86.1082 25.5313 82.4009 28.3179 78.4085 30.6256C69.8533 25.8143 60.1575 23.2889 50.0668 23.376C40.2612 23.4413 30.8286 25.9667 22.5147 30.6256C18.5003 28.2744 14.7273 25.4224 11.3052 22.0697ZM77.3117 31.2352C69.0636 35.7417 59.7626 38.0929 50.1106 38.0276C40.7219 37.9623 31.6841 35.6111 23.6773 31.2352C31.6841 26.8593 40.7219 24.508 50.1106 24.4427C50.2422 24.4427 50.3739 24.4427 50.5055 24.4427C60.0039 24.421 69.1733 26.794 77.3117 31.2352ZM89.4864 76.8229L89.6399 76.9753L89.4864 77.1277C78.8911 87.4253 64.9177 93.0203 50.0887 92.9332C35.4571 92.8244 21.703 87.1858 11.3052 76.9971C14.7053 73.6662 18.4784 70.8142 22.5366 68.4848C30.8505 73.1655 40.2831 75.6691 50.0887 75.7344C50.2203 75.7344 50.3519 75.7344 50.4835 75.7344C60.4207 75.7344 69.985 73.209 78.4085 68.4848C82.4009 70.7489 86.1301 73.5356 89.4864 76.8229ZM23.6554 67.8317C31.6622 63.4558 40.6999 61.1045 50.0887 61.0392C50.2203 61.0392 50.3519 61.0392 50.4835 61.0392C60.0039 61.0392 69.1733 63.3904 77.2898 67.8317C69.0417 72.3382 59.7407 74.6894 50.0887 74.6241C40.6999 74.5588 31.6622 72.1858 23.6554 67.8317ZM89.4864 58.5138L89.6399 58.6662L89.4864 58.8186C86.1082 62.106 82.4009 64.8926 78.4085 67.2003C69.963 62.4543 60.4207 59.9507 50.4835 59.9507C50.3519 59.9507 50.2203 59.9507 50.0887 59.9507C40.2831 60.016 30.8505 62.5414 22.5366 67.2003C18.5003 64.8709 14.7273 62.0189 11.3052 58.6662C14.7053 55.3353 18.4784 52.4833 22.5366 50.1539C30.8505 54.8346 40.2831 57.3382 50.0887 57.4035C50.2203 57.4035 50.3519 57.4035 50.4835 57.4035C60.4207 57.4035 69.985 54.8781 78.4085 50.1539C82.4009 52.4398 86.1301 55.2482 89.4864 58.5138ZM23.6554 49.5225C31.6622 45.1466 40.6999 42.7954 50.0887 42.7301C50.2203 42.7301 50.3519 42.7301 50.4835 42.7301C60.0039 42.7301 69.1733 45.0813 77.2898 49.5225C69.0417 54.0291 59.7407 56.3803 50.0887 56.315C40.6999 56.2497 31.6622 53.8984 23.6554 49.5225ZM89.4864 40.5312C86.1082 43.8186 82.4009 46.6053 78.4085 48.913C69.8533 44.1234 60.1575 41.598 50.0887 41.6633C40.2831 41.7286 30.8505 44.254 22.5366 48.913C18.5003 46.5617 14.7273 43.7098 11.3052 40.3789C14.7053 37.0479 18.4784 34.196 22.5366 31.8665C30.8505 36.5472 40.2831 39.0508 50.0887 39.1162C50.2203 39.1162 50.3519 39.1162 50.4835 39.1162C60.4207 39.1162 69.985 36.5908 78.4085 31.8665C82.379 34.1524 86.1082 36.9609 89.4864 40.2482L89.6399 40.4006L89.4864 40.5312Z" fill="#131313"/>
</svg>
