<svg width="100" height="100" viewBox="0 0 100 100" fill="none" xmlns="http://www.w3.org/2000/svg">
<rect width="100" height="100" fill="white"/>
<path d="M91.4095 8H50H8.59055C8.25984 8 8 8.25984 8 8.59055V50V91.4095C8 91.7402 8.25984 92 8.59055 92H91.4095C91.7402 92 92 91.7402 92 91.4095V8.59055C92 8.25984 91.7402 8 91.4095 8ZM90.8189 48.6299C85.315 43.5748 78.2047 40.811 70.7165 40.811C70.6457 40.811 70.5748 40.811 70.5039 40.811C64.6457 40.8583 59.0472 42.5827 54.252 45.748C57.5118 40.8583 59.2362 35.0945 59.189 29.0945C59.1417 21.6535 56.378 14.6378 51.3701 9.1811H90.7953V48.6299H90.8189ZM90.5591 50C85.1969 55.1732 78.1575 58.0315 70.6929 58.0315C70.6221 58.0315 70.5512 58.0315 70.4803 58.0315C63.0866 57.9843 56.1181 55.126 50.8032 50C56.1181 44.874 63.063 42.0394 70.4803 41.9685C70.5512 41.9685 70.6221 41.9685 70.6929 41.9685C78.1575 41.9685 85.1969 44.8268 90.5591 50ZM50 49.1496C44.7795 43.7402 41.9213 36.6299 41.9685 29.0945C42.0158 21.7008 44.874 14.7323 50 9.41732C55.126 14.7323 57.9606 21.6772 58.0315 29.0945C58.0787 36.6299 55.2205 43.7402 50 49.1496ZM48.6063 9.1811C43.6221 14.6378 40.8583 21.6535 40.7874 29.0945C40.7402 35.0945 42.4882 40.8583 45.748 45.748C40.8583 42.4882 35.0945 40.7638 29.0945 40.7874C21.6535 40.8346 14.6378 43.5984 9.1811 48.6063V9.1811H48.6063ZM49.1496 50C43.7874 55.1732 36.748 58.0315 29.2835 58.0315C29.2126 58.0315 29.1417 58.0315 29.0709 58.0315C21.6772 57.9843 14.7087 55.126 9.3937 50C14.7087 44.874 21.6535 42.0394 29.0709 41.9685C36.6299 41.9213 43.7402 44.7795 49.1496 50ZM9.1811 51.3937C14.6378 56.4016 21.6535 59.1654 29.0945 59.2126C29.1654 59.2126 29.2362 59.2126 29.3071 59.2126C35.2362 59.2126 40.9055 57.4882 45.748 54.2756C42.5827 59.0473 40.8347 64.6457 40.811 70.5276C40.7638 78.1102 43.5276 85.2914 48.6299 90.8425H9.1811V51.3937ZM50 50.8504C55.126 56.1654 57.9606 63.1102 58.0315 70.5276C58.0787 78.063 55.2441 85.1732 50 90.5827C44.7795 85.1732 41.9213 78.063 41.9685 70.5276C42.0394 63.1102 44.874 56.1417 50 50.8504ZM51.3701 90.8189C56.4724 85.2677 59.2362 78.0866 59.189 70.5039C59.1417 64.6457 57.4173 59.0473 54.252 54.2756C59.0236 57.441 64.6221 59.1654 70.4803 59.2126C70.5512 59.2126 70.6221 59.2126 70.6929 59.2126C78.2047 59.2126 85.2913 56.4488 90.7953 51.3937V90.8425H51.3701V90.8189Z" fill="#131313"/>
</svg>
